<svg xmlns="http://www.w3.org/2000/svg" viewBox="0 0 1280 908.4"><path d="M8.8 8.8h1262.5v890.9H8.8V8.8z" fill="none" stroke="currentColor" stroke-width="17.534" stroke-miterlimit="70.137"/><path d="M175.4 245.4c18.7 0 32.3-4.8 40.8-14.8L219 242h21.7v-86.1h-65.8V182h35c0 4.4-.3 8-.8 11.4-1.3 8-4.5 14.3-10.1 18.9-5.5 4.6-13.1 7-22.4 7-11.1 0-20.4-4.8-27.7-14.5s-11.1-22.5-11.1-38.5 3.5-28.8 10.6-38.2 16.9-14.3 29.2-14.3c4.3 0 8.1.5 11.3 1.7 3.3 1.2 6.6 2.9 9.1 5.6 2.8 2.4 4.8 4.6 6.1 6.3 1.5 1.7 3 4.1 5.3 7l28-8.2c-1.5-3.6-3.8-7.5-6.6-11.4s-6.6-8-11.3-12.3c-4.8-4.4-10.6-8-17.9-10.9-7.3-2.7-15.4-4.1-24-4.1-22.2 0-39.8 7.5-52.9 22.3S105 143.4 105 166.4c0 23.9 6.8 43.3 20.4 57.6 13.5 14.1 30.4 21.4 50 21.4zM311.6 245.4c12.9 0 23.7-2.9 32.5-8.7 8.8-5.8 15.1-12.8 18.9-21l-25.7-8.7c-2.3 4.4-5.5 7.7-9.8 10.6-4.3 2.7-9.3 4.1-15.1 4.1-7.8 0-14.1-2.4-18.7-7.3-4.5-4.8-6.8-10.9-6.8-17.9h76.9c.5-3.6.5-7.3.5-10.6 0-17.4-5.3-31.7-15.6-42.3-10.3-10.9-23.2-16.2-38.3-16.2-15.6 0-28.5 5.3-39.1 15.7s-15.9 24.7-15.9 42.8 5.3 32.4 15.6 43.3c11.1 10.9 24.5 16.2 40.6 16.2zm-18.2-87.1c4.3-5.1 9.8-7.7 17.1-7.7 7.3 0 12.9 2.7 16.6 7.7 4 5.1 5.8 11.1 5.8 18.4H287c.1-7 2.4-13.1 6.4-18.4zM479.3 242v-71.4c0-28.8-12.9-43.3-38.3-43.3-13.4 0-23.2 4.8-29.5 14.3h-.3v-10.9h-29.5V242h31v-63.1c0-7.5 2-13.8 6.1-18.9 4-4.8 9.1-7.3 15.6-7.3 5 0 8.6 1.7 11.1 4.8 2.3 3.1 3.5 9 3.5 16.7V242h30.3zM551.6 245.4c12.9 0 23.7-2.9 32.5-8.7 8.8-5.8 15.1-12.8 18.9-21l-25.7-8.7c-2.3 4.4-5.5 7.7-9.8 10.6-4.3 2.7-9.3 4.1-15.1 4.1-7.8 0-14.1-2.4-18.7-7.3-4.5-4.8-6.8-10.9-6.8-17.9h76.9c.5-3.6.5-7.3.5-10.6 0-17.4-5.3-31.7-15.6-42.3-10.3-10.9-23.2-16.2-38.3-16.2-15.6 0-28.5 5.3-39.1 15.7s-15.9 24.7-15.9 42.8 5.3 32.4 15.6 43.3c10.9 10.9 24.2 16.2 40.6 16.2zm-18.1-87.1c4.3-5.1 9.8-7.7 17.1-7.7s12.9 2.7 16.6 7.7c4 5.1 5.8 11.1 5.8 18.4h-46.1c.3-7 2.3-13.1 6.6-18.4zM652.7 188.5c0-10.4 2-18.6 6.1-24.7 4-6 10.1-9.2 18.4-9.2 5 0 9.8.7 14.4 1.9v-27.1c-2.8-1.5-7.6-1.9-14.4-1.9-5.5 0-10.8 1.2-15.4 3.9-4.5 2.4-8.1 5.6-10.6 9V131H622v111.3h30.8l-.1-53.8zM743.4 173.3c-15.6 2.2-27.5 6.5-35.5 13.3s-12.1 15-12.1 25.2c0 9.9 3.8 18.1 11.1 24.2 7.3 6.3 17.4 9.4 30 9.4 6.8 0 13.1-1.5 18.4-4.4 5.3-2.9 9.3-6.3 11.6-10.6v11.4h29.7V174c0-15-3.8-26.4-11.1-34.6-7.6-8.2-19.9-12.1-37.8-12.1-19.9 0-36.3 7.3-48.9 21.5l18.2 15c8.8-9.2 19.2-13.8 31.3-13.8 5.3 0 9.6 1 12.9 3.1 3.3 2.2 4.8 5.6 4.8 10.2v5.8c-2.1 1-9.7 2.3-22.6 4.2zm22.5 23.2c0 7.5-2.3 13.3-7.1 17.7-4.8 4.4-10.6 6.5-17.4 6.5-4.3 0-7.8-1.2-10.3-3.4-2.8-2.2-4-5.1-4-8.5 0-8.9 7.1-14.5 21.2-16.4 4.3-.7 10.3-1.7 17.6-3.6v7.7zM826.7 206.4c0 23.7 12.6 35.6 37.8 35.6h16.9v-25.2h-13.1c-7.6 0-11.1-4.1-11.1-12.1v-48.9h23.9v-25.2h-23.9V99.2h-30.5V131h-16.6v24.9h16.6v50.5zM931 88.6h-31v30.2h31V88.6zM930.7 130.7h-30.5V242h30.5V130.7zM956.7 217.6c2.5 5.3 5.8 9.9 9.8 14s9.3 7.3 15.9 9.9c6.6 2.7 13.9 3.9 22.4 3.9 8.6 0 15.9-1.5 22.7-4.1 6.6-2.7 11.8-6 15.6-10.2 3.8-4.1 7.1-9 9.6-14.5 2.5-5.6 4.3-10.6 5-15.5 1-4.8 1.3-9.7 1.3-14.8 0-7.7-1-14.8-3-21.8-2-6.8-5-13.1-9.3-18.9-4.3-5.6-9.8-10.2-17.1-13.5-7.3-3.4-15.4-5.1-24.7-5.1s-17.6 1.7-25 5.1c-7.3 3.4-12.9 7.7-17.1 13.5-4.3 5.6-7.3 11.9-9.3 18.9-2 6.8-3 14-3 21.8 0 5.3.5 10.4 1.5 15.5.4 5.1 2.2 10.4 4.7 15.8zm32-57.4c4.8-5.1 10.1-7.7 15.9-7.7 2.5 0 4.8.5 7.3 1.5 2.3 1 4.8 2.7 7.3 5.1 2.5 2.4 4.5 5.8 6.1 10.6 1.5 4.6 2.3 10.4 2.3 16.7s-.8 12.1-2.3 16.7c-1.5 4.8-3.5 8.2-6.1 10.6-2.5 2.2-4.8 3.9-7.3 5.1-2.3 1-4.8 1.5-7.3 1.5-5.8 0-11.1-2.7-15.9-7.7-4.8-5.1-7.1-13.8-7.1-26.1s2.3-21.2 7.1-26.3zM1107.3 178.9c0-7.5 2-13.8 6.1-18.9 4-5.1 9.1-7.5 15.6-7.5 5 0 8.6 1.7 11.1 4.8 2.3 3.1 3.5 9 3.5 16.7v67.7h30.5v-71.1c0-28.8-12.9-43.3-38.3-43.3-13.4 0-23.2 4.8-29.5 14.3h-.3v-10.9h-29.5V242h30.8v-63.1z" fill="currentColor"/><path class="st0" d="M334.4 513.1c0 41.6 2.8 80.1 8.1 115.4h-2l-42.9-78.1-108.2-196h-85v395.5h83.4V593.4c0-37.7-3-76.2-9.1-115.9h2.5l44.4 83.5 107.6 188.7h84.5V354.2h-83.4v158.9h.1zM670.2 468.1c-9.8 20.1-19.4 39.7-29.2 59h-2.5c-14.1-30.2-23.4-49.8-28.2-59l-58.5-113.9h-95l141.4 236.1v159.4h83.4V590.3l141.9-236.1H728l-57.8 113.9zM1099.8 625.6c-6.8 17.7-18.2 32.9-34 45.5-15.9 12.6-34 18.9-54.2 18.9-30.3 0-54.5-12.6-72.4-37.5C921 627.6 912 594 912 551.9c0-41.6 9.1-74.7 27-99.7 17.9-24.9 42.1-37.5 72.6-37.5 20.2 0 36.3 5.1 48.9 15 12.4 9.9 23.2 23 32.8 39.2l71.9-22.3c-12.4-29-31.8-53-58.5-72.1-26.5-19.1-58-28.8-94.5-28.8-54.7 0-99.3 18.6-134.1 56.1-34.8 37.3-52.2 87.3-52.2 150.2 0 64.3 17.6 114.9 52.9 151.7 35.3 36.8 79.7 55.2 133.4 55.2 18.4 0 35.8-2.4 52.2-7.3 16.4-4.8 30.3-11.1 41.8-18.6 11.6-7.5 22.2-16.4 31.8-26.6 9.6-10.2 17.1-19.8 22.9-29.3 5.8-9.4 10.6-18.9 14.6-28.5l-75.7-23z" fill="none" stroke="currentColor" stroke-width="17.534" stroke-miterlimit="70.137"/></svg>