<svg xmlns="http://www.w3.org/2000/svg" viewBox="0 0 409 159"><path d="M214.4 31.9l4.6-4.5V13.7L205.3 0h-45.6L146 13.7V4.6L141.4 0h-18.2l-4.6 4.6v9.1l-9.1 9.1-9.1-9.1V4.6L95.8 0H77.6L73 4.6 68.4 0H50.2l-4.6 4.6v18.2L22.8 0H4.6L0 4.6v63.9L4.6 73h18.2l4.6-4.6V50.2L50.2 73h18.3l4.6-4.6V31.9l22.8 22.8v13.7l4.6 4.6h18.2l4.6-4.6V54.8L146 31.9v27.4L159.7 73h45.6L219 59.3V45.6l-4.6-4.6h-22.8v4.6h-18.2V27.4h18.2v4.5h22.8zM215.8 3.1c.4 0 .8 0 .8-.5s-.4-.5-.8-.5h-.7v1h.7zm-.7 2h-.6V1.6h1.3c.8 0 1.3.3 1.3 1 0 .1 0 .2-.1.4 0 .1-.1.2-.2.3-.1.1-.2.2-.3.2-.1 0-.2.1-.4.1l1 1.5h-.6l-.9-1.5h-.5v1.5zm.6-4.4c-.3 0-.7.1-1 .2-.3.1-.6.3-.8.6-.2.2-.4.5-.5.8-.1.3-.2.6-.1 1 0 .3 0 .7.1 1 .1.3.3.6.5.8.2.2.5.4.8.6.3.1.6.2 1 .2.3 0 .7-.1 1-.2.3-.1.6-.3.8-.6.2-.2.4-.5.5-.8.1-.3.2-.6.1-1 0-.3 0-.7-.1-1-.1-.3-.3-.6-.5-.8-.2-.2-.5-.4-.8-.6-.3-.1-.6-.2-1-.2zm0 5.7c-.4 0-.8-.1-1.2-.2-.4-.2-.7-.4-1-.7-.3-.3-.5-.6-.7-1-.1-.4-.2-.8-.2-1.2 0-.4 0-.8.2-1.2.1-.4.4-.8.7-1.1.3-.3.6-.5 1-.7.4-.2.8-.3 1.2-.3s.8.1 1.2.3c.4.2.7.4 1 .7.3.3.5.7.7 1.1.1.4.2.8.2 1.2 0 .4-.1.8-.2 1.2-.1.4-.4.7-.7 1-.3.3-.6.5-1 .7-.4.1-.8.2-1.2.2M9 135.7c5.7 0 9 4.2 9 9.5s-3.2 9.5-9 9.5-9-4.2-9-9.5 3.2-9.5 9-9.5zm0 14.9c3.1 0 4.2-2.7 4.2-5.4s-1.2-5.4-4.2-5.4-4.2 2.7-4.2 5.4 1.1 5.4 4.2 5.4zM21.2 143.9h-2.1v-2.8h2.1c0-3.8 1.3-5 5-5 .7 0 1.4 0 2.1.1v3.1c-.4 0-.8-.1-1.2-.1-1 0-1.6.1-1.6 1.3v.6h2.6v2.8h-2.6v10.4h-4.3v-10.4zM30.4 143.9h-2.1v-2.8h2.1c0-3.8 1.3-5 5-5 .7 0 1.4 0 2.1.1v3.1c-.4 0-.8-.1-1.2-.1-1 0-1.6.1-1.6 1.3v.6h2.6v2.8h-2.6v10.4h-4.3v-10.4zm12.6-4.5h-4.4v-3.3H43v3.3zm-4.3 1.7H43v13.2h-4.4l.1-13.2zM54.5 145.9c0-.3-.1-.5-.2-.8-.1-.2-.3-.5-.5-.6-.2-.2-.4-.3-.7-.4-.3-.1-.5-.1-.8-.1-2.4 0-2.8 2.1-2.8 3.9 0 1.8.7 3.5 2.6 3.5.3 0 .6 0 .9-.1.3-.1.6-.3.8-.5.2-.2.4-.5.5-.8.1-.3.2-.6.2-.9h4.2c-.4 3.5-3.1 5.6-6.7 5.6-.9 0-1.8-.1-2.7-.4-.9-.3-1.6-.8-2.3-1.5-.7-.6-1.2-1.4-1.5-2.3-.3-.8-.5-1.8-.5-2.7 0-4.2 2.7-7.2 6.9-7.2 3.3 0 6.2 1.7 6.5 5.2l-3.9.1zM64.5 148.8c0 .4 0 .8.2 1.2.1.4.4.7.6 1 .3.3.6.5 1 .6.4.1.8.2 1.2.2.5 0 1-.1 1.5-.3.4-.3.8-.6 1-1.1h4c-.8 3.1-3.6 4.4-6.6 4.4-4.3 0-7.2-2.6-7.2-7 0-.9.2-1.9.5-2.7.4-.9.9-1.6 1.6-2.3.7-.7 1.5-1.2 2.3-1.5.9-.3 1.8-.5 2.7-.5 4.8 0 7.1 3.6 6.9 8h-9.7zm5.4-2.5c0-.7-.3-1.4-.7-1.9-.5-.5-1.1-.8-1.8-.8s-1.4.3-1.9.8-.8 1.2-.9 1.9h5.3zM85.1 143.9H83v-2.8h2.1c0-3.8 1.3-5 5-5 .7 0 1.4 0 2.1.1v3.1c-.4 0-.8-.1-1.2-.1-1 0-1.6.1-1.6 1.3v.6H92v2.8h-2.6v10.4h-4.3v-10.4zM99.5 140.7c1.4 0 2.7.4 3.9 1.2s2 1.9 2.6 3.1c.5 1.3.7 2.7.4 4-.3 1.4-.9 2.6-1.9 3.6-1 1-2.2 1.6-3.6 1.9-1.4.3-2.8.1-4-.4-1.3-.5-2.4-1.4-3.1-2.6-.8-1.2-1.2-2.5-1.2-3.9 0-.9.1-1.9.5-2.7.3-.9.9-1.6 1.5-2.3.7-.7 1.4-1.2 2.3-1.5.7-.3 1.7-.4 2.6-.4zm0 10.7c2 0 2.7-2 2.7-3.7s-.6-3.7-2.7-3.7c-2 0-2.6 2-2.6 3.7s.6 3.7 2.6 3.7zM108.5 141.1h4.2v2.3c.3-.8.9-1.5 1.6-1.9.7-.5 1.6-.7 2.4-.6.3 0 .7 0 1 .1v3.9c-.5-.2-1.1-.2-1.7-.3-.4 0-.9 0-1.3.2-.4.1-.8.4-1.1.7s-.6.7-.7 1.1c-.2.4-.2.8-.2 1.2v6.6h-4.3l.1-13.3zM127.1 136.1h14.5v3.8h-9.8v3.2h8.9v3.7h-8.9v3.5h10v4.1H127v-18.3zM152.6 145.9c0-.3-.1-.5-.2-.8-.1-.2-.3-.5-.5-.6-.2-.2-.4-.3-.7-.4-.2-.1-.5-.1-.8-.1-2.4 0-2.8 2.1-2.8 3.9s.7 3.5 2.6 3.5c.3 0 .6 0 .9-.1.3-.1.6-.3.8-.5.2-.2.4-.5.5-.8.1-.3.2-.6.2-.9h4.2c-.4 3.6-3.1 5.6-6.7 5.6-.9 0-1.8-.1-2.7-.4-.9-.3-1.6-.8-2.3-1.5-.7-.6-1.2-1.4-1.5-2.3-.3-.8-.5-1.8-.5-2.7 0-4.2 2.7-7.2 6.9-7.2 3.3 0 6.2 1.7 6.5 5.2h-3.9zM165.3 140.7c1.4 0 2.7.4 3.9 1.2s2 1.9 2.6 3.1c.5 1.3.7 2.7.4 4-.3 1.4-.9 2.6-1.9 3.6-1 1-2.2 1.6-3.6 1.9-1.4.3-2.8.1-4-.4-1.3-.5-2.4-1.4-3.1-2.6-.8-1.2-1.2-2.5-1.2-3.9 0-.9.1-1.9.5-2.7.3-.9.9-1.6 1.5-2.3.7-.7 1.4-1.2 2.3-1.5.7-.3 1.7-.4 2.6-.4zm0 10.7c2 0 2.6-2 2.6-3.7s-.6-3.7-2.6-3.7-2.6 2-2.6 3.7.6 3.7 2.6 3.7zM174.1 141.1h4.2v1.8c.5-.7 1.1-1.2 1.8-1.6.7-.4 1.5-.6 2.4-.6 4.4 0 4.8 3.2 4.8 5.1v8.5H183v-6.4c0-1.8.2-3.6-2.2-3.6-1.6 0-2.3 1.4-2.3 2.8v7.2h-4.3l-.1-13.2zM196.1 140.7c1.4 0 2.7.4 3.9 1.2 1.2.8 2 1.9 2.6 3.1.5 1.3.7 2.7.4 4-.3 1.4-.9 2.6-1.9 3.6s-2.2 1.6-3.6 1.9c-1.4.3-2.8.1-4-.4s-2.4-1.4-3.1-2.6c-.8-1.2-1.2-2.5-1.2-3.9 0-.9.1-1.9.5-2.7.3-.9.9-1.6 1.5-2.3.7-.7 1.4-1.2 2.3-1.5.8-.3 1.7-.4 2.6-.4zm0 10.7c2 0 2.6-2 2.6-3.7s-.6-3.7-2.6-3.7-2.6 2-2.6 3.7.6 3.7 2.6 3.7zM205.2 141.1h4.2v1.8h.1c.4-.7.9-1.2 1.6-1.6.7-.4 1.4-.6 2.2-.6.8-.1 1.6.1 2.3.5.7.4 1.2 1 1.6 1.7.5-.7 1.1-1.2 1.8-1.6.7-.4 1.5-.6 2.3-.5 4.2 0 4.7 3.2 4.7 5.7v7.9h-4.3v-7.8c0-1.4-.7-2.3-1.8-2.3-1.9 0-2 1.4-2 3.6v6.5h-4.3v-7.5c0-1.6-.4-2.5-1.6-2.5-1.6 0-2.2.9-2.2 3.6v6.5h-4.3l-.3-13.4zM233.2 139.4h-4.3v-3.3h4.3v3.3zm-4.4 1.7h4.3v13.2h-4.3v-13.2zM244.7 145.9c0-.3-.1-.5-.2-.8-.1-.2-.3-.5-.5-.6-.2-.2-.4-.3-.7-.4-.2-.1-.5-.1-.8-.1-2.4 0-2.8 2.1-2.8 3.9s.7 3.5 2.6 3.5c.3 0 .6 0 .9-.1.3-.1.6-.3.8-.5.2-.2.4-.5.5-.8.1-.3.2-.6.2-.9h4.2c-.4 3.6-3.1 5.6-6.7 5.6-.9 0-1.8-.1-2.7-.4-.9-.3-1.6-.8-2.3-1.5-.7-.6-1.2-1.4-1.5-2.3-.3-.8-.5-1.8-.5-2.7 0-4.2 2.7-7.2 6.9-7.2 3.3 0 6.2 1.7 6.5 5.2h-3.9zM267.4 135.7c5.7 0 9 4.2 9 9.5s-3.2 9.5-9 9.5-9-4.2-9-9.5 3.2-9.5 9-9.5zm0 14.9c3.1 0 4.2-2.7 4.2-5.4s-1.2-5.4-4.2-5.4-4.2 2.7-4.2 5.4 1.1 5.4 4.2 5.4zM278.6 141.1h4.1v1.5c.4-.6.9-1.1 1.6-1.4.6-.3 1.4-.5 2.1-.5 4.1 0 5.9 3.6 5.9 7.3 0 3.4-1.8 6.7-5.6 6.7-.7 0-1.5-.1-2.1-.4-.7-.3-1.2-.8-1.7-1.4v5.9h-4.3v-17.7zm4.2 6.5c0 2.3.7 3.8 2.6 3.8s2.6-2 2.6-3.8c0-1.8-.7-3.6-2.6-3.6-1.1 0-2.6.8-2.6 3.6zM294.5 141.1h4.1v1.5c.4-.6.9-1.1 1.6-1.4.6-.3 1.4-.5 2.1-.5 4.1 0 5.9 3.6 5.9 7.3 0 3.4-1.8 6.7-5.6 6.7-.7 0-1.5-.1-2.1-.4-.7-.3-1.2-.8-1.7-1.4h-.1v5.9h-4.3v-17.7zm4.2 6.5c0 2.3.7 3.8 2.6 3.8s2.6-2 2.6-3.8c0-1.8-.7-3.6-2.6-3.6-1.1 0-2.6.8-2.6 3.6zM316.7 140.7c1.4 0 2.7.4 3.9 1.2s2 1.9 2.6 3.1c.5 1.3.7 2.7.4 4-.3 1.4-.9 2.6-1.9 3.6s-2.2 1.6-3.6 1.9c-1.4.3-2.8.1-4-.4s-2.4-1.4-3.1-2.6c-.8-1.2-1.2-2.5-1.2-3.9 0-.9.1-1.9.5-2.7.3-.9.9-1.6 1.5-2.3.7-.7 1.4-1.2 2.3-1.5.8-.3 1.7-.4 2.6-.4zm0 10.7c2 0 2.7-2 2.7-3.7s-.6-3.7-2.7-3.7c-2 0-2.6 2-2.6 3.7s.6 3.7 2.6 3.7zM325.5 141.1h4.2v2.3c.3-.8.9-1.5 1.6-1.9.7-.5 1.6-.7 2.4-.6.3 0 .7 0 1 .1v3.9c-.5-.2-1.1-.2-1.7-.3-.4 0-.9 0-1.3.2-.4.1-.8.4-1.1.7-.3.3-.6.7-.7 1.1-.2.4-.2.8-.2 1.3v6.6h-4.3v-13.4zM344.5 143.9h-2.7v6c0 1.1.6 1.3 1.6 1.3.3 0 .7-.1 1.1-.1v3.2c-.8 0-1.6.1-2.4.1-3.7 0-4.6-1.1-4.6-4.7v-5.9h-2.2V141h2.2v-4h4.3v4h2.7v2.9zM359.5 154.3h-4.2v-1.8c-.4.7-1 1.2-1.7 1.6-.7.4-1.5.6-2.3.6-3.8 0-4.9-2.2-4.9-5.7v-7.9h4.3v7.7c0 1.8.8 2.4 2.1 2.4.9 0 2.4-.6 2.4-3v-7.1h4.3v13.2zM362.2 141.1h4.2v1.8c.5-.7 1.1-1.2 1.8-1.6.7-.4 1.5-.6 2.4-.6 4.4 0 4.8 3.2 4.8 5.1v8.5h-4.3v-6.4c0-1.8.2-3.6-2.2-3.6-1.6 0-2.4 1.4-2.4 2.8v7.2h-4.3v-13.2zM382.1 139.4h-4.3v-3.3h4.3v3.3zm-4.3 1.7h4.3v13.2h-4.3v-13.2zM393 143.9h-2.7v6c0 1.1.6 1.3 1.6 1.3.4 0 .7-.1 1.1-.1v3.2c-.8 0-1.6.1-2.4.1-3.7 0-4.6-1.1-4.6-4.7v-5.9h-2.2V141h2.2v-4h4.3v4h2.7v2.9zM402.8 155.5c-1 2.9-2.6 3.3-5.5 3.3h-2v-3.5h1.5c.2 0 .4 0 .6-.1l.6-.3c.2-.1.3-.3.4-.5.1-.2.1-.4.2-.6-.3-1.2-.6-2.4-1.1-3.5l-3.4-9.2h4.6l2.5 8.6 2.5-8.6h4.4l-5.3 14.4zM404.3 118.5H0v1h404.3v-1z" fill="currentColor"/><path class="st1" d="M13.1 90c-.2-.4-.5-.7-.9-1-.3-.3-.7-.5-1.2-.6-.4-.2-.9-.2-1.4-.2-.9 0-1.6.2-2.2.5s-1 .8-1.4 1.3c-.4.6-.6 1.2-.8 1.9-.1.8-.2 1.5-.2 2.3 0 .7.1 1.4.3 2.1.1.7.4 1.3.7 1.9.4.6.9 1 1.5 1.3s1.3.5 2.2.5c1.2 0 2.1-.4 2.7-1.1.7-.7 1.1-1.7 1.2-2.8h3.7c-.1 1.1-.4 2.1-.8 3-.4.9-.9 1.6-1.6 2.2-.7.6-1.4 1.1-2.3 1.4-.9.3-1.9.5-3 .5-1.3 0-2.5-.2-3.6-.7s-2-1.1-2.7-1.9c-.7-.8-1.3-1.8-1.7-2.9-.4-1.1-.6-2.3-.6-3.6 0-1.3.2-2.5.6-3.6.4-1.1 1-2.1 1.7-2.9.7-.8 1.6-1.5 2.7-2s2.4-.6 3.7-.6c1 0 1.9.1 2.7.4.9.3 1.6.7 2.3 1.2.7.5 1.2 1.2 1.7 2 .4.8.7 1.7.8 2.7h-3.7c-.1-.5-.2-.9-.4-1.3zM23.1 85.4V92h.1c.4-.7 1-1.3 1.7-1.6.7-.3 1.4-.5 2-.5.9 0 1.7.1 2.3.4s1.1.6 1.4 1 .6 1 .7 1.6c.1.6.2 1.4.2 2.1v7.8H28v-7.1c0-1-.2-1.8-.5-2.3-.3-.5-.9-.8-1.7-.8-.9 0-1.6.3-2.1.8-.4.6-.6 1.5-.6 2.8v6.6h-3.5V85.4h3.5zM34.2 88.2v-2.9h3.5v2.9h-3.5zm3.5 2v12.6h-3.5V90.2h3.5zM43.9 85.4v17.4h-3.5V85.4h3.5zM55.6 101.2c-.4.7-.9 1.2-1.6 1.5-.7.3-1.4.5-2.2.5-.9 0-1.8-.2-2.5-.5-.7-.4-1.3-.9-1.8-1.5s-.8-1.3-1-2.2c-.2-.8-.4-1.7-.4-2.5s.1-1.7.4-2.5c.2-.8.6-1.5 1-2.1.5-.6 1-1.1 1.7-1.5.7-.4 1.5-.5 2.4-.5.7 0 1.5.2 2.1.5.7.3 1.2.8 1.6 1.4v-6.3H59v17.4h-3.3l-.1-1.7zm-.1-6.2c-.1-.5-.3-.9-.5-1.3s-.5-.7-.9-.9c-.4-.2-.8-.3-1.4-.3-.6 0-1 .1-1.4.3s-.7.5-.9.9c-.2.4-.4.8-.5 1.3-.1.5-.2 1-.2 1.5s.1 1 .2 1.5.3.9.5 1.3c.3.4.6.7 1 .9.4.2.8.4 1.4.4.6 0 1-.1 1.4-.3.4-.2.7-.5.9-.9.2-.4.4-.8.5-1.3.1-.5.1-1 .1-1.5-.1-.6-.1-1.1-.2-1.6zM64.9 90.2v2.3c.2-.4.4-.8.7-1.1.3-.3.6-.6 1-.9.4-.2.7-.4 1.1-.5.4-.1.8-.2 1.3-.2.2 0 .5 0 .8.1v3.2c-.2 0-.4-.1-.6-.1h-.7c-.6 0-1.2.1-1.6.3-.4.2-.8.5-1.1.9-.3.4-.5.8-.6 1.3-.1.5-.2 1-.2 1.6v5.7h-3.5V90.2h3.4zM74.4 99.8c.5.5 1.3.8 2.2.8.7 0 1.3-.2 1.8-.5s.8-.7.9-1.1h3.1c-.5 1.5-1.2 2.6-2.2 3.2-1 .7-2.2 1-3.7 1-1 0-1.9-.2-2.7-.5-.8-.3-1.5-.8-2-1.4-.6-.6-1-1.3-1.3-2.1-.3-.8-.5-1.7-.5-2.7 0-.9.2-1.8.5-2.6s.7-1.5 1.3-2.1c.6-.6 1.2-1.1 2-1.4.8-.3 1.7-.5 2.6-.5 1.1 0 2 .2 2.8.6.8.4 1.5 1 2 1.7s.9 1.5 1.1 2.4c.2.9.3 1.8.2 2.8h-9.1c.2 1.1.4 1.9 1 2.4zm3.9-6.6c-.4-.5-1-.7-1.9-.7-.6 0-1 .1-1.4.3-.4.2-.7.4-.9.7-.2.3-.4.6-.5.9-.1.3-.1.6-.2.8H79c0-.9-.3-1.6-.7-2zM88 90.2V92c.4-.7 1-1.3 1.7-1.6.7-.3 1.4-.5 2.1-.5.9 0 1.7.1 2.3.4.6.3 1.1.6 1.4 1 .3.4.6 1 .7 1.6.1.6.2 1.4.2 2.1v7.8H93v-7.1c0-1-.2-1.8-.5-2.3s-.9-.8-1.7-.8c-.9 0-1.6.3-2.1.8-.4.6-.6 1.5-.6 2.8v6.6h-3.5V90.2H88zM102.9 85.4v3.7c0 .5-.1 1-.2 1.5-.2.5-.4.9-.7 1.2-.3.4-.7.7-1.1.9-.4.2-.9.4-1.4.5v-1.6c.6-.2 1-.5 1.3-.9.2-.4.3-.9.3-1.5h-1.6v-3.8h3.4zM107 99.7c.2.3.4.5.6.7.2.2.5.3.8.4.3.1.6.1 1 .1.2 0 .5 0 .8-.1.3-.1.5-.1.7-.3.2-.1.4-.3.5-.5.1-.2.2-.5.2-.8 0-.5-.3-.9-1-1.2-.7-.3-1.7-.5-2.9-.8-.5-.1-1-.2-1.5-.4s-.9-.4-1.3-.6c-.4-.3-.7-.6-.9-1-.2-.4-.3-.9-.3-1.4 0-.8.2-1.5.5-2s.7-.9 1.3-1.2c.5-.3 1.1-.5 1.8-.6.7-.1 1.3-.2 2-.2s1.3.1 2 .2c.6.1 1.2.3 1.7.7.5.3.9.7 1.3 1.2s.5 1.2.6 1.9h-3.3c0-.7-.3-1.1-.8-1.4-.5-.2-1-.4-1.6-.4h-.6c-.2 0-.4.1-.6.2-.2.1-.3.2-.5.4s-.2.4-.2.6c0 .3.1.6.3.8.2.2.5.4.9.5.4.1.8.2 1.3.3.5.1 1 .2 1.4.3.5.1 1 .3 1.5.4.5.2.9.4 1.3.6s.7.6.9 1c.2.4.3.9.3 1.5 0 .8-.2 1.5-.5 2.1-.3.6-.8 1-1.3 1.4-.5.3-1.2.6-1.8.7-.7.1-1.4.2-2.1.2-.7 0-1.4-.1-2.1-.2-.7-.1-1.3-.4-1.9-.7-.5-.3-1-.8-1.3-1.4-.3-.6-.5-1.3-.6-2.1h3.3c-.1.5 0 .8.1 1.1zM135.6 90c-.2-.4-.5-.7-.9-1-.3-.3-.7-.5-1.2-.6-.4-.2-.9-.2-1.4-.2-.9 0-1.6.2-2.2.5s-1.1.8-1.5 1.3c-.4.6-.6 1.2-.8 1.9-.2.7-.3 1.5-.3 2.2 0 .7.1 1.4.3 2.1.2.7.4 1.3.8 1.9.4.6.9 1 1.5 1.3s1.3.5 2.2.5c1.2 0 2.1-.4 2.7-1.1.7-.7 1.1-1.7 1.2-2.8h3.7c-.1 1.1-.4 2.1-.8 3-.4.9-.9 1.6-1.6 2.2-.7.6-1.4 1.1-2.3 1.4-.9.3-1.9.5-3 .5-1.3 0-2.5-.2-3.6-.7s-2-1.1-2.7-1.9c-.7-.8-1.3-1.8-1.7-2.9-.4-1.1-.6-2.3-.6-3.6 0-1.3.2-2.5.6-3.6.4-1.1 1-2.1 1.7-2.9.7-.8 1.6-1.5 2.7-2s2.3-.7 3.6-.7c1 0 1.9.1 2.7.4.9.3 1.6.7 2.3 1.2.7.5 1.2 1.2 1.7 2 .4.8.7 1.7.8 2.7H136c-.1-.3-.2-.7-.4-1.1zM142 94.1c0-.8.3-1.5.6-2 .4-.5.8-1 1.4-1.3.6-.3 1.2-.6 1.9-.7.7-.1 1.4-.2 2.1-.2.6 0 1.3 0 1.9.1.7.1 1.2.3 1.8.5.5.3 1 .6 1.3 1.1.3.5.5 1.1.5 1.8v6.6c0 .6 0 1.1.1 1.6s.2.9.3 1.2h-3.5c-.1-.2-.1-.4-.2-.6 0-.2-.1-.4-.1-.6-.6.6-1.2 1-2 1.2-.7.2-1.5.3-2.3.3-.6 0-1.2-.1-1.7-.2s-1-.4-1.4-.7c-.4-.3-.7-.7-.9-1.2s-.3-1-.3-1.7.1-1.3.4-1.8c.3-.5.6-.8 1-1.1.4-.3.9-.5 1.4-.6l1.5-.3c.5-.1 1-.1 1.5-.2.5 0 1-.1 1.3-.2.4-.1.7-.2.9-.4.2-.2.3-.5.3-.8 0-.4-.1-.7-.2-.9-.1-.2-.3-.4-.5-.5-.2-.1-.4-.2-.7-.2-.3 0-.6-.1-.9-.1-.7 0-1.2.1-1.6.4-.4.3-.6.8-.7 1.5H142zm8 2.5c-.1.1-.3.2-.5.3-.2.1-.5.1-.7.2-.3 0-.5.1-.8.1-.3 0-.6.1-.8.1-.3 0-.5.1-.8.2-.3.1-.5.2-.7.3-.2.1-.3.3-.5.5-.1.2-.2.5-.2.8 0 .3.1.6.2.8s.3.4.5.5c.2.1.4.2.7.3.3 0 .5.1.8.1.7 0 1.2-.1 1.6-.3.4-.2.7-.5.8-.8.2-.3.3-.6.3-1 0-.3.1-.6.1-.8v-1.3zM159.6 85.4v6.3c.4-.7 1-1.1 1.7-1.4.7-.3 1.5-.5 2.3-.5.6 0 1.3.1 1.9.4.6.3 1.2.7 1.7 1.2s.9 1.2 1.2 2.1c.3.8.5 1.8.5 3s-.2 2.2-.5 3c-.3.8-.7 1.5-1.2 2.1-.5.5-1.1.9-1.7 1.2-.6.3-1.2.4-1.9.4-.9 0-1.8-.1-2.5-.4-.7-.3-1.3-.8-1.7-1.5v1.6h-3.3V85.4h3.5zm5.6 9.6c-.1-.5-.3-.9-.5-1.3s-.5-.7-.9-.9c-.4-.2-.8-.3-1.3-.3s-.9.1-1.3.3c-.4.2-.7.5-.9.9-.2.4-.4.8-.5 1.3-.1.5-.2 1-.2 1.5s.1 1 .2 1.5.3.9.5 1.3.6.7.9.9c.4.2.8.3 1.3.3s1-.1 1.3-.3c.4-.2.7-.5.9-.9.2-.4.4-.8.5-1.3.1-.5.2-1 .2-1.5s-.1-1-.2-1.5zM171.1 88.2v-2.9h3.5v2.9h-3.5zm3.5 2v12.6h-3.5V90.2h3.5zM180.6 90.2V92h.1c.4-.7 1-1.3 1.7-1.6.7-.3 1.4-.5 2.1-.5.9 0 1.7.1 2.3.4.6.3 1.1.6 1.4 1 .3.4.6 1 .7 1.6.1.6.2 1.4.2 2.1v7.8h-3.5v-7.1c0-1-.2-1.8-.5-2.3-.3-.5-.9-.8-1.7-.8-.9 0-1.6.3-2.1.8-.4.6-.6 1.5-.6 2.8v6.6h-3.5V90.2h3.4zM195.5 99.8c.5.5 1.3.8 2.2.8.7 0 1.3-.2 1.8-.5s.8-.7.9-1.1h3.1c-.5 1.5-1.2 2.6-2.2 3.2-1 .7-2.2 1-3.7 1-1 0-1.9-.2-2.7-.5-.8-.3-1.5-.8-2-1.4-.6-.6-1-1.3-1.3-2.1-.3-.8-.5-1.7-.5-2.7 0-.9.2-1.8.5-2.6s.7-1.5 1.3-2.1c.6-.6 1.2-1.1 2-1.4.8-.3 1.7-.5 2.6-.5 1.1 0 2 .2 2.8.6.8.4 1.5 1 2 1.7s.9 1.5 1.1 2.4c.2.9.3 1.8.2 2.8h-9.1c.2 1.1.5 1.9 1 2.4zm3.9-6.6c-.4-.5-1-.7-1.9-.7-.6 0-1 .1-1.4.3-.4.2-.7.4-.9.7-.2.3-.4.6-.5.9-.1.3-.1.6-.2.8h5.6c0-.9-.3-1.6-.7-2zM212.7 90.2v2.3h-2.5v6.2c0 .6.1 1 .3 1.2.2.2.6.3 1.2.3h.6c.2 0 .3 0 .5-.1v2.7c-.3 0-.6.1-1 .1h-1c-.5 0-1 0-1.5-.1s-.9-.2-1.3-.4-.7-.5-.9-.9c-.2-.4-.3-.9-.3-1.5v-7.4h-2.1v-2.3h2.1v-3.8h3.5v3.8h2.4z" fill="currentColor"/></svg>