<svg viewBox="0 0 323 232" fill="none" xmlns="http://www.w3.org/2000/svg"><path d="M323 139.852V31.549C323 14.124 309.625 0 293.125 0H29.875C13.375 0 0 14.124 0 31.55v108.302c0 17.425 13.375 31.55 29.875 31.55h33.9v53.286c0 3.141 2.009 5.852 5.106 6.892a7.85 7.85 0 002.567.42c2.274 0 4.424-.96 5.902-2.731l48.307-57.537c.086-.11.161-.22.237-.33h167.221c16.51 0 29.885-14.125 29.885-31.55zm-31.211 27.699H123.356l-.114.44c-.142.46-.36.9-.701 1.31l-48.289 57.527c-1.184 1.401-2.851 1.481-4.016 1.101-1.165-.38-2.406-1.441-2.406-3.251v-57.117H31.012c-14.834 0-26.863-12.704-26.863-28.369V32.07C4.149 16.405 16.179 3.7 31.012 3.7h260.777c14.834 0 26.863 12.704 26.863 28.369v107.112c0 15.675-12.029 28.369-26.863 28.369z" fill="currentColor"/></svg>