<svg width="426" height="266" fill="none" xmlns="http://www.w3.org/2000/svg"><path d="M30.77 61.885c7.302 0 12.63-1.895 15.986-5.78l1.085 4.454h8.486V26.82H30.573v10.235h13.716c0 1.706-.099 3.128-.296 4.455-.494 3.127-1.777 5.591-3.947 7.392-2.171 1.8-5.132 2.748-8.783 2.748-4.341 0-7.992-1.895-10.854-5.686-2.862-3.791-4.342-8.814-4.342-15.069 0-6.255 1.382-11.277 4.145-14.973 2.762-3.697 6.61-5.592 11.446-5.592 1.678 0 3.158.19 4.44.663 1.283.474 2.566 1.138 3.553 2.18 1.085.948 1.875 1.8 2.368 2.464.592.664 1.184 1.611 2.072 2.748l10.953-3.222c-.592-1.421-1.48-2.938-2.565-4.454-1.086-1.516-2.566-3.127-4.44-4.833-1.876-1.706-4.145-3.128-7.007-4.265C38.171.57 35.013 0 31.658 0c-8.684 0-15.59 2.938-20.722 8.719-5.131 5.78-7.697 13.173-7.697 22.176 0 9.383 2.665 16.964 7.993 22.556 5.23 5.591 11.841 8.434 19.538 8.434zM84.056 61.886c5.032 0 9.275-1.137 12.729-3.411 3.454-2.275 5.92-5.023 7.401-8.245l-10.065-3.412c-.888 1.706-2.171 3.032-3.849 4.17-1.677 1.042-3.65 1.61-5.92 1.61-3.06 0-5.526-.947-7.302-2.842-1.777-1.896-2.665-4.265-2.665-7.013h30.097c.197-1.422.197-2.843.197-4.17 0-6.824-2.072-12.415-6.118-16.585-4.046-4.265-9.078-6.35-14.999-6.35-6.118 0-11.15 2.085-15.295 6.16-4.144 4.076-6.216 9.667-6.216 16.775 0 7.108 2.072 12.699 6.118 16.964 4.341 4.264 9.571 6.35 15.887 6.35zM76.95 27.77c1.677-1.99 3.848-3.033 6.71-3.033 2.861 0 5.032 1.043 6.513 3.033 1.578 1.99 2.27 4.36 2.27 7.203h-17.96c0-2.749.888-5.118 2.467-7.203zM149.679 60.56V32.602c0-11.277-5.033-16.964-14.999-16.964-5.23 0-9.078 1.896-11.545 5.592h-.099v-4.265h-11.545V60.56h12.137V35.824c0-2.938.79-5.401 2.369-7.392 1.578-1.895 3.552-2.843 6.118-2.843 1.973 0 3.355.664 4.341 1.896.888 1.232 1.382 3.506 1.382 6.539V60.56h11.841zM178.006 61.886c5.032 0 9.275-1.137 12.729-3.411 3.454-2.275 5.921-5.023 7.401-8.245l-10.065-3.412c-.888 1.706-2.171 3.032-3.849 4.17-1.677 1.042-3.651 1.61-5.92 1.61-3.059 0-5.526-.947-7.302-2.842-1.776-1.896-2.664-4.265-2.664-7.013h30.096c.197-1.422.197-2.843.197-4.17 0-6.824-2.072-12.415-6.118-16.585-4.045-4.265-9.078-6.35-14.999-6.35-6.118 0-11.15 2.085-15.294 6.16-4.145 4.076-6.217 9.667-6.217 16.775 0 7.108 2.072 12.699 6.118 16.964 4.243 4.264 9.473 6.35 15.887 6.35zm-7.105-34.117c1.678-1.99 3.848-3.033 6.71-3.033s5.033 1.043 6.513 3.033c1.579 1.99 2.269 4.36 2.269 7.203h-18.057c.098-2.749.888-5.118 2.565-7.203zM217.569 39.615c0-4.075.789-7.297 2.368-9.667 1.579-2.369 3.947-3.6 7.203-3.6 1.974 0 3.849.283 5.625.757V16.491c-1.085-.569-2.96-.758-5.625-.758-2.17 0-4.243.474-6.019 1.516-1.776.948-3.158 2.18-4.144 3.507v-3.697H205.53v43.595h12.039V39.615zM253.094 33.645c-6.118.853-10.756 2.558-13.913 5.212-3.158 2.654-4.737 5.876-4.737 9.856 0 3.886 1.48 7.108 4.342 9.477 2.862 2.464 6.809 3.696 11.743 3.696 2.664 0 5.131-.568 7.203-1.706 2.072-1.137 3.651-2.463 4.539-4.17v4.455h11.644V33.929c0-5.876-1.48-10.33-4.342-13.552-2.96-3.223-7.795-4.739-14.801-4.739-7.796 0-14.21 2.843-19.144 8.435l7.105 5.876c3.454-3.602 7.5-5.402 12.236-5.402 2.072 0 3.75.379 5.033 1.232 1.282.853 1.874 2.18 1.874 3.98v2.275c-.789.379-3.749.852-8.782 1.61zm8.782 9.098c0 2.938-.888 5.212-2.763 6.918-1.874 1.706-4.144 2.559-6.808 2.559-1.678 0-3.059-.474-4.046-1.327-1.085-.853-1.579-1.99-1.579-3.317 0-3.507 2.763-5.686 8.289-6.444 1.678-.285 4.046-.664 6.907-1.422v3.033zM285.662 46.627c0 9.287 4.934 13.931 14.802 13.931h6.611v-9.856h-5.131c-2.961 0-4.342-1.611-4.342-4.738V26.82h9.374v-9.856h-9.374V4.644h-11.94v12.414h-6.513v9.762h6.513v19.807zM326.505.474h-12.137V12.32h12.137V.474zM326.416 16.964h-11.939V60.56h11.939V16.964zM336.573 50.99a19.977 19.977 0 003.849 5.496c1.579 1.611 3.651 2.843 6.216 3.886 2.566 1.042 5.428 1.516 8.783 1.516 3.355 0 6.216-.569 8.88-1.611 2.566-1.043 4.638-2.37 6.118-3.98a21.444 21.444 0 003.75-5.687c.987-2.18 1.678-4.17 1.974-6.065.394-1.896.493-3.791.493-5.781 0-3.033-.395-5.781-1.184-8.53-.79-2.653-1.974-5.117-3.651-7.392-1.678-2.18-3.849-3.98-6.71-5.307-2.862-1.327-6.019-1.99-9.67-1.99s-6.908.663-9.769 1.99c-2.862 1.327-5.033 3.033-6.71 5.307-1.678 2.18-2.862 4.644-3.651 7.392-.79 2.654-1.185 5.497-1.185 8.53 0 2.085.198 4.075.593 6.065.197 1.99.888 4.075 1.874 6.16zm12.532-22.462c1.875-1.99 3.947-3.032 6.217-3.032.987 0 1.875.19 2.862.568.888.38 1.874 1.043 2.861 1.99.987.948 1.776 2.275 2.368 4.17.592 1.801.888 4.076.888 6.54 0 2.464-.296 4.738-.888 6.539-.592 1.895-1.381 3.222-2.368 4.17-.987.853-1.875 1.516-2.861 1.99a7.333 7.333 0 01-2.862.569c-2.27 0-4.342-1.043-6.217-3.033s-2.763-5.402-2.763-10.235c0-4.834.888-8.245 2.763-10.236zM395.484 35.824c0-2.938.789-5.401 2.368-7.392 1.579-1.99 3.552-2.938 6.118-2.938 1.974 0 3.355.664 4.342 1.896.888 1.232 1.381 3.506 1.381 6.539v26.536h11.94V32.602c0-11.277-5.032-16.964-14.999-16.964-5.23 0-9.078 1.896-11.545 5.592h-.099v-4.265h-11.545V60.56h12.039V35.824z" fill="currentColor"/><path d="M92.993 166.781c0 16.301 1.085 31.369 3.157 45.206h-.789l-16.775-30.611-42.332-76.764H3v154.95h32.662v-61.317c0-14.784-1.184-29.853-3.553-45.395h.987l17.367 32.696 42.135 73.921h33.057v-154.95H92.993v62.264zM224.432 149.154c-3.848 7.866-7.598 15.542-11.446 23.124h-.987c-5.526-11.846-9.177-19.523-11.052-23.124l-22.892-44.637h-37.201l55.357 92.496v62.454h32.662v-62.454l55.555-92.496h-37.399l-22.597 44.637zM392.579 210.848c-2.665 6.918-7.105 12.889-13.322 17.817-6.216 4.928-13.321 7.392-21.215 7.392-11.841 0-21.314-4.928-28.32-14.69-7.105-9.761-10.657-22.934-10.657-39.424 0-16.301 3.552-29.284 10.558-39.046 7.006-9.761 16.479-14.689 28.419-14.689 7.894 0 14.209 1.99 19.143 5.875 4.835 3.886 9.078 9.004 12.828 15.353l28.123-8.719c-4.835-11.372-12.433-20.754-22.893-28.241-10.361-7.487-22.696-11.278-37.004-11.278-21.412 0-38.878 7.297-52.496 21.987-13.617 14.595-20.426 34.212-20.426 58.853 0 25.209 6.908 45.016 20.722 59.421 13.815 14.405 31.182 21.608 52.2 21.608 7.204 0 14.012-.948 20.426-2.844 6.414-1.895 11.841-4.359 16.381-7.297 4.539-2.938 8.683-6.444 12.433-10.425 3.75-3.98 6.71-7.771 8.979-11.467a80.012 80.012 0 005.724-11.183l-29.603-9.003z" stroke="currentColor" stroke-width="5"/></svg>