<svg viewBox="0 0 656 407" fill="none" xmlns="http://www.w3.org/2000/svg"><path d="M656 245.344V55.348C656 24.778 632.61 0 603.754 0H52.246C23.39 0 0 24.778 0 55.348v189.996c0 30.569 23.39 55.348 52.246 55.348h59.287v93.48c0 5.51 3.512 10.266 8.928 12.091a13.69 13.69 0 004.49.737c3.975 0 7.735-1.685 10.32-4.791l84.482-100.938c.149-.193.281-.386.414-.579h383.57c28.873 0 52.263-24.779 52.263-55.348zm-54.582 48.592H215.727l-.199.772a6.56 6.56 0 01-1.225 2.299l-84.449 100.92c-2.071 2.457-4.986 2.598-7.024 1.931-2.037-.667-4.207-2.527-4.207-5.703V293.953H54.234c-25.94 0-46.978-22.286-46.978-49.767V56.26c0-27.48 21.037-49.767 46.978-49.767h547.184c25.941 0 46.979 22.286 46.979 49.767v187.908c0 27.499-21.038 49.768-46.979 49.768z" fill="currentColor"/></svg>