<svg xmlns="http://www.w3.org/2000/svg" viewBox="0 0 981.7 981.7"><path d="M503.7 893.5c95.1 0 164.5-24.7 208.2-75.2l14.1 58h110.5V437.2H501.1v133.2h178.7c0 22.2-1.3 40.7-3.9 58-6.4 40.7-23.1 72.8-51.4 96.2-28.3 23.4-66.8 35.8-114.4 35.8-56.6 0-104.1-24.7-141.4-74-37.3-49.3-56.6-114.7-56.6-196.1 0-81.4 18-146.8 54-194.9 36-48.1 86.1-72.8 149.1-72.8 21.8 0 41.1 2.5 57.8 8.6 16.7 6.2 33.4 14.8 46.3 28.4 14.1 12.3 24.4 23.4 30.9 32.1 7.7 8.6 15.4 21 27 35.8l142.7-41.9c-7.7-18.5-19.3-38.2-33.4-58-14.1-19.7-33.4-40.7-57.8-62.9-24.4-22.2-54-40.7-91.3-55.5-37.3-13.6-78.4-21-122.1-21-113.1 0-203.1 38.2-269.9 113.5-66.8 75.2-100.3 171.4-100.3 288.6 0 122.1 34.7 220.8 104.1 293.5 68.1 72.7 154.3 109.7 254.5 109.7z" fill="#fff"/><path fill="none" stroke="#fff" stroke-width="17.534" stroke-miterlimit="70.137" d="M8.8 8.8H973V973H8.8z"/></svg>