<?xml version="1.0" encoding="UTF-8"?><!DOCTYPE svg PUBLIC "-//W3C//DTD SVG 1.1//EN" "http://www.w3.org/Graphics/SVG/1.1/DTD/svg11.dtd"><svg xmlns="http://www.w3.org/2000/svg" xmlns:xlink="http://www.w3.org/1999/xlink"><defs/><symbol id="pttrn-logo-gen" viewBox="0 0 1280 1024"><path d="M8.8 70.8h1262.5v890.9H8.8V70.8z" fill="none" stroke="currentColor" stroke-width="17.534" stroke-miterlimit="70.137"/><path d="M175.4 307.4c18.7 0 32.3-4.8 40.8-14.8L219 304h21.7v-86.1h-65.8V244h35c0 4.4-.3 8-.8 11.4-1.3 8-4.5 14.3-10.1 18.9-5.5 4.6-13.1 7-22.4 7-11.1 0-20.4-4.8-27.7-14.5-7.3-9.7-11.1-22.5-11.1-38.5s3.5-28.8 10.6-38.2c7.1-9.4 16.9-14.3 29.2-14.3 4.3 0 8.1.5 11.3 1.7 3.3 1.2 6.6 2.9 9.1 5.6 2.8 2.4 4.8 4.6 6.1 6.3 1.5 1.7 3 4.1 5.3 7l28-8.2c-1.5-3.6-3.8-7.5-6.6-11.4-2.8-3.9-6.6-8-11.3-12.3-4.8-4.4-10.6-8-17.9-10.9-7.3-2.7-15.4-4.1-24-4.1-22.2 0-39.8 7.5-52.9 22.3-13.1 14.8-19.7 33.6-19.7 56.6 0 23.9 6.8 43.3 20.4 57.6 13.5 14.1 30.4 21.4 50 21.4zM311.6 307.4c12.9 0 23.7-2.9 32.5-8.7 8.8-5.8 15.1-12.8 18.9-21l-25.7-8.7c-2.3 4.4-5.5 7.7-9.8 10.6-4.3 2.7-9.3 4.1-15.1 4.1-7.8 0-14.1-2.4-18.7-7.3-4.5-4.8-6.8-10.9-6.8-17.9h76.9c.5-3.6.5-7.3.5-10.6 0-17.4-5.3-31.7-15.6-42.3-10.3-10.9-23.2-16.2-38.3-16.2-15.6 0-28.5 5.3-39.1 15.7-10.6 10.4-15.9 24.7-15.9 42.8s5.3 32.4 15.6 43.3c11.1 10.9 24.5 16.2 40.6 16.2zm-18.2-87.1c4.3-5.1 9.8-7.7 17.1-7.7 7.3 0 12.9 2.7 16.6 7.7 4 5.1 5.8 11.1 5.8 18.4H287c.1-7 2.4-13.1 6.4-18.4zM479.3 304v-71.4c0-28.8-12.9-43.3-38.3-43.3-13.4 0-23.2 4.8-29.5 14.3h-.3v-10.9h-29.5V304h31v-63.1c0-7.5 2-13.8 6.1-18.9 4-4.8 9.1-7.3 15.6-7.3 5 0 8.6 1.7 11.1 4.8 2.3 3.1 3.5 9 3.5 16.7V304h30.3zM551.6 307.4c12.9 0 23.7-2.9 32.5-8.7 8.8-5.8 15.1-12.8 18.9-21l-25.7-8.7c-2.3 4.4-5.5 7.7-9.8 10.6-4.3 2.7-9.3 4.1-15.1 4.1-7.8 0-14.1-2.4-18.7-7.3-4.5-4.8-6.8-10.9-6.8-17.9h76.9c.5-3.6.5-7.3.5-10.6 0-17.4-5.3-31.7-15.6-42.3-10.3-10.9-23.2-16.2-38.3-16.2-15.6 0-28.5 5.3-39.1 15.7-10.6 10.4-15.9 24.7-15.9 42.8s5.3 32.4 15.6 43.3c10.9 10.9 24.2 16.2 40.6 16.2zm-18.1-87.1c4.3-5.1 9.8-7.7 17.1-7.7s12.9 2.7 16.6 7.7c4 5.1 5.8 11.1 5.8 18.4h-46.1c.3-7 2.3-13.1 6.6-18.4zM652.7 250.5c0-10.4 2-18.6 6.1-24.7 4-6 10.1-9.2 18.4-9.2 5 0 9.8.7 14.4 1.9v-27.1c-2.8-1.5-7.6-1.9-14.4-1.9-5.5 0-10.8 1.2-15.4 3.9-4.5 2.4-8.1 5.6-10.6 9V193H622v111.3h30.8v-53.8zM743.4 235.3c-15.6 2.2-27.5 6.5-35.5 13.3s-12.1 15-12.1 25.2c0 9.9 3.8 18.1 11.1 24.2 7.3 6.3 17.4 9.4 30 9.4 6.8 0 13.1-1.5 18.4-4.4 5.3-2.9 9.3-6.3 11.6-10.6v11.4h29.7V236c0-15-3.8-26.4-11.1-34.6-7.6-8.2-19.9-12.1-37.8-12.1-19.9 0-36.3 7.3-48.9 21.5l18.2 15c8.8-9.2 19.2-13.8 31.3-13.8 5.3 0 9.6 1 12.9 3.1 3.3 2.2 4.8 5.6 4.8 10.2v5.8c-2.1 1-9.7 2.3-22.6 4.2zm22.5 23.2c0 7.5-2.3 13.3-7.1 17.7-4.8 4.4-10.6 6.5-17.4 6.5-4.3 0-7.8-1.2-10.3-3.4-2.8-2.2-4-5.1-4-8.5 0-8.9 7.1-14.5 21.2-16.4 4.3-.7 10.3-1.7 17.6-3.6v7.7zM826.7 268.4c0 23.7 12.6 35.6 37.8 35.6h16.9v-25.2h-13.1c-7.6 0-11.1-4.1-11.1-12.1v-48.9h23.9v-25.2h-23.9v-31.4h-30.5V193h-16.6v24.9h16.6v50.5zM931 150.6h-31v30.2h31v-30.2zM930.7 192.7h-30.5V304h30.5V192.7zM956.7 279.6c2.5 5.3 5.8 9.9 9.8 14 4 4.1 9.3 7.3 15.9 9.9 6.6 2.7 13.9 3.9 22.4 3.9 8.6 0 15.9-1.5 22.7-4.1 6.6-2.7 11.8-6 15.6-10.2 3.8-4.1 7.1-9 9.6-14.5 2.5-5.6 4.3-10.6 5-15.5 1-4.8 1.3-9.7 1.3-14.8 0-7.7-1-14.8-3-21.8-2-6.8-5-13.1-9.3-18.9-4.3-5.6-9.8-10.2-17.1-13.5-7.3-3.4-15.4-5.1-24.7-5.1s-17.6 1.7-25 5.1c-7.3 3.4-12.9 7.7-17.1 13.5-4.3 5.6-7.3 11.9-9.3 18.9-2 6.8-3 14-3 21.8 0 5.3.5 10.4 1.5 15.5.4 5.1 2.2 10.4 4.7 15.8zm32-57.4c4.8-5.1 10.1-7.7 15.9-7.7 2.5 0 4.8.5 7.3 1.5 2.3 1 4.8 2.7 7.3 5.1 2.5 2.4 4.5 5.8 6.1 10.6 1.5 4.6 2.3 10.4 2.3 16.7 0 6.3-.8 12.1-2.3 16.7-1.5 4.8-3.5 8.2-6.1 10.6-2.5 2.2-4.8 3.9-7.3 5.1-2.3 1-4.8 1.5-7.3 1.5-5.8 0-11.1-2.7-15.9-7.7-4.8-5.1-7.1-13.8-7.1-26.1s2.3-21.2 7.1-26.3zM1107.3 240.9c0-7.5 2-13.8 6.1-18.9 4-5.1 9.1-7.5 15.6-7.5 5 0 8.6 1.7 11.1 4.8 2.3 3.1 3.5 9 3.5 16.7v67.7h30.5v-71.1c0-28.8-12.9-43.3-38.3-43.3-13.4 0-23.2 4.8-29.5 14.3h-.3v-10.9h-29.5V304h30.8v-63.1z" fill="currentColor"/><path d="M334.4 575.1c0 41.6 2.8 80.1 8.1 115.4h-2l-42.9-78.1-108.2-196h-85v395.5h83.4V655.4c0-37.7-3-76.2-9.1-115.9h2.5l44.4 83.5 107.6 188.7h84.5V416.2h-83.4v158.9zM670.2 530.1c-9.8 20.1-19.4 39.7-29.2 59h-2.5c-14.1-30.2-23.4-49.8-28.2-59l-58.5-113.9h-95l141.4 236.1v159.4h83.4V652.3l141.9-236.1H728l-57.8 113.9zM1099.8 687.6c-6.8 17.7-18.2 32.9-34 45.5-15.9 12.6-34 18.9-54.2 18.9-30.3 0-54.5-12.6-72.4-37.5C921 689.6 912 656 912 613.9c0-41.6 9.1-74.7 27-99.7 17.9-24.9 42.1-37.5 72.6-37.5 20.2 0 36.3 5.1 48.9 15 12.4 9.9 23.2 23 32.8 39.2l71.9-22.3c-12.4-29-31.8-53-58.5-72.1-26.5-19.1-58-28.8-94.5-28.8-54.7 0-99.3 18.6-134.1 56.1-34.8 37.3-52.2 87.3-52.2 150.2 0 64.3 17.6 114.9 52.9 151.7 35.3 36.8 79.7 55.2 133.4 55.2 18.4 0 35.8-2.4 52.2-7.3 16.4-4.8 30.3-11.1 41.8-18.6 11.6-7.5 22.2-16.4 31.8-26.6 9.6-10.2 17.1-19.8 22.9-29.3 5.8-9.4 10.6-18.9 14.6-28.5l-75.7-23z" fill="none" stroke="currentColor" stroke-width="17.534" stroke-miterlimit="70.137"/></symbol><symbol id="pttrn-logo-gen-favicon" viewBox="0 0 981.7 981.7"><path d="M503.7 893.5c95.1 0 164.5-24.7 208.2-75.2l14.1 58h110.5V437.2H501.1v133.2h178.7c0 22.2-1.3 40.7-3.9 58-6.4 40.7-23.1 72.8-51.4 96.2-28.3 23.4-66.8 35.8-114.4 35.8-56.6 0-104.1-24.7-141.4-74-37.3-49.3-56.6-114.7-56.6-196.1 0-81.4 18-146.8 54-194.9 36-48.1 86.1-72.8 149.1-72.8 21.8 0 41.1 2.5 57.8 8.6 16.7 6.2 33.4 14.8 46.3 28.4 14.1 12.3 24.4 23.4 30.9 32.1 7.7 8.6 15.4 21 27 35.8l142.7-41.9c-7.7-18.5-19.3-38.2-33.4-58-14.1-19.7-33.4-40.7-57.8-62.9-24.4-22.2-54-40.7-91.3-55.5-37.3-13.6-78.4-21-122.1-21-113.1 0-203.1 38.2-269.9 113.5-66.8 75.2-100.3 171.4-100.3 288.6 0 122.1 34.7 220.8 104.1 293.5 68.1 72.7 154.3 109.7 254.5 109.7z" fill="#141414"/><path fill="none" stroke="#141414" stroke-width="17.534" stroke-miterlimit="70.137" d="M8.8 8.8H973V973H8.8z"/></symbol><symbol id="pttrn-icon-gen-share" viewBox="0 0 16 16"><path d="M1.5 1c-.372 0-.773.148-1.063.438-.29.29-.438.69-.438 1.063v11c0 .372.148.773.438 1.063.29.29.69.438 1.063.438h11c.372 0 .773-.148 1.063-.438.29-.29.438-.69.438-1.063v-2.5h-2v2h-10v-10h4v-2h-4.5zM12 1v2c-4.262 0-7.753 3.383-7.969 7.594C4.368 8.584 7.125 7 9 7h3v2l4-4-4-4z" fill="currentColor"/></symbol><symbol id="pttrn-icon-gen-search" viewBox="0 0 32 32"><path d="M12 0C5.39 0 0 5.39 0 12s5.39 12 12 12c2.741 0 5.257-.944 7.281-2.5l1.594 1.625-.563.563c-.2.2-.2.519 0 .719l7.281 7.281c.2.2.519.2.719 0l3.281-3.281c.2-.2.2-.519 0-.719l-7.281-7.281c-.1-.2-.519-.2-.719 0l-.563.563-1.594-1.594a11.923 11.923 0 002.563-7.375c0-6.61-5.39-12-12-12zm0 3c4.988 0 9 4.012 9 9s-4.012 9-9 9-9-4.012-9-9 4.012-9 9-9z" fill="currentColor"/></symbol><symbol id="pttrn-icon-gen-map" viewBox="0 0 32 32"><path d="M16 0C10.5 0 6 4.5 6 10c0 7.5 10 22 10 22s10-14.5 10-22c0-5.5-4.5-10-10-10zm0 5c2.8 0 5 2.2 5 5s-2.2 5-5 5-5-2.2-5-5 2.2-5 5-5z" fill="currentColor"/></symbol><symbol id="pttrn-icon-gen-heart" viewBox="0 0 128 128"><path d="M34 8c-9.4 0-17.9 3.8-24 10C3.8 24.1 0 32.6 0 42s3.8 17.9 10 24l54 54 54-54c6.2-6.2 10-14.7 10-24 0-9.4-3.8-17.9-10-24-6.2-6.2-14.7-10-24-10-9.4 0-17.9 3.8-24 10-2.4 2.4-4.4 5.1-6 8-1.6-3-3.6-5.7-6-8-6.1-6.2-14.6-10-24-10z" fill="currentColor"/></symbol><symbol id="pttrn-icon-gen-external-link" viewBox="0 0 16 16"><path d="M11 0l1.781 1.781-.5.5-4 4L7.593 7l1.406 1.406.719-.688 4-4 .5-.5 1.781 1.781v-5h-5zM0 2v14h14V8h-2v6H2V4h6V2H0z" fill="currentColor"/></symbol><symbol id="pttrn-icon-gen-chevron-up" viewBox="0 0 128 128"><path d="M64 16.688l-5.656 5.656L0 80.688v22.625l64-64 64 64V80.688L69.656 22.344 64 16.688z" fill="currentColor"/></symbol><symbol id="pttrn-icon-gen-chevron-right" viewBox="0 0 128 128"><path d="M.688 0l64 64-64 64h22.625l58.344-58.344L87.313 64l-5.656-5.656L23.313 0H.688z" fill="currentColor"/></symbol><symbol id="pttrn-icon-gen-chevron-left" viewBox="0 0 128 128"><path d="M80.688 0L22.344 58.344 16.688 64l5.656 5.656L80.688 128h22.625l-64-64 64-64H80.688z" fill="currentColor"/></symbol><symbol id="pttrn-icon-gen-chevron-down" viewBox="0 0 128 128"><path d="M0 .688v22.625l58.344 58.344L64 87.313l5.656-5.656L128 23.313V.688l-64 64-64-64z" fill="currentColor"/></symbol><symbol id="pttrn-icon-gen-check" viewBox="0 0 128 128"><path d="M114.156 15.188l-5.469 5.844L43.781 89.97 19.593 66.282l-5.719-5.594L2.686 72.126l5.719 5.594 30 29.406 5.813 5.688 5.594-5.938 70.5-74.906 5.5-5.813-11.656-10.969z" fill="currentColor"/></symbol><symbol id="pttrn-icon-chat" viewBox="0 0 656 407"><path d="M656 245.344V55.348C656 24.778 632.61 0 603.754 0H52.246C23.39 0 0 24.778 0 55.348v189.996c0 30.569 23.39 55.348 52.246 55.348h59.287v93.48c0 5.51 3.512 10.266 8.928 12.091a13.69 13.69 0 004.49.737c3.975 0 7.735-1.685 10.32-4.791l84.482-100.938c.149-.193.281-.386.414-.579h383.57c28.873 0 52.263-24.779 52.263-55.348zm-54.582 48.592H215.727l-.199.772a6.56 6.56 0 01-1.225 2.299l-84.449 100.92c-2.071 2.457-4.986 2.598-7.024 1.931-2.037-.667-4.207-2.527-4.207-5.703V293.953H54.234c-25.94 0-46.978-22.286-46.978-49.767V56.26c0-27.48 21.037-49.767 46.978-49.767h547.184c25.941 0 46.979 22.286 46.979 49.767v187.908c0 27.499-21.038 49.768-46.979 49.768z" fill="currentColor"/></symbol></svg>