<?xml version="1.0" encoding="UTF-8"?><!DOCTYPE svg PUBLIC "-//W3C//DTD SVG 1.1//EN" "http://www.w3.org/Graphics/SVG/1.1/DTD/svg11.dtd"><svg xmlns="http://www.w3.org/2000/svg" xmlns:xlink="http://www.w3.org/1999/xlink"><defs/><symbol id="pttrn-logo-nyc-childrens-cabinet" viewBox="0 0 157 69">&gt;<g fill="currentColor" fill-rule="evenodd"><path d="M135.037.036h-29.952l-8.983 8.985v29.95l8.983 8.984h29.952l8.985-8.984v-8.984l-2.995-2.999h-14.975v2.999h-11.98v-11.98h11.98v2.957h14.975l2.995-2.958V9.021L135.037.036m-89.851 0h-11.98L30.21 3.031v11.98L15.235.036H3.255L.26 3.031v41.93l2.995 2.994h11.98l2.996-2.994V32.982l14.974 14.973h11.98l2.996-2.994V3.03L45.186.036"/><path d="M66.15 47.957h11.982l2.993-2.996v-8.985l14.977-14.975V3.03L93.107.036H81.125l-2.993 2.995v5.99l-5.99 5.99-5.992-5.99V3.03L63.155.036h-11.98l-2.994 2.995V21l14.974 14.975v8.985l2.995 2.996M142.458 1.25c-.097-.056-.254-.082-.468-.082h-.328v.792h.347c.164 0 .285-.016.367-.049.15-.06.227-.174.227-.342 0-.159-.049-.265-.145-.32zm-.417-.346c.272 0 .47.027.597.08.226.094.34.278.34.553 0 .196-.072.34-.215.432a.846.846 0 01-.316.106c.17.027.297.099.377.214a.614.614 0 01.118.338v.16c0 .051.001.105.005.163a.342.342 0 00.02.113l.012.027h-.36l-.005-.021-.006-.024-.009-.07V2.8c0-.252-.069-.419-.205-.5-.082-.047-.225-.07-.43-.07h-.302v.86h-.387V.903h.766zm-1.172-.11a1.66 1.66 0 00-.498 1.212c0 .477.165.884.494 1.22.334.337.738.505 1.213.505.478 0 .882-.168 1.213-.505.333-.336.5-.743.5-1.22 0-.474-.167-.878-.5-1.212a1.64 1.64 0 00-1.213-.506c-.47 0-.874.168-1.21.506zm2.621 2.622a1.92 1.92 0 01-1.412.586c-.55 0-1.02-.195-1.408-.586a1.94 1.94 0 01-.577-1.413c0-.548.195-1.017.583-1.406.388-.387.855-.58 1.402-.58.554 0 1.023.193 1.412.58.39.388.583.857.583 1.406 0 .552-.193 1.023-.583 1.413zM2.611 56.403c1.048-1.06 2.382-1.59 4-1.59 2.167 0 3.75.71 4.752 2.131.553.798.85 1.599.89 2.402h-2.69c-.174-.617-.398-1.083-.672-1.397-.49-.56-1.214-.839-2.175-.839-.978 0-1.75.395-2.314 1.184-.565.789-.847 1.905-.847 3.349 0 1.444.298 2.526.895 3.245.597.719 1.355 1.078 2.275 1.078.943 0 1.662-.308 2.157-.925.274-.332.501-.83.682-1.494h2.663c-.233 1.403-.828 2.544-1.786 3.424-.958.879-2.185 1.318-3.681 1.318-1.852 0-3.307-.593-4.367-1.781-1.06-1.194-1.59-2.83-1.59-4.909 0-2.247.603-3.98 1.808-5.196zm18.32 2.07a2.8 2.8 0 011.183.934c.262.355.422.72.48 1.096.059.376.088.989.088 1.839v5.59H20.14V62.14c0-.513-.087-.926-.262-1.24-.227-.443-.658-.664-1.292-.664-.658 0-1.158.22-1.498.66-.34.439-.511 1.066-.511 1.881v5.153h-2.48V55.1h2.48v4.55c.36-.552.779-.938 1.253-1.156a3.542 3.542 0 011.498-.328c.588 0 1.122.102 1.603.306zm6.633-1.197H25.04V54.98h2.524v2.297zm-2.524 1.136h2.524v9.52H25.04v-9.52zm7.476 9.52h-2.49V55.057h2.49V67.93zm7.476-9.368c.449.254.812.604 1.092 1.053v-4.542h2.524v12.856h-2.42v-1.318c-.354.564-.76.975-1.213 1.231-.454.256-1.02.384-1.695.384-1.112 0-2.048-.45-2.808-1.349-.76-.9-1.14-2.054-1.14-3.463 0-1.624.375-2.903 1.123-3.834.748-.932 1.748-1.398 3-1.398.576 0 1.089.127 1.537.38zm.612 6.782c.366-.524.55-1.202.55-2.035 0-1.164-.294-1.997-.882-2.498a1.898 1.898 0 00-1.258-.454c-.728 0-1.262.275-1.603.826-.34.55-.51 1.232-.51 2.048 0 .879.173 1.582.52 2.109.346.527.871.79 1.576.79.704 0 1.24-.262 1.607-.786zm10.554-7.157c.032.003.104.007.214.013v2.55a6.752 6.752 0 00-.716-.043c-1.001 0-1.674.326-2.017.978-.192.367-.289.931-.289 1.694v4.55h-2.506v-9.52h2.375v1.66c.385-.635.72-1.068 1.005-1.301.466-.39 1.071-.586 1.817-.586.046 0 .085.002.117.005zm4.088 2.563c-.317.361-.517.85-.598 1.467h3.869c-.041-.657-.24-1.157-.599-1.497-.358-.341-.802-.511-1.332-.511-.576 0-1.023.18-1.34.541zm3.48-2.148c.635.297 1.159.765 1.572 1.406.373.565.615 1.22.725 1.965.064.437.09 1.065.079 1.886h-6.516c.035.955.335 1.625.9 2.01.344.238.757.357 1.24.357.513 0 .929-.145 1.25-.436a2.1 2.1 0 00.462-.655h2.542c-.064.564-.358 1.138-.883 1.72-.815.926-1.956 1.389-3.423 1.389-1.211 0-2.28-.39-3.205-1.17-.926-.78-1.39-2.05-1.39-3.808 0-1.648.419-2.912 1.254-3.79.836-.88 1.92-1.32 3.253-1.32.792 0 1.506.149 2.14.446zm11.743.353c.626.516.939 1.37.939 2.564v6.41h-2.55v-5.79c0-.5-.067-.885-.201-1.153-.245-.49-.71-.734-1.398-.734-.844 0-1.423.358-1.738 1.075-.163.378-.244.861-.244 1.45v5.152h-2.48V58.43h2.401v1.389c.32-.49.623-.842.908-1.057.513-.384 1.162-.577 1.948-.577.984 0 1.789.258 2.415.773zm3.27.136c.571-.18.964-.486 1.18-.917a1.6 1.6 0 00.148-.778h-1.37v-2.297h2.488v1.843c0 .88-.214 1.572-.642 2.079-.428.506-1.029.835-1.803.987v-.917zm5.561 5.799c.052.443.166.757.34.943.31.332.88.498 1.712.498.49 0 .878-.073 1.166-.218.289-.146.433-.364.433-.655a.706.706 0 00-.35-.638c-.233-.145-1.097-.396-2.594-.75-1.077-.269-1.837-.604-2.28-1.005-.442-.396-.663-.967-.663-1.712 0-.88.345-1.635 1.035-2.267.69-.631 1.661-.947 2.913-.947 1.188 0 2.156.237 2.904.712.748.474 1.177 1.294 1.288 2.458h-2.49c-.034-.32-.124-.573-.27-.76-.273-.337-.74-.506-1.397-.506-.542 0-.927.084-1.157.253-.23.169-.345.367-.345.594 0 .285.122.492.366.62.245.134 1.11.364 2.594.69.99.233 1.733.585 2.227 1.057.49.477.734 1.074.734 1.79 0 .944-.35 1.714-1.052 2.31-.702.597-1.786.896-3.254.896-1.496 0-2.6-.316-3.314-.948-.713-.632-1.07-1.437-1.07-2.415H79.3zm14.432-8.49c1.048-1.059 2.381-1.589 4-1.589 2.166 0 3.75.71 4.751 2.131.553.798.85 1.599.891 2.402h-2.69c-.175-.617-.399-1.083-.673-1.397-.489-.56-1.214-.839-2.174-.839-.978 0-1.75.395-2.315 1.184-.564.789-.847 1.905-.847 3.349 0 1.444.299 2.526.895 3.245.597.719 1.356 1.078 2.275 1.078.944 0 1.663-.308 2.158-.925.273-.332.5-.83.681-1.494h2.664c-.233 1.403-.828 2.544-1.786 3.424-.958.879-2.185 1.318-3.682 1.318-1.851 0-3.307-.593-4.366-1.781-1.06-1.194-1.59-2.83-1.59-4.909 0-2.247.603-3.98 1.808-5.196zm16.716 6.9a2.705 2.705 0 01-.476.24 3.98 3.98 0 01-.659.171l-.559.105c-.524.093-.9.206-1.127.34-.384.227-.576.58-.576 1.057 0 .425.118.732.354.922.235.189.522.283.86.283.536 0 1.03-.157 1.48-.471.452-.315.686-.888.703-1.72v-.927zm-1.51-1.161c.46-.058.788-.131.986-.218.356-.152.533-.388.533-.708 0-.39-.135-.66-.406-.808-.27-.148-.668-.223-1.192-.223-.588 0-1.005.146-1.25.437-.174.216-.29.507-.348.874h-2.402c.052-.833.285-1.517.698-2.053.658-.838 1.788-1.258 3.39-1.258 1.041 0 1.967.207 2.777.62.809.414 1.214 1.194 1.214 2.341v4.367c0 .303.005.67.017 1.1.017.327.067.548.149.664a.892.892 0 00.366.289v.366h-2.707a2.773 2.773 0 01-.157-.541 6.528 6.528 0 01-.07-.577c-.344.373-.74.69-1.188.952-.536.31-1.141.463-1.817.463-.861 0-1.573-.246-2.135-.738-.562-.492-.843-1.189-.843-2.091 0-1.17.451-2.018 1.354-2.542.495-.285 1.223-.489 2.183-.611l.847-.105zm14.292-2.585c.708.902 1.062 2.067 1.062 3.493 0 1.48-.35 2.705-1.049 3.677-.698.973-1.673 1.459-2.925 1.459-.786 0-1.418-.158-1.896-.472-.285-.186-.593-.512-.925-.978v1.196h-2.437V55.075h2.48v4.577c.315-.443.661-.78 1.04-1.013.448-.292 1.019-.437 1.711-.437 1.252 0 2.232.451 2.94 1.354zm-2.083 5.799c.356-.518.533-1.2.533-2.044 0-.675-.087-1.234-.262-1.677-.332-.838-.943-1.257-1.834-1.257-.902 0-1.523.41-1.86 1.231-.175.437-.262 1.002-.262 1.694 0 .816.18 1.491.541 2.027.361.535.911.803 1.65.803.641 0 1.14-.259 1.494-.777zm7.485-8.079h-2.524V54.98h2.524v2.297zm-2.524 1.136h2.524v9.52h-2.524v-9.52zm12.625.545c.626.516.939 1.37.939 2.564v6.41h-2.55v-5.79c0-.5-.067-.885-.201-1.153-.245-.49-.71-.734-1.398-.734-.844 0-1.423.358-1.738 1.075-.163.378-.244.861-.244 1.45v5.152h-2.48V58.43h2.401v1.389c.32-.49.623-.842.908-1.057.513-.384 1.162-.577 1.948-.577.984 0 1.789.258 2.415.773zm5.65 1.795c-.317.361-.516.85-.598 1.467h3.87c-.041-.657-.24-1.157-.599-1.497-.358-.341-.802-.511-1.332-.511-.576 0-1.023.18-1.34.541zm3.481-2.148c.635.297 1.159.765 1.572 1.406.373.565.615 1.22.725 1.965.064.437.09 1.065.079 1.886h-6.516c.035.955.335 1.625.9 2.01.343.238.757.357 1.24.357.512 0 .929-.145 1.249-.436.175-.158.329-.376.463-.655h2.541c-.064.564-.358 1.138-.882 1.72-.815.926-1.956 1.389-3.423 1.389a4.83 4.83 0 01-3.206-1.17c-.925-.78-1.388-2.05-1.388-3.808 0-1.648.417-2.912 1.253-3.79.836-.88 1.92-1.32 3.253-1.32.792 0 1.505.149 2.14.446zm3.074 1.668v-1.773h1.328v-2.655h2.463v2.655h1.546v1.773h-1.546v5.03c0 .39.05.634.148.73.1.096.402.144.909.144a6.985 6.985 0 00.489-.018v1.86l-1.18.044c-1.175.041-1.979-.163-2.41-.611-.28-.285-.419-.725-.419-1.319v-5.86h-1.328z"/></g></symbol><symbol id="pttrn-logo-gen" viewBox="0 0 1280 908.4"><path d="M8.8 8.8h1262.5v890.9H8.8V8.8z" fill="none" stroke="currentColor" stroke-width="17.534" stroke-miterlimit="70.137"/><path d="M175.4 245.4c18.7 0 32.3-4.8 40.8-14.8L219 242h21.7v-86.1h-65.8V182h35c0 4.4-.3 8-.8 11.4-1.3 8-4.5 14.3-10.1 18.9-5.5 4.6-13.1 7-22.4 7-11.1 0-20.4-4.8-27.7-14.5s-11.1-22.5-11.1-38.5 3.5-28.8 10.6-38.2 16.9-14.3 29.2-14.3c4.3 0 8.1.5 11.3 1.7 3.3 1.2 6.6 2.9 9.1 5.6 2.8 2.4 4.8 4.6 6.1 6.3 1.5 1.7 3 4.1 5.3 7l28-8.2c-1.5-3.6-3.8-7.5-6.6-11.4s-6.6-8-11.3-12.3c-4.8-4.4-10.6-8-17.9-10.9-7.3-2.7-15.4-4.1-24-4.1-22.2 0-39.8 7.5-52.9 22.3S105 143.4 105 166.4c0 23.9 6.8 43.3 20.4 57.6 13.5 14.1 30.4 21.4 50 21.4zM311.6 245.4c12.9 0 23.7-2.9 32.5-8.7 8.8-5.8 15.1-12.8 18.9-21l-25.7-8.7c-2.3 4.4-5.5 7.7-9.8 10.6-4.3 2.7-9.3 4.1-15.1 4.1-7.8 0-14.1-2.4-18.7-7.3-4.5-4.8-6.8-10.9-6.8-17.9h76.9c.5-3.6.5-7.3.5-10.6 0-17.4-5.3-31.7-15.6-42.3-10.3-10.9-23.2-16.2-38.3-16.2-15.6 0-28.5 5.3-39.1 15.7s-15.9 24.7-15.9 42.8 5.3 32.4 15.6 43.3c11.1 10.9 24.5 16.2 40.6 16.2zm-18.2-87.1c4.3-5.1 9.8-7.7 17.1-7.7 7.3 0 12.9 2.7 16.6 7.7 4 5.1 5.8 11.1 5.8 18.4H287c.1-7 2.4-13.1 6.4-18.4zM479.3 242v-71.4c0-28.8-12.9-43.3-38.3-43.3-13.4 0-23.2 4.8-29.5 14.3h-.3v-10.9h-29.5V242h31v-63.1c0-7.5 2-13.8 6.1-18.9 4-4.8 9.1-7.3 15.6-7.3 5 0 8.6 1.7 11.1 4.8 2.3 3.1 3.5 9 3.5 16.7V242h30.3zM551.6 245.4c12.9 0 23.7-2.9 32.5-8.7 8.8-5.8 15.1-12.8 18.9-21l-25.7-8.7c-2.3 4.4-5.5 7.7-9.8 10.6-4.3 2.7-9.3 4.1-15.1 4.1-7.8 0-14.1-2.4-18.7-7.3-4.5-4.8-6.8-10.9-6.8-17.9h76.9c.5-3.6.5-7.3.5-10.6 0-17.4-5.3-31.7-15.6-42.3-10.3-10.9-23.2-16.2-38.3-16.2-15.6 0-28.5 5.3-39.1 15.7s-15.9 24.7-15.9 42.8 5.3 32.4 15.6 43.3c10.9 10.9 24.2 16.2 40.6 16.2zm-18.1-87.1c4.3-5.1 9.8-7.7 17.1-7.7s12.9 2.7 16.6 7.7c4 5.1 5.8 11.1 5.8 18.4h-46.1c.3-7 2.3-13.1 6.6-18.4zM652.7 188.5c0-10.4 2-18.6 6.1-24.7 4-6 10.1-9.2 18.4-9.2 5 0 9.8.7 14.4 1.9v-27.1c-2.8-1.5-7.6-1.9-14.4-1.9-5.5 0-10.8 1.2-15.4 3.9-4.5 2.4-8.1 5.6-10.6 9V131H622v111.3h30.8l-.1-53.8zM743.4 173.3c-15.6 2.2-27.5 6.5-35.5 13.3s-12.1 15-12.1 25.2c0 9.9 3.8 18.1 11.1 24.2 7.3 6.3 17.4 9.4 30 9.4 6.8 0 13.1-1.5 18.4-4.4 5.3-2.9 9.3-6.3 11.6-10.6v11.4h29.7V174c0-15-3.8-26.4-11.1-34.6-7.6-8.2-19.9-12.1-37.8-12.1-19.9 0-36.3 7.3-48.9 21.5l18.2 15c8.8-9.2 19.2-13.8 31.3-13.8 5.3 0 9.6 1 12.9 3.1 3.3 2.2 4.8 5.6 4.8 10.2v5.8c-2.1 1-9.7 2.3-22.6 4.2zm22.5 23.2c0 7.5-2.3 13.3-7.1 17.7-4.8 4.4-10.6 6.5-17.4 6.5-4.3 0-7.8-1.2-10.3-3.4-2.8-2.2-4-5.1-4-8.5 0-8.9 7.1-14.5 21.2-16.4 4.3-.7 10.3-1.7 17.6-3.6v7.7zM826.7 206.4c0 23.7 12.6 35.6 37.8 35.6h16.9v-25.2h-13.1c-7.6 0-11.1-4.1-11.1-12.1v-48.9h23.9v-25.2h-23.9V99.2h-30.5V131h-16.6v24.9h16.6v50.5zM931 88.6h-31v30.2h31V88.6zM930.7 130.7h-30.5V242h30.5V130.7zM956.7 217.6c2.5 5.3 5.8 9.9 9.8 14s9.3 7.3 15.9 9.9c6.6 2.7 13.9 3.9 22.4 3.9 8.6 0 15.9-1.5 22.7-4.1 6.6-2.7 11.8-6 15.6-10.2 3.8-4.1 7.1-9 9.6-14.5 2.5-5.6 4.3-10.6 5-15.5 1-4.8 1.3-9.7 1.3-14.8 0-7.7-1-14.8-3-21.8-2-6.8-5-13.1-9.3-18.9-4.3-5.6-9.8-10.2-17.1-13.5-7.3-3.4-15.4-5.1-24.7-5.1s-17.6 1.7-25 5.1c-7.3 3.4-12.9 7.7-17.1 13.5-4.3 5.6-7.3 11.9-9.3 18.9-2 6.8-3 14-3 21.8 0 5.3.5 10.4 1.5 15.5.4 5.1 2.2 10.4 4.7 15.8zm32-57.4c4.8-5.1 10.1-7.7 15.9-7.7 2.5 0 4.8.5 7.3 1.5 2.3 1 4.8 2.7 7.3 5.1 2.5 2.4 4.5 5.8 6.1 10.6 1.5 4.6 2.3 10.4 2.3 16.7s-.8 12.1-2.3 16.7c-1.5 4.8-3.5 8.2-6.1 10.6-2.5 2.2-4.8 3.9-7.3 5.1-2.3 1-4.8 1.5-7.3 1.5-5.8 0-11.1-2.7-15.9-7.7-4.8-5.1-7.1-13.8-7.1-26.1s2.3-21.2 7.1-26.3zM1107.3 178.9c0-7.5 2-13.8 6.1-18.9 4-5.1 9.1-7.5 15.6-7.5 5 0 8.6 1.7 11.1 4.8 2.3 3.1 3.5 9 3.5 16.7v67.7h30.5v-71.1c0-28.8-12.9-43.3-38.3-43.3-13.4 0-23.2 4.8-29.5 14.3h-.3v-10.9h-29.5V242h30.8v-63.1z" fill="currentColor"/><path class="st0" d="M334.4 513.1c0 41.6 2.8 80.1 8.1 115.4h-2l-42.9-78.1-108.2-196h-85v395.5h83.4V593.4c0-37.7-3-76.2-9.1-115.9h2.5l44.4 83.5 107.6 188.7h84.5V354.2h-83.4v158.9h.1zM670.2 468.1c-9.8 20.1-19.4 39.7-29.2 59h-2.5c-14.1-30.2-23.4-49.8-28.2-59l-58.5-113.9h-95l141.4 236.1v159.4h83.4V590.3l141.9-236.1H728l-57.8 113.9zM1099.8 625.6c-6.8 17.7-18.2 32.9-34 45.5-15.9 12.6-34 18.9-54.2 18.9-30.3 0-54.5-12.6-72.4-37.5C921 627.6 912 594 912 551.9c0-41.6 9.1-74.7 27-99.7 17.9-24.9 42.1-37.5 72.6-37.5 20.2 0 36.3 5.1 48.9 15 12.4 9.9 23.2 23 32.8 39.2l71.9-22.3c-12.4-29-31.8-53-58.5-72.1-26.5-19.1-58-28.8-94.5-28.8-54.7 0-99.3 18.6-134.1 56.1-34.8 37.3-52.2 87.3-52.2 150.2 0 64.3 17.6 114.9 52.9 151.7 35.3 36.8 79.7 55.2 133.4 55.2 18.4 0 35.8-2.4 52.2-7.3 16.4-4.8 30.3-11.1 41.8-18.6 11.6-7.5 22.2-16.4 31.8-26.6 9.6-10.2 17.1-19.8 22.9-29.3 5.8-9.4 10.6-18.9 14.6-28.5l-75.7-23z" fill="none" stroke="currentColor" stroke-width="17.534" stroke-miterlimit="70.137"/></symbol><symbol id="pttrn-logo-gen-text" viewBox="0 0 426 266"><path d="M30.77 61.885c7.302 0 12.63-1.895 15.986-5.78l1.085 4.454h8.486V26.82H30.573v10.235h13.716c0 1.706-.099 3.128-.296 4.455-.494 3.127-1.777 5.591-3.947 7.392-2.171 1.8-5.132 2.748-8.783 2.748-4.341 0-7.992-1.895-10.854-5.686-2.862-3.791-4.342-8.814-4.342-15.069 0-6.255 1.382-11.277 4.145-14.973 2.762-3.697 6.61-5.592 11.446-5.592 1.678 0 3.158.19 4.44.663 1.283.474 2.566 1.138 3.553 2.18 1.085.948 1.875 1.8 2.368 2.464.592.664 1.184 1.611 2.072 2.748l10.953-3.222c-.592-1.421-1.48-2.938-2.565-4.454-1.086-1.516-2.566-3.127-4.44-4.833-1.876-1.706-4.145-3.128-7.007-4.265C38.171.57 35.013 0 31.658 0c-8.684 0-15.59 2.938-20.722 8.719-5.131 5.78-7.697 13.173-7.697 22.176 0 9.383 2.665 16.964 7.993 22.556 5.23 5.591 11.841 8.434 19.538 8.434zM84.056 61.886c5.032 0 9.275-1.137 12.729-3.411 3.454-2.275 5.92-5.023 7.401-8.245l-10.065-3.412c-.888 1.706-2.171 3.032-3.849 4.17-1.677 1.042-3.65 1.61-5.92 1.61-3.06 0-5.526-.947-7.302-2.842-1.777-1.896-2.665-4.265-2.665-7.013h30.097c.197-1.422.197-2.843.197-4.17 0-6.824-2.072-12.415-6.118-16.585-4.046-4.265-9.078-6.35-14.999-6.35-6.118 0-11.15 2.085-15.295 6.16-4.144 4.076-6.216 9.667-6.216 16.775 0 7.108 2.072 12.699 6.118 16.964 4.341 4.264 9.571 6.35 15.887 6.35zM76.95 27.77c1.677-1.99 3.848-3.033 6.71-3.033 2.861 0 5.032 1.043 6.513 3.033 1.578 1.99 2.27 4.36 2.27 7.203h-17.96c0-2.749.888-5.118 2.467-7.203zM149.679 60.56V32.602c0-11.277-5.033-16.964-14.999-16.964-5.23 0-9.078 1.896-11.545 5.592h-.099v-4.265h-11.545V60.56h12.137V35.824c0-2.938.79-5.401 2.369-7.392 1.578-1.895 3.552-2.843 6.118-2.843 1.973 0 3.355.664 4.341 1.896.888 1.232 1.382 3.506 1.382 6.539V60.56h11.841zM178.006 61.886c5.032 0 9.275-1.137 12.729-3.411 3.454-2.275 5.921-5.023 7.401-8.245l-10.065-3.412c-.888 1.706-2.171 3.032-3.849 4.17-1.677 1.042-3.651 1.61-5.92 1.61-3.059 0-5.526-.947-7.302-2.842-1.776-1.896-2.664-4.265-2.664-7.013h30.096c.197-1.422.197-2.843.197-4.17 0-6.824-2.072-12.415-6.118-16.585-4.045-4.265-9.078-6.35-14.999-6.35-6.118 0-11.15 2.085-15.294 6.16-4.145 4.076-6.217 9.667-6.217 16.775 0 7.108 2.072 12.699 6.118 16.964 4.243 4.264 9.473 6.35 15.887 6.35zm-7.105-34.117c1.678-1.99 3.848-3.033 6.71-3.033s5.033 1.043 6.513 3.033c1.579 1.99 2.269 4.36 2.269 7.203h-18.057c.098-2.749.888-5.118 2.565-7.203zM217.569 39.615c0-4.075.789-7.297 2.368-9.667 1.579-2.369 3.947-3.6 7.203-3.6 1.974 0 3.849.283 5.625.757V16.491c-1.085-.569-2.96-.758-5.625-.758-2.17 0-4.243.474-6.019 1.516-1.776.948-3.158 2.18-4.144 3.507v-3.697H205.53v43.595h12.039V39.615zM253.094 33.645c-6.118.853-10.756 2.558-13.913 5.212-3.158 2.654-4.737 5.876-4.737 9.856 0 3.886 1.48 7.108 4.342 9.477 2.862 2.464 6.809 3.696 11.743 3.696 2.664 0 5.131-.568 7.203-1.706 2.072-1.137 3.651-2.463 4.539-4.17v4.455h11.644V33.929c0-5.876-1.48-10.33-4.342-13.552-2.96-3.223-7.795-4.739-14.801-4.739-7.796 0-14.21 2.843-19.144 8.435l7.105 5.876c3.454-3.602 7.5-5.402 12.236-5.402 2.072 0 3.75.379 5.033 1.232 1.282.853 1.874 2.18 1.874 3.98v2.275c-.789.379-3.749.852-8.782 1.61zm8.782 9.098c0 2.938-.888 5.212-2.763 6.918-1.874 1.706-4.144 2.559-6.808 2.559-1.678 0-3.059-.474-4.046-1.327-1.085-.853-1.579-1.99-1.579-3.317 0-3.507 2.763-5.686 8.289-6.444 1.678-.285 4.046-.664 6.907-1.422v3.033zM285.662 46.627c0 9.287 4.934 13.931 14.802 13.931h6.611v-9.856h-5.131c-2.961 0-4.342-1.611-4.342-4.738V26.82h9.374v-9.856h-9.374V4.644h-11.94v12.414h-6.513v9.762h6.513v19.807zM326.505.474h-12.137V12.32h12.137V.474zM326.416 16.964h-11.939V60.56h11.939V16.964zM336.573 50.99a19.977 19.977 0 003.849 5.496c1.579 1.611 3.651 2.843 6.216 3.886 2.566 1.042 5.428 1.516 8.783 1.516 3.355 0 6.216-.569 8.88-1.611 2.566-1.043 4.638-2.37 6.118-3.98a21.444 21.444 0 003.75-5.687c.987-2.18 1.678-4.17 1.974-6.065.394-1.896.493-3.791.493-5.781 0-3.033-.395-5.781-1.184-8.53-.79-2.653-1.974-5.117-3.651-7.392-1.678-2.18-3.849-3.98-6.71-5.307-2.862-1.327-6.019-1.99-9.67-1.99s-6.908.663-9.769 1.99c-2.862 1.327-5.033 3.033-6.71 5.307-1.678 2.18-2.862 4.644-3.651 7.392-.79 2.654-1.185 5.497-1.185 8.53 0 2.085.198 4.075.593 6.065.197 1.99.888 4.075 1.874 6.16zm12.532-22.462c1.875-1.99 3.947-3.032 6.217-3.032.987 0 1.875.19 2.862.568.888.38 1.874 1.043 2.861 1.99.987.948 1.776 2.275 2.368 4.17.592 1.801.888 4.076.888 6.54 0 2.464-.296 4.738-.888 6.539-.592 1.895-1.381 3.222-2.368 4.17-.987.853-1.875 1.516-2.861 1.99a7.333 7.333 0 01-2.862.569c-2.27 0-4.342-1.043-6.217-3.033s-2.763-5.402-2.763-10.235c0-4.834.888-8.245 2.763-10.236zM395.484 35.824c0-2.938.789-5.401 2.368-7.392 1.579-1.99 3.552-2.938 6.118-2.938 1.974 0 3.355.664 4.342 1.896.888 1.232 1.381 3.506 1.381 6.539v26.536h11.94V32.602c0-11.277-5.032-16.964-14.999-16.964-5.23 0-9.078 1.896-11.545 5.592h-.099v-4.265h-11.545V60.56h12.039V35.824z" fill="currentColor"/><path d="M92.993 166.781c0 16.301 1.085 31.369 3.157 45.206h-.789l-16.775-30.611-42.332-76.764H3v154.95h32.662v-61.317c0-14.784-1.184-29.853-3.553-45.395h.987l17.367 32.696 42.135 73.921h33.057v-154.95H92.993v62.264zM224.432 149.154c-3.848 7.866-7.598 15.542-11.446 23.124h-.987c-5.526-11.846-9.177-19.523-11.052-23.124l-22.892-44.637h-37.201l55.357 92.496v62.454h32.662v-62.454l55.555-92.496h-37.399l-22.597 44.637zM392.579 210.848c-2.665 6.918-7.105 12.889-13.322 17.817-6.216 4.928-13.321 7.392-21.215 7.392-11.841 0-21.314-4.928-28.32-14.69-7.105-9.761-10.657-22.934-10.657-39.424 0-16.301 3.552-29.284 10.558-39.046 7.006-9.761 16.479-14.689 28.419-14.689 7.894 0 14.209 1.99 19.143 5.875 4.835 3.886 9.078 9.004 12.828 15.353l28.123-8.719c-4.835-11.372-12.433-20.754-22.893-28.241-10.361-7.487-22.696-11.278-37.004-11.278-21.412 0-38.878 7.297-52.496 21.987-13.617 14.595-20.426 34.212-20.426 58.853 0 25.209 6.908 45.016 20.722 59.421 13.815 14.405 31.182 21.608 52.2 21.608 7.204 0 14.012-.948 20.426-2.844 6.414-1.895 11.841-4.359 16.381-7.297 4.539-2.938 8.683-6.444 12.433-10.425 3.75-3.98 6.71-7.771 8.979-11.467a80.012 80.012 0 005.724-11.183l-29.603-9.003z" stroke="currentColor" stroke-width="5" fill="transparent"/></symbol><symbol id="pttrn-logo-gen-favicon" viewBox="0 0 981.7 981.7"><path d="M503.7 893.5c95.1 0 164.5-24.7 208.2-75.2l14.1 58h110.5V437.2H501.1v133.2h178.7c0 22.2-1.3 40.7-3.9 58-6.4 40.7-23.1 72.8-51.4 96.2-28.3 23.4-66.8 35.8-114.4 35.8-56.6 0-104.1-24.7-141.4-74-37.3-49.3-56.6-114.7-56.6-196.1 0-81.4 18-146.8 54-194.9 36-48.1 86.1-72.8 149.1-72.8 21.8 0 41.1 2.5 57.8 8.6 16.7 6.2 33.4 14.8 46.3 28.4 14.1 12.3 24.4 23.4 30.9 32.1 7.7 8.6 15.4 21 27 35.8l142.7-41.9c-7.7-18.5-19.3-38.2-33.4-58-14.1-19.7-33.4-40.7-57.8-62.9-24.4-22.2-54-40.7-91.3-55.5-37.3-13.6-78.4-21-122.1-21-113.1 0-203.1 38.2-269.9 113.5-66.8 75.2-100.3 171.4-100.3 288.6 0 122.1 34.7 220.8 104.1 293.5 68.1 72.7 154.3 109.7 254.5 109.7z" fill="#141414"/><path fill="none" stroke="#141414" stroke-width="17.534" stroke-miterlimit="70.137" d="M8.8 8.8H973V973H8.8z"/></symbol><symbol id="pttrn-icon-share" viewBox="0 0 16 16"><path d="M1.5 1c-.372 0-.773.148-1.063.438-.29.29-.438.69-.438 1.063v11c0 .372.148.773.438 1.063.29.29.69.438 1.063.438h11c.372 0 .773-.148 1.063-.438.29-.29.438-.69.438-1.063v-2.5h-2v2h-10v-10h4v-2h-4.5zM12 1v2c-4.262 0-7.753 3.383-7.969 7.594C4.368 8.584 7.125 7 9 7h3v2l4-4-4-4z" fill="currentColor"/></symbol><symbol id="pttrn-icon-search" viewBox="0 0 32 32"><path d="M12 0C5.39 0 0 5.39 0 12s5.39 12 12 12c2.741 0 5.257-.944 7.281-2.5l1.594 1.625-.563.563c-.2.2-.2.519 0 .719l7.281 7.281c.2.2.519.2.719 0l3.281-3.281c.2-.2.2-.519 0-.719l-7.281-7.281c-.1-.2-.519-.2-.719 0l-.563.563-1.594-1.594a11.923 11.923 0 002.563-7.375c0-6.61-5.39-12-12-12zm0 3c4.988 0 9 4.012 9 9s-4.012 9-9 9-9-4.012-9-9 4.012-9 9-9z" fill="currentColor"/></symbol><symbol id="pttrn-icon-map" viewBox="0 0 32 32"><path d="M16 0C10.5 0 6 4.5 6 10c0 7.5 10 22 10 22s10-14.5 10-22c0-5.5-4.5-10-10-10zm0 5c2.8 0 5 2.2 5 5s-2.2 5-5 5-5-2.2-5-5 2.2-5 5-5z" fill="currentColor"/></symbol><symbol id="pttrn-icon-heart" viewBox="0 0 128 128"><path d="M34 8c-9.4 0-17.9 3.8-24 10C3.8 24.1 0 32.6 0 42s3.8 17.9 10 24l54 54 54-54c6.2-6.2 10-14.7 10-24 0-9.4-3.8-17.9-10-24-6.2-6.2-14.7-10-24-10-9.4 0-17.9 3.8-24 10-2.4 2.4-4.4 5.1-6 8-1.6-3-3.6-5.7-6-8-6.1-6.2-14.6-10-24-10z" fill="currentColor"/></symbol><symbol id="pttrn-icon-external-link" viewBox="0 0 16 16"><path d="M11 0l1.781 1.781-.5.5-4 4L7.593 7l1.406 1.406.719-.688 4-4 .5-.5 1.781 1.781v-5h-5zM0 2v14h14V8h-2v6H2V4h6V2H0z" fill="currentColor"/></symbol><symbol id="pttrn-icon-chevron-up" viewBox="0 0 1024 693"><path d="M512 0l-45.2 45.2L0 512v181l512-512 512 512V512L557.2 45.2 512 0z" fill="currentColor"/></symbol><symbol id="pttrn-icon-chevron-right" viewBox="0 0 693 1024"><path d="M0 0l512 512L0 1024h181l466.8-466.8L693 512l-45.2-45.2L181 0H0z" fill="currentColor"/></symbol><symbol id="pttrn-icon-chevron-left" viewBox="0 0 693 1024"><path d="M512 0L45.2 466.8 0 512l45.2 45.2L512 1024h181L181 512 693 0H512z" fill="currentColor"/></symbol><symbol id="pttrn-icon-chevron-down" viewBox="0 0 1024 693"><path d="M0 0v181l466.8 466.8L512 693l45.2-45.2L1024 181V0L512 512 0 0z" fill="currentColor"/></symbol><symbol id="pttrn-icon-check" viewBox="0 0 128 128"><path d="M114.156 15.188l-5.469 5.844L43.781 89.97 19.593 66.282l-5.719-5.594L2.686 72.126l5.719 5.594 30 29.406 5.813 5.688 5.594-5.938 70.5-74.906 5.5-5.813-11.656-10.969z" fill="currentColor"/></symbol><symbol id="pttrn-icon-chat" viewBox="0 0 656 407"><path d="M656 245.344V55.348C656 24.778 632.61 0 603.754 0H52.246C23.39 0 0 24.778 0 55.348v189.996c0 30.569 23.39 55.348 52.246 55.348h59.287v93.48c0 5.51 3.512 10.266 8.928 12.091a13.69 13.69 0 004.49.737c3.975 0 7.735-1.685 10.32-4.791l84.482-100.938c.149-.193.281-.386.414-.579h383.57c28.873 0 52.263-24.779 52.263-55.348zm-54.582 48.592H215.727l-.199.772a6.56 6.56 0 01-1.225 2.299l-84.449 100.92c-2.071 2.457-4.986 2.598-7.024 1.931-2.037-.667-4.207-2.527-4.207-5.703V293.953H54.234c-25.94 0-46.978-22.286-46.978-49.767V56.26c0-27.48 21.037-49.767 46.978-49.767h547.184c25.941 0 46.979 22.286 46.979 49.767v187.908c0 27.499-21.038 49.768-46.979 49.768z" fill="currentColor"/></symbol><symbol id="pttrn-icon-arrow-right" viewBox="0 0 16 16"><path d="M4.5 1l5 5H0v4h9.5l-5 5H9l7-7-7-7H4.5z" fill="currentColor"/></symbol><symbol id="pttrn-icon-arrow-left" viewBox="0 0 16 16"><path d="M7 1L0 8l7 7h4.5l-5-5H16V6H6.5l5-5H7z"/></symbol></svg>