<?xml version="1.0" encoding="UTF-8"?><!DOCTYPE svg PUBLIC "-//W3C//DTD SVG 1.1//EN" "http://www.w3.org/Graphics/SVG/1.1/DTD/svg11.dtd"><svg xmlns="http://www.w3.org/2000/svg" xmlns:xlink="http://www.w3.org/1999/xlink"><defs/><symbol id="pttrn-icon-gen-chevron-up" viewBox="0 0 128 128"><path d="M64 16.688l-5.656 5.656L0 80.688v22.625l64-64 64 64V80.688L69.656 22.344 64 16.688z"/></symbol><symbol id="pttrn-icon-gen-chevron-right" viewBox="0 0 128 128"><path d="M.688 0l64 64-64 64h22.625l58.344-58.344L87.313 64l-5.656-5.656L23.313 0H.688z"/></symbol><symbol id="pttrn-icon-gen-chevron-left" viewBox="0 0 128 128"><path d="M80.688 0L22.344 58.344 16.688 64l5.656 5.656L80.688 128h22.625l-64-64 64-64H80.688z"/></symbol><symbol id="pttrn-icon-gen-chevron-down" viewBox="0 0 128 128"><path d="M0 .688v22.625l58.344 58.344L64 87.313l5.656-5.656L128 23.313V.688l-64 64-64-64z"/></symbol></svg>