<svg width="100%" height="100%" viewBox="0 0 656 407" fill="none" xmlns="http://www.w3.org/2000/svg">
<path d="M656 245.344V55.3477C656 24.7783 632.61 0 603.754 0H52.2463C23.3899 0 0 24.7783 0 55.3477V245.344C0 275.913 23.3899 300.692 52.2463 300.692H111.533V394.172C111.533 399.682 115.045 404.438 120.461 406.263C121.936 406.772 123.443 407 124.951 407C128.926 407 132.686 405.315 135.271 402.209L219.753 301.271C219.902 301.078 220.034 300.885 220.167 300.692H603.737C632.61 300.692 656 275.913 656 245.344ZM601.418 293.936H215.727L215.528 294.708C215.28 295.515 214.899 296.287 214.303 297.007L129.854 397.927C127.783 400.384 124.868 400.525 122.83 399.858C120.793 399.191 118.623 397.331 118.623 394.155V293.953H54.2341C28.2932 293.953 7.25551 271.667 7.25551 244.186V56.2602C7.25551 28.7794 28.2932 6.49291 54.2341 6.49291H601.418C627.359 6.49291 648.397 28.7794 648.397 56.2602V244.168C648.397 271.667 627.359 293.936 601.418 293.936Z" fill="currentColor"/>
</svg>
