<svg width="100%" height="100%" viewBox="0 0 323 232" fill="none" xmlns="http://www.w3.org/2000/svg">
<path d="M323 139.852V31.5495C323 14.1243 309.625 0 293.125 0H29.8751C13.3747 0 0 14.1243 0 31.5495V139.852C0 157.277 13.3747 171.402 29.8751 171.402H63.7759V224.688C63.7759 227.829 65.784 230.54 68.8814 231.58C69.7244 231.87 70.5864 232 71.4484 232C73.7217 232 75.8719 231.04 77.3495 229.269L125.657 171.732C125.743 171.622 125.818 171.512 125.894 171.402H293.115C309.625 171.402 323 157.277 323 139.852ZM291.789 167.551H123.356L123.242 167.991C123.1 168.451 122.882 168.891 122.541 169.301L74.2521 226.828C73.0681 228.229 71.401 228.309 70.2359 227.929C69.0709 227.549 67.83 226.488 67.83 224.678V167.561H31.0118C16.1784 167.561 4.1488 154.857 4.1488 139.192V32.0697C4.1488 16.405 16.1784 3.70112 31.0118 3.70112H291.789C306.623 3.70112 318.652 16.405 318.652 32.0697V139.182C318.652 154.857 306.623 167.551 291.789 167.551Z" fill="currentColor"/>
</svg>
