<svg version="1.1" xmlns="http://www.w3.org/2000/svg" xmlns:xlink="http://www.w3.org/1999/xlink" x="0px" y="0px"
	 viewBox="0 0 614.4 819.2" style="enable-background:new 0 0 614.4 819.2;" xml:space="preserve">
<path d="M486.4,563.2c-26.8,0-51.8,8.3-72.4,22.4L247.7,454.9c5.3-14.1,8.3-29.2,8.3-45.3c0-16.4-3.2-32.1-8.8-46.5L411,231.5
	c21.1,15.4,47.2,24.5,75.4,24.5c70.7,0,128-57.3,128-128S557.1,0,486.4,0c-70.8,0-128,57.3-128,128c0,14.6,2.4,28.6,6.9,41.6
	L199,303.2c-20.2-13.6-44.7-21.6-71-21.6c-70.8,0-128,57.3-128,128s57.3,128,128,128c26.7,0,51.7-8.2,72.3-22.3L366.6,646
	c-5.3,14.1-8.2,29.3-8.2,45.2c0,70.7,57.2,128,128,128c70.7,0,128-57.3,128-128S557.1,563.2,486.4,563.2z" fill="currentColor"/>
</svg>
