<svg width="426" height="266" viewBox="0 0 426 266" fill="none" xmlns="http://www.w3.org/2000/svg">
<path d="M30.77 61.8853C38.072 61.8853 43.4006 59.9899 46.7556 56.1043L47.841 60.5585H56.3272V26.8201H30.5726V37.0554H44.2886C44.2886 38.7613 44.19 40.1828 43.9926 41.5096C43.4992 44.637 42.2164 47.1011 40.0456 48.9017C37.8747 50.7024 34.9144 51.6501 31.2634 51.6501C26.9216 51.6501 23.2706 49.7547 20.409 45.9638C17.5473 42.173 16.0672 37.1502 16.0672 30.8953C16.0672 24.6404 17.4487 19.6176 20.2116 15.9215C22.9745 12.2254 26.8229 10.33 31.6581 10.33C33.3356 10.33 34.8157 10.5196 36.0985 10.9934C37.3813 11.4673 38.6641 12.1307 39.6509 13.1731C40.7363 14.1208 41.5257 14.9738 42.0191 15.6372C42.6111 16.3006 43.2032 17.2483 44.0913 18.3855L55.0444 15.1633C54.4523 13.7418 53.5642 12.2254 52.4788 10.7091C51.3934 9.19277 49.9132 7.58166 48.0384 5.87579C46.1635 4.16991 43.8939 2.74835 41.0323 1.6111C38.1707 0.568625 35.0131 0 31.6581 0C22.9745 0 16.0672 2.93789 10.936 8.71891C5.80485 14.4999 3.23926 21.8921 3.23926 30.8953C3.23926 40.2776 5.90352 47.8593 11.232 53.4507C16.4619 59.0422 23.0732 61.8853 30.77 61.8853Z" fill="currentColor"/>
<path d="M84.0556 61.8864C89.0881 61.8864 93.3312 60.7491 96.7849 58.4746C100.239 56.2001 102.705 53.4518 104.186 50.2296L94.1206 46.8178C93.2325 48.5237 91.9497 49.8505 90.2722 50.9877C88.5947 52.0302 86.6212 52.5988 84.3517 52.5988C81.2927 52.5988 78.8258 51.6511 77.0496 49.7557C75.2734 47.8603 74.3853 45.491 74.3853 42.7427H104.482C104.679 41.3211 104.679 39.8995 104.679 38.5728C104.679 31.7493 102.607 26.1578 98.5611 21.9879C94.5153 17.7232 89.4828 15.6382 83.5622 15.6382C77.4443 15.6382 72.4118 17.7232 68.2674 21.7983C64.123 25.8735 62.0508 31.4649 62.0508 38.5728C62.0508 45.6806 64.123 51.272 68.1687 55.5367C72.5105 59.8014 77.7403 61.8864 84.0556 61.8864ZM76.9509 27.7689C78.6284 25.7787 80.7993 24.7362 83.6609 24.7362C86.5225 24.7362 88.6934 25.7787 90.1736 27.7689C91.7524 29.7591 92.4431 32.1283 92.4431 34.9715H74.484C74.484 32.2231 75.3721 29.8538 76.9509 27.7689Z" fill="currentColor"/>
<path d="M149.679 60.5596V32.6022C149.679 21.3245 144.646 15.6382 134.68 15.6382C129.45 15.6382 125.602 17.5336 123.135 21.2297H123.036V16.965H111.491V60.5596H123.628V35.8244C123.628 32.8865 124.418 30.4225 125.997 28.4323C127.575 26.5368 129.549 25.5891 132.115 25.5891C134.088 25.5891 135.47 26.2525 136.456 27.4846C137.344 28.7166 137.838 30.9911 137.838 34.0237V60.5596H149.679Z" fill="currentColor"/>
<path d="M178.006 61.8864C183.038 61.8864 187.281 60.7491 190.735 58.4746C194.189 56.2001 196.656 53.4518 198.136 50.2296L188.071 46.8178C187.183 48.5237 185.9 49.8505 184.222 50.9877C182.545 52.0302 180.571 52.5988 178.302 52.5988C175.243 52.5988 172.776 51.6511 171 49.7557C169.224 47.8603 168.336 45.491 168.336 42.7427H198.432C198.629 41.3211 198.629 39.8995 198.629 38.5728C198.629 31.7493 196.557 26.1578 192.511 21.9879C188.466 17.7232 183.433 15.6382 177.512 15.6382C171.394 15.6382 166.362 17.7232 162.218 21.7983C158.073 25.8735 156.001 31.4649 156.001 38.5728C156.001 45.6806 158.073 51.272 162.119 55.5367C166.362 59.8014 171.592 61.8864 178.006 61.8864ZM170.901 27.7689C172.579 25.7787 174.749 24.7362 177.611 24.7362C180.473 24.7362 182.644 25.7787 184.124 27.7689C185.703 29.7591 186.393 32.1283 186.393 34.9715H168.336C168.434 32.2231 169.224 29.8538 170.901 27.7689Z" fill="currentColor"/>
<path d="M217.569 39.615C217.569 35.5398 218.358 32.3176 219.937 29.9484C221.516 27.5791 223.884 26.3471 227.14 26.3471C229.114 26.3471 230.989 26.6314 232.765 27.1052V16.4909C231.68 15.9223 229.805 15.7327 227.14 15.7327C224.97 15.7327 222.897 16.2066 221.121 17.2491C219.345 18.1968 217.963 19.4288 216.977 20.7556V17.0595H205.53V60.6541H217.569V39.615Z" fill="currentColor"/>
<path d="M253.094 33.6447C246.976 34.4976 242.338 36.2035 239.181 38.8571C236.023 41.5106 234.444 44.7329 234.444 48.7132C234.444 52.5988 235.924 55.821 238.786 58.1903C241.648 60.6544 245.595 61.8864 250.529 61.8864C253.193 61.8864 255.66 61.3178 257.732 60.1805C259.804 59.0433 261.383 57.7165 262.271 56.0106V60.4648H273.915V33.929C273.915 28.0532 272.435 23.599 269.573 20.3767C266.613 17.1545 261.778 15.6382 254.772 15.6382C246.976 15.6382 240.562 18.4813 235.628 24.0728L242.733 29.9486C246.187 26.3473 250.233 24.5467 254.969 24.5467C257.041 24.5467 258.719 24.9258 260.002 25.7787C261.284 26.6316 261.876 27.9584 261.876 29.7591V32.0336C261.087 32.4126 258.127 32.8865 253.094 33.6447ZM261.876 42.7427C261.876 45.6806 260.988 47.9551 259.113 49.6609C257.239 51.3668 254.969 52.2198 252.305 52.2198C250.627 52.2198 249.246 51.7459 248.259 50.893C247.174 50.04 246.68 48.9028 246.68 47.576C246.68 44.0695 249.443 41.8897 254.969 41.1316C256.647 40.8473 259.015 40.4682 261.876 39.71V42.7427Z" fill="currentColor"/>
<path d="M285.662 46.6269C285.662 55.9144 290.596 60.5582 300.464 60.5582H307.075V50.702H301.944C298.983 50.702 297.602 49.0909 297.602 45.9635V26.8198H306.976V16.9636H297.602V4.64341H285.662V17.0584H279.149V26.8198H285.662V46.6269Z" fill="currentColor"/>
<path d="M326.505 0.473595H314.368V12.32H326.505V0.473595Z" fill="currentColor"/>
<path d="M326.416 16.9642H314.477V60.5588H326.416V16.9642Z" fill="currentColor"/>
<path d="M336.573 50.9892C337.56 53.0741 338.843 54.8748 340.422 56.4859C342.001 58.097 344.073 59.329 346.638 60.3715C349.204 61.414 352.066 61.8878 355.421 61.8878C358.776 61.8878 361.637 61.3192 364.301 60.2767C366.867 59.2342 368.939 57.9074 370.419 56.2963C371.9 54.6852 373.182 52.7898 374.169 50.6101C375.156 48.4304 375.847 46.4402 376.143 44.5448C376.537 42.6493 376.636 40.7539 376.636 38.7637C376.636 35.7311 376.241 32.9827 375.452 30.2344C374.662 27.5808 373.478 25.1167 371.801 22.8422C370.123 20.6625 367.952 18.8619 365.091 17.5351C362.229 16.2083 359.072 15.5449 355.421 15.5449C351.77 15.5449 348.513 16.2083 345.652 17.5351C342.79 18.8619 340.619 20.5677 338.942 22.8422C337.264 25.022 336.08 27.486 335.291 30.2344C334.501 32.8879 334.106 35.7311 334.106 38.7637C334.106 40.8487 334.304 42.8389 334.699 44.8291C334.896 46.8193 335.587 48.9042 336.573 50.9892ZM349.105 28.5285C350.98 26.5383 353.052 25.4958 355.322 25.4958C356.309 25.4958 357.197 25.6854 358.184 26.0644C359.072 26.4435 360.058 27.1069 361.045 28.0546C362.032 29.0023 362.821 30.3291 363.413 32.2245C364.005 34.0252 364.301 36.2997 364.301 38.7637C364.301 41.2278 364.005 43.5023 363.413 45.3029C362.821 47.1983 362.032 48.5251 361.045 49.4728C360.058 50.3258 359.17 50.9892 358.184 51.463C357.295 51.8421 356.309 52.0317 355.322 52.0317C353.052 52.0317 350.98 50.9892 349.105 48.999C347.23 47.0088 346.342 43.597 346.342 38.7637C346.342 33.9304 347.23 30.5187 349.105 28.5285Z" fill="currentColor"/>
<path d="M395.484 35.8244C395.484 32.8865 396.273 30.4225 397.852 28.4323C399.431 26.4421 401.404 25.4944 403.97 25.4944C405.944 25.4944 407.325 26.1578 408.312 27.3898C409.2 28.6218 409.693 30.8963 409.693 33.929V60.4648H421.633V32.6022C421.633 21.3245 416.601 15.6382 406.634 15.6382C401.404 15.6382 397.556 17.5336 395.089 21.2297H394.99V16.965H383.445V60.5596H395.484V35.8244Z" fill="currentColor"/>
<path d="M92.9929 166.781C92.9929 183.082 94.0783 198.15 96.1505 211.987H95.3611L78.5861 181.376L36.254 104.612H3V259.562H35.6619V198.245C35.6619 183.461 34.4778 168.392 32.1095 152.85H33.0963L50.4634 185.546L92.5982 259.467H125.655V104.517H92.9929V166.781Z" stroke="currentColor" stroke-width="5"/>
<path d="M224.432 149.154C220.584 157.02 216.834 164.696 212.986 172.278H211.999C206.473 160.432 202.822 152.755 200.947 149.154L178.055 104.517H140.854L196.211 197.013V259.467H228.873V197.013L284.428 104.517H247.029L224.432 149.154Z" stroke="currentColor" stroke-width="5"/>
<path d="M392.579 210.848C389.914 217.766 385.474 223.737 379.257 228.665C373.041 233.593 365.936 236.057 358.042 236.057C346.201 236.057 336.728 231.129 329.722 221.367C322.617 211.606 319.065 198.433 319.065 181.943C319.065 165.642 322.617 152.659 329.623 142.897C336.629 133.136 346.102 128.208 358.042 128.208C365.936 128.208 372.251 130.198 377.185 134.083C382.02 137.969 386.263 143.087 390.013 149.436L418.136 140.717C413.301 129.345 405.703 119.963 395.243 112.476C384.882 104.989 372.547 101.198 358.239 101.198C336.827 101.198 319.361 108.495 305.743 123.185C292.126 137.78 285.317 157.397 285.317 182.038C285.317 207.247 292.225 227.054 306.039 241.459C319.854 255.864 337.221 263.067 358.239 263.067C365.443 263.067 372.251 262.119 378.665 260.223C385.079 258.328 390.506 255.864 395.046 252.926C399.585 249.988 403.729 246.482 407.479 242.501C411.229 238.521 414.189 234.73 416.458 231.034C418.728 227.338 420.603 223.642 422.182 219.851L392.579 210.848Z" stroke="currentColor" stroke-width="5"/>
</svg>
