<svg version="1.1" id="Layer_1" xmlns="http://www.w3.org/2000/svg" xmlns:xlink="http://www.w3.org/1999/xlink" x="0px" y="0px"
	 viewBox="0 0 409 159" style="enable-background:new 0 0 409 159;" xml:space="preserve">
  <path d="M214.4,31.9l4.6-4.5V13.7L205.3,0h-45.6L146,13.7V4.6L141.4,0h-18.2l-4.6,4.6v9.1l-9.1,9.1l-9.1-9.1V4.6L95.8,0H77.6L73,4.6
  L68.4,0H50.2l-4.6,4.6v18.2L22.8,0H4.6L0,4.6v63.9L4.6,73h18.2l4.6-4.6V50.2L50.2,73h18.3l4.6-4.6V31.9l22.8,22.8v13.7l4.6,4.6h18.2
  l4.6-4.6V54.8L146,31.9v27.4L159.7,73h45.6L219,59.3V45.6l-4.6-4.6h-22.8v4.6h-18.2V27.4h18.2v4.5H214.4z" fill="currentColor"/>
  <path d="M215.8,3.1c0.4,0,0.8,0,0.8-0.5s-0.4-0.5-0.8-0.5h-0.7v1L215.8,3.1z M215.1,5.1h-0.6V1.6h1.3c0.8,0,1.3,0.3,1.3,1
  c0,0.1,0,0.2-0.1,0.4c0,0.1-0.1,0.2-0.2,0.3c-0.1,0.1-0.2,0.2-0.3,0.2c-0.1,0-0.2,0.1-0.4,0.1l1,1.5h-0.6l-0.9-1.5h-0.5L215.1,5.1z
  M215.7,0.7c-0.3,0-0.7,0.1-1,0.2c-0.3,0.1-0.6,0.3-0.8,0.6c-0.2,0.2-0.4,0.5-0.5,0.8c-0.1,0.3-0.2,0.6-0.1,1c0,0.3,0,0.7,0.1,1
  c0.1,0.3,0.3,0.6,0.5,0.8c0.2,0.2,0.5,0.4,0.8,0.6c0.3,0.1,0.6,0.2,1,0.2c0.3,0,0.7-0.1,1-0.2c0.3-0.1,0.6-0.3,0.8-0.6
  c0.2-0.2,0.4-0.5,0.5-0.8c0.1-0.3,0.2-0.6,0.1-1c0-0.3,0-0.7-0.1-1c-0.1-0.3-0.3-0.6-0.5-0.8c-0.2-0.2-0.5-0.4-0.8-0.6
  C216.4,0.8,216.1,0.7,215.7,0.7L215.7,0.7z M215.7,6.4c-0.4,0-0.8-0.1-1.2-0.2c-0.4-0.2-0.7-0.4-1-0.7c-0.3-0.3-0.5-0.6-0.7-1
  c-0.1-0.4-0.2-0.8-0.2-1.2c0-0.4,0-0.8,0.2-1.2c0.1-0.4,0.4-0.8,0.7-1.1c0.3-0.3,0.6-0.5,1-0.7c0.4-0.2,0.8-0.3,1.2-0.3
  s0.8,0.1,1.2,0.3c0.4,0.2,0.7,0.4,1,0.7c0.3,0.3,0.5,0.7,0.7,1.1c0.1,0.4,0.2,0.8,0.2,1.2c0,0.4-0.1,0.8-0.2,1.2
  c-0.1,0.4-0.4,0.7-0.7,1c-0.3,0.3-0.6,0.5-1,0.7C216.5,6.3,216.1,6.4,215.7,6.4" fill="currentColor"/>
  <path d="M9,135.7c5.7,0,9,4.2,9,9.5s-3.2,9.5-9,9.5s-9-4.2-9-9.5S3.2,135.7,9,135.7z M9,150.6c3.1,0,4.2-2.7,4.2-5.4
  s-1.2-5.4-4.2-5.4s-4.2,2.7-4.2,5.4S5.9,150.6,9,150.6z" fill="currentColor"/>
  <path d="M21.2,143.9h-2.1v-2.8h2.1c0-3.8,1.3-5,5-5c0.7,0,1.4,0,2.1,0.1v3.1c-0.4,0-0.8-0.1-1.2-0.1c-1,0-1.6,0.1-1.6,1.3v0.6h2.6
  v2.8h-2.6v10.4h-4.3V143.9z" fill="currentColor"/>
  <path d="M30.4,143.9h-2.1v-2.8h2.1c0-3.8,1.3-5,5-5c0.7,0,1.4,0,2.1,0.1v3.1c-0.4,0-0.8-0.1-1.2-0.1c-1,0-1.6,0.1-1.6,1.3v0.6h2.6
  v2.8h-2.6v10.4h-4.3V143.9z M43,139.4h-4.4v-3.3H43V139.4z M38.7,141.1H43v13.2h-4.4L38.7,141.1z" fill="currentColor"/>
  <path d="M54.5,145.9c0-0.3-0.1-0.5-0.2-0.8c-0.1-0.2-0.3-0.5-0.5-0.6c-0.2-0.2-0.4-0.3-0.7-0.4c-0.3-0.1-0.5-0.1-0.8-0.1
  c-2.4,0-2.8,2.1-2.8,3.9c0,1.8,0.7,3.5,2.6,3.5c0.3,0,0.6,0,0.9-0.1c0.3-0.1,0.6-0.3,0.8-0.5c0.2-0.2,0.4-0.5,0.5-0.8
  c0.1-0.3,0.2-0.6,0.2-0.9h4.2c-0.4,3.5-3.1,5.6-6.7,5.6c-0.9,0-1.8-0.1-2.7-0.4c-0.9-0.3-1.6-0.8-2.3-1.5c-0.7-0.6-1.2-1.4-1.5-2.3
  c-0.3-0.8-0.5-1.8-0.5-2.7c0-4.2,2.7-7.2,6.9-7.2c3.3,0,6.2,1.7,6.5,5.2L54.5,145.9z" fill="currentColor"/>
  <path d="M64.5,148.8c0,0.4,0,0.8,0.2,1.2c0.1,0.4,0.4,0.7,0.6,1c0.3,0.3,0.6,0.5,1,0.6c0.4,0.1,0.8,0.2,1.2,0.2c0.5,0,1-0.1,1.5-0.3
  c0.4-0.3,0.8-0.6,1-1.1h4c-0.8,3.1-3.6,4.4-6.6,4.4c-4.3,0-7.2-2.6-7.2-7c0-0.9,0.2-1.9,0.5-2.7c0.4-0.9,0.9-1.6,1.6-2.3
  c0.7-0.7,1.5-1.2,2.3-1.5c0.9-0.3,1.8-0.5,2.7-0.5c4.8,0,7.1,3.6,6.9,8L64.5,148.8z M69.9,146.3c0-0.7-0.3-1.4-0.7-1.9
  c-0.5-0.5-1.1-0.8-1.8-0.8c-0.7,0-1.4,0.3-1.9,0.8c-0.5,0.5-0.8,1.2-0.9,1.9H69.9z" fill="currentColor"/>
  <path d="M85.1,143.9H83v-2.8h2.1c0-3.8,1.3-5,5-5c0.7,0,1.4,0,2.1,0.1v3.1c-0.4,0-0.8-0.1-1.2-0.1c-1,0-1.6,0.1-1.6,1.3v0.6H92v2.8
  h-2.6v10.4h-4.3V143.9z" fill="currentColor"/>
  <path d="M99.5,140.7c1.4,0,2.7,0.4,3.9,1.2s2,1.9,2.6,3.1c0.5,1.3,0.7,2.7,0.4,4c-0.3,1.4-0.9,2.6-1.9,3.6c-1,1-2.2,1.6-3.6,1.9
  c-1.4,0.3-2.8,0.1-4-0.4c-1.3-0.5-2.4-1.4-3.1-2.6c-0.8-1.2-1.2-2.5-1.2-3.9c0-0.9,0.1-1.9,0.5-2.7c0.3-0.9,0.9-1.6,1.5-2.3
  c0.7-0.7,1.4-1.2,2.3-1.5C97.6,140.8,98.6,140.7,99.5,140.7L99.5,140.7z M99.5,151.4c2,0,2.7-2,2.7-3.7s-0.6-3.7-2.7-3.7
  c-2,0-2.6,2-2.6,3.7S97.5,151.4,99.5,151.4L99.5,151.4z" fill="currentColor"/>
  <path d="M108.5,141.1h4.2v2.3c0.3-0.8,0.9-1.5,1.6-1.9c0.7-0.5,1.6-0.7,2.4-0.6c0.3,0,0.7,0,1,0.1v3.9c-0.5-0.2-1.1-0.2-1.7-0.3
  c-0.4,0-0.9,0-1.3,0.2c-0.4,0.1-0.8,0.4-1.1,0.7s-0.6,0.7-0.7,1.1c-0.2,0.4-0.2,0.8-0.2,1.2v6.6h-4.3L108.5,141.1z" fill="currentColor"/>
  <path d="M127.1,136.1h14.5v3.8h-9.8v3.2h8.9v3.7h-8.9v3.5h10v4.1h-14.8V136.1z" fill="currentColor"/>
  <path d="M152.6,145.9c0-0.3-0.1-0.5-0.2-0.8c-0.1-0.2-0.3-0.5-0.5-0.6c-0.2-0.2-0.4-0.3-0.7-0.4c-0.2-0.1-0.5-0.1-0.8-0.1
  c-2.4,0-2.8,2.1-2.8,3.9s0.7,3.5,2.6,3.5c0.3,0,0.6,0,0.9-0.1c0.3-0.1,0.6-0.3,0.8-0.5c0.2-0.2,0.4-0.5,0.5-0.8
  c0.1-0.3,0.2-0.6,0.2-0.9h4.2c-0.4,3.6-3.1,5.6-6.7,5.6c-0.9,0-1.8-0.1-2.7-0.4c-0.9-0.3-1.6-0.8-2.3-1.5c-0.7-0.6-1.2-1.4-1.5-2.3
  c-0.3-0.8-0.5-1.8-0.5-2.7c0-4.2,2.7-7.2,6.9-7.2c3.3,0,6.2,1.7,6.5,5.2H152.6z" fill="currentColor"/>
  <path d="M165.3,140.7c1.4,0,2.7,0.4,3.9,1.2s2,1.9,2.6,3.1c0.5,1.3,0.7,2.7,0.4,4c-0.3,1.4-0.9,2.6-1.9,3.6c-1,1-2.2,1.6-3.6,1.9
  c-1.4,0.3-2.8,0.1-4-0.4c-1.3-0.5-2.4-1.4-3.1-2.6c-0.8-1.2-1.2-2.5-1.2-3.9c0-0.9,0.1-1.9,0.5-2.7c0.3-0.9,0.9-1.6,1.5-2.3
  c0.7-0.7,1.4-1.2,2.3-1.5C163.4,140.8,164.4,140.7,165.3,140.7L165.3,140.7z M165.3,151.4c2,0,2.6-2,2.6-3.7s-0.6-3.7-2.6-3.7
  s-2.6,2-2.6,3.7S163.3,151.4,165.3,151.4L165.3,151.4z" fill="currentColor"/>
  <path d="M174.1,141.1h4.2v1.8c0.5-0.7,1.1-1.2,1.8-1.6c0.7-0.4,1.5-0.6,2.4-0.6c4.4,0,4.8,3.2,4.8,5.1v8.5H183v-6.4
  c0-1.8,0.2-3.6-2.2-3.6c-1.6,0-2.3,1.4-2.3,2.8v7.2h-4.3L174.1,141.1z" fill="currentColor"/>
  <path d="M196.1,140.7c1.4,0,2.7,0.4,3.9,1.2c1.2,0.8,2,1.9,2.6,3.1c0.5,1.3,0.7,2.7,0.4,4c-0.3,1.4-0.9,2.6-1.9,3.6
  s-2.2,1.6-3.6,1.9c-1.4,0.3-2.8,0.1-4-0.4s-2.4-1.4-3.1-2.6c-0.8-1.2-1.2-2.5-1.2-3.9c0-0.9,0.1-1.9,0.5-2.7
  c0.3-0.9,0.9-1.6,1.5-2.3c0.7-0.7,1.4-1.2,2.3-1.5C194.3,140.8,195.2,140.7,196.1,140.7L196.1,140.7z M196.1,151.4
  c2,0,2.6-2,2.6-3.7s-0.6-3.7-2.6-3.7s-2.6,2-2.6,3.7S194.1,151.4,196.1,151.4L196.1,151.4z" fill="currentColor"/>
  <path d="M205.2,141.1h4.2v1.8h0.1c0.4-0.7,0.9-1.2,1.6-1.6c0.7-0.4,1.4-0.6,2.2-0.6c0.8-0.1,1.6,0.1,2.3,0.5c0.7,0.4,1.2,1,1.6,1.7
  c0.5-0.7,1.1-1.2,1.8-1.6c0.7-0.4,1.5-0.6,2.3-0.5c4.2,0,4.7,3.2,4.7,5.7v7.9h-4.3v-7.8c0-1.4-0.7-2.3-1.8-2.3c-1.9,0-2,1.4-2,3.6
  v6.5h-4.3v-7.5c0-1.6-0.4-2.5-1.6-2.5c-1.6,0-2.2,0.9-2.2,3.6v6.5h-4.3L205.2,141.1z" fill="currentColor"/>
  <path d="M233.2,139.4h-4.3v-3.3h4.3V139.4z M228.8,141.1h4.3v13.2h-4.3V141.1z" fill="currentColor"/>
  <path d="M244.7,145.9c0-0.3-0.1-0.5-0.2-0.8c-0.1-0.2-0.3-0.5-0.5-0.6c-0.2-0.2-0.4-0.3-0.7-0.4c-0.2-0.1-0.5-0.1-0.8-0.1
  c-2.4,0-2.8,2.1-2.8,3.9s0.7,3.5,2.6,3.5c0.3,0,0.6,0,0.9-0.1c0.3-0.1,0.6-0.3,0.8-0.5c0.2-0.2,0.4-0.5,0.5-0.8
  c0.1-0.3,0.2-0.6,0.2-0.9h4.2c-0.4,3.6-3.1,5.6-6.7,5.6c-0.9,0-1.8-0.1-2.7-0.4c-0.9-0.3-1.6-0.8-2.3-1.5c-0.7-0.6-1.2-1.4-1.5-2.3
  c-0.3-0.8-0.5-1.8-0.5-2.7c0-4.2,2.7-7.2,6.9-7.2c3.3,0,6.2,1.7,6.5,5.2H244.7z" fill="currentColor"/>
  <path d="M267.4,135.7c5.7,0,9,4.2,9,9.5s-3.2,9.5-9,9.5s-9-4.2-9-9.5S261.6,135.7,267.4,135.7z M267.4,150.6c3.1,0,4.2-2.7,4.2-5.4
  s-1.2-5.4-4.2-5.4s-4.2,2.7-4.2,5.4S264.3,150.6,267.4,150.6z" fill="currentColor"/>
  <path d="M278.6,141.1h4.1v1.5c0.4-0.6,0.9-1.1,1.6-1.4c0.6-0.3,1.4-0.5,2.1-0.5c4.1,0,5.9,3.6,5.9,7.3c0,3.4-1.8,6.7-5.6,6.7
  c-0.7,0-1.5-0.1-2.1-0.4c-0.7-0.3-1.2-0.8-1.7-1.4h0v5.9h-4.3V141.1z M282.8,147.6c0,2.3,0.7,3.8,2.6,3.8s2.6-2,2.6-3.8
  c0-1.8-0.7-3.6-2.6-3.6C284.3,144,282.8,144.8,282.8,147.6L282.8,147.6z" fill="currentColor"/>
  <path d="M294.5,141.1h4.1v1.5h0c0.4-0.6,0.9-1.1,1.6-1.4c0.6-0.3,1.4-0.5,2.1-0.5c4.1,0,5.9,3.6,5.9,7.3c0,3.4-1.8,6.7-5.6,6.7
  c-0.7,0-1.5-0.1-2.1-0.4c-0.7-0.3-1.2-0.8-1.7-1.4h-0.1v5.9h-4.3V141.1z M298.7,147.6c0,2.3,0.7,3.8,2.6,3.8s2.6-2,2.6-3.8
  c0-1.8-0.7-3.6-2.6-3.6C300.2,144,298.7,144.8,298.7,147.6z" fill="currentColor"/>
  <path d="M316.7,140.7c1.4,0,2.7,0.4,3.9,1.2s2,1.9,2.6,3.1c0.5,1.3,0.7,2.7,0.4,4c-0.3,1.4-0.9,2.6-1.9,3.6s-2.2,1.6-3.6,1.9
  c-1.4,0.3-2.8,0.1-4-0.4s-2.4-1.4-3.1-2.6c-0.8-1.2-1.2-2.5-1.2-3.9c0-0.9,0.1-1.9,0.5-2.7c0.3-0.9,0.9-1.6,1.5-2.3
  c0.7-0.7,1.4-1.2,2.3-1.5C314.9,140.8,315.8,140.7,316.7,140.7L316.7,140.7z M316.7,151.4c2,0,2.7-2,2.7-3.7s-0.6-3.7-2.7-3.7
  c-2,0-2.6,2-2.6,3.7S314.7,151.4,316.7,151.4L316.7,151.4z" fill="currentColor"/>
  <path d="M325.5,141.1h4.2v2.3h0c0.3-0.8,0.9-1.5,1.6-1.9c0.7-0.5,1.6-0.7,2.4-0.6c0.3,0,0.7,0,1,0.1v3.9c-0.5-0.2-1.1-0.2-1.7-0.3
  c-0.4,0-0.9,0-1.3,0.2c-0.4,0.1-0.8,0.4-1.1,0.7c-0.3,0.3-0.6,0.7-0.7,1.1c-0.2,0.4-0.2,0.8-0.2,1.3v6.6h-4.3V141.1z" fill="currentColor"/>
  <path d="M344.5,143.9h-2.7v6c0,1.1,0.6,1.3,1.6,1.3c0.3,0,0.7-0.1,1.1-0.1v3.2c-0.8,0-1.6,0.1-2.4,0.1c-3.7,0-4.6-1.1-4.6-4.7v-5.9
  h-2.2v-2.8h2.2v-4h4.3v4h2.7V143.9z" fill="currentColor"/>
  <path d="M359.5,154.3h-4.2v-1.8c-0.4,0.7-1,1.2-1.7,1.6c-0.7,0.4-1.5,0.6-2.3,0.6c-3.8,0-4.9-2.2-4.9-5.7v-7.9h4.3v7.7
  c0,1.8,0.8,2.4,2.1,2.4c0.9,0,2.4-0.6,2.4-3v-7.1h4.3L359.5,154.3z" fill="currentColor"/>
  <path d="M362.2,141.1h4.2v1.8h0c0.5-0.7,1.1-1.2,1.8-1.6c0.7-0.4,1.5-0.6,2.4-0.6c4.4,0,4.8,3.2,4.8,5.1v8.5h-4.3v-6.4
  c0-1.8,0.2-3.6-2.2-3.6c-1.6,0-2.4,1.4-2.4,2.8v7.2h-4.3V141.1z" fill="currentColor"/>
  <path d="M382.1,139.4h-4.3v-3.3h4.3V139.4z M377.8,141.1h4.3v13.2h-4.3V141.1z" fill="currentColor"/>
  <path d="M393,143.9h-2.7v6c0,1.1,0.6,1.3,1.6,1.3c0.4,0,0.7-0.1,1.1-0.1v3.2c-0.8,0-1.6,0.1-2.4,0.1c-3.7,0-4.6-1.1-4.6-4.7v-5.9
  h-2.2v-2.8h2.2v-4h4.3v4h2.7V143.9z" fill="currentColor"/>
  <path d="M402.8,155.5c-1,2.9-2.6,3.3-5.5,3.3h-2v-3.5h1.5c0.2,0,0.4,0,0.6-0.1c0.2-0.1,0.4-0.2,0.6-0.3c0.2-0.1,0.3-0.3,0.4-0.5
  c0.1-0.2,0.1-0.4,0.2-0.6c-0.3-1.2-0.6-2.4-1.1-3.5l-3.4-9.2h4.6l2.5,8.6h0l2.5-8.6h4.4L402.8,155.5z" fill="currentColor"/>
  <path d="M404.3,118.5H0v1h404.3V118.5z" fill="currentColor"/>
  <path class="st1" d="M13.1,90c-0.2-0.4-0.5-0.7-0.9-1c-0.3-0.3-0.7-0.5-1.2-0.6c-0.4-0.2-0.9-0.2-1.4-0.2c-0.9,0-1.6,0.2-2.2,0.5
  S6.4,89.5,6,90c-0.4,0.6-0.6,1.2-0.8,1.9C5.1,92.7,5,93.4,5,94.2c0,0.7,0.1,1.4,0.3,2.1C5.4,97,5.7,97.6,6,98.2
  c0.4,0.6,0.9,1,1.5,1.3s1.3,0.5,2.2,0.5c1.2,0,2.1-0.4,2.7-1.1c0.7-0.7,1.1-1.7,1.2-2.8h3.7c-0.1,1.1-0.4,2.1-0.8,3
  c-0.4,0.9-0.9,1.6-1.6,2.2c-0.7,0.6-1.4,1.1-2.3,1.4c-0.9,0.3-1.9,0.5-3,0.5c-1.3,0-2.5-0.2-3.6-0.7s-2-1.1-2.7-1.9
  c-0.7-0.8-1.3-1.8-1.7-2.9c-0.4-1.1-0.6-2.3-0.6-3.6c0-1.3,0.2-2.5,0.6-3.6c0.4-1.1,1-2.1,1.7-2.9c0.7-0.8,1.6-1.5,2.7-2
  S8.4,85,9.7,85c1,0,1.9,0.1,2.7,0.4c0.9,0.3,1.6,0.7,2.3,1.2c0.7,0.5,1.2,1.2,1.7,2c0.4,0.8,0.7,1.7,0.8,2.7h-3.7
  C13.4,90.8,13.3,90.4,13.1,90z" stroke-miterlimit="10" fill="currentColor"/>
  <path class="st1" d="M23.1,85.4V92h0.1c0.4-0.7,1-1.3,1.7-1.6c0.7-0.3,1.4-0.5,2-0.5c0.9,0,1.7,0.1,2.3,0.4s1.1,0.6,1.4,1
  s0.6,1,0.7,1.6c0.1,0.6,0.2,1.4,0.2,2.1v7.8H28v-7.1c0-1-0.2-1.8-0.5-2.3c-0.3-0.5-0.9-0.8-1.7-0.8c-0.9,0-1.6,0.3-2.1,0.8
  c-0.4,0.6-0.6,1.5-0.6,2.8v6.6h-3.5V85.4H23.1z" stroke-miterlimit="10" fill="currentColor"/>
  <path class="st1" d="M34.2,88.2v-2.9h3.5v2.9H34.2z M37.7,90.2v12.6h-3.5V90.2H37.7z" stroke-miterlimit="10" fill="currentColor"/>
  <path class="st1" d="M43.9,85.4v17.4h-3.5V85.4H43.9z" stroke-miterlimit="10" fill="currentColor"/>
  <path class="st1" d="M55.6,101.2c-0.4,0.7-0.9,1.2-1.6,1.5c-0.7,0.3-1.4,0.5-2.2,0.5c-0.9,0-1.8-0.2-2.5-0.5
  c-0.7-0.4-1.3-0.9-1.8-1.5c-0.5-0.6-0.8-1.3-1-2.2c-0.2-0.8-0.4-1.7-0.4-2.5c0-0.8,0.1-1.7,0.4-2.5c0.2-0.8,0.6-1.5,1-2.1
  c0.5-0.6,1-1.1,1.7-1.5c0.7-0.4,1.5-0.5,2.4-0.5c0.7,0,1.5,0.2,2.1,0.5c0.7,0.3,1.2,0.8,1.6,1.4h0v-6.3H59v17.4h-3.3L55.6,101.2
  L55.6,101.2z M55.5,95c-0.1-0.5-0.3-0.9-0.5-1.3c-0.2-0.4-0.5-0.7-0.9-0.9c-0.4-0.2-0.8-0.3-1.4-0.3c-0.6,0-1,0.1-1.4,0.3
  s-0.7,0.5-0.9,0.9c-0.2,0.4-0.4,0.8-0.5,1.3c-0.1,0.5-0.2,1-0.2,1.5c0,0.5,0.1,1,0.2,1.5c0.1,0.5,0.3,0.9,0.5,1.3
  c0.3,0.4,0.6,0.7,1,0.9c0.4,0.2,0.8,0.4,1.4,0.4c0.6,0,1-0.1,1.4-0.3c0.4-0.2,0.7-0.5,0.9-0.9c0.2-0.4,0.4-0.8,0.5-1.3
  c0.1-0.5,0.1-1,0.1-1.5C55.6,96,55.6,95.5,55.5,95z" stroke-miterlimit="10" fill="currentColor"/>
  <path class="st1" d="M64.9,90.2v2.3h0c0.2-0.4,0.4-0.8,0.7-1.1c0.3-0.3,0.6-0.6,1-0.9c0.4-0.2,0.7-0.4,1.1-0.5
  c0.4-0.1,0.8-0.2,1.3-0.2c0.2,0,0.5,0,0.8,0.1v3.2c-0.2,0-0.4-0.1-0.6-0.1c-0.2,0-0.4,0-0.7,0c-0.6,0-1.2,0.1-1.6,0.3
  c-0.4,0.2-0.8,0.5-1.1,0.9c-0.3,0.4-0.5,0.8-0.6,1.3c-0.1,0.5-0.2,1-0.2,1.6v5.7h-3.5V90.2H64.9z" stroke-miterlimit="10" fill="currentColor"/>
  <path class="st1" d="M74.4,99.8c0.5,0.5,1.3,0.8,2.2,0.8c0.7,0,1.3-0.2,1.8-0.5c0.5-0.3,0.8-0.7,0.9-1.1h3.1
  c-0.5,1.5-1.2,2.6-2.2,3.2c-1,0.7-2.2,1-3.7,1c-1,0-1.9-0.2-2.7-0.5c-0.8-0.3-1.5-0.8-2-1.4c-0.6-0.6-1-1.3-1.3-2.1
  c-0.3-0.8-0.5-1.7-0.5-2.7c0-0.9,0.2-1.8,0.5-2.6c0.3-0.8,0.7-1.5,1.3-2.1c0.6-0.6,1.2-1.1,2-1.4c0.8-0.3,1.7-0.5,2.6-0.5
  c1.1,0,2,0.2,2.8,0.6c0.8,0.4,1.5,1,2,1.7c0.5,0.7,0.9,1.5,1.1,2.4c0.2,0.9,0.3,1.8,0.2,2.8h-9.1C73.6,98.5,73.8,99.3,74.4,99.8z
  M78.3,93.2c-0.4-0.5-1-0.7-1.9-0.7c-0.6,0-1,0.1-1.4,0.3c-0.4,0.2-0.7,0.4-0.9,0.7c-0.2,0.3-0.4,0.6-0.5,0.9
  c-0.1,0.3-0.1,0.6-0.2,0.8h5.6C79,94.3,78.7,93.6,78.3,93.2z" stroke-miterlimit="10" fill="currentColor"/>
  <path class="st1" d="M88,90.2V92H88c0.4-0.7,1-1.3,1.7-1.6c0.7-0.3,1.4-0.5,2.1-0.5c0.9,0,1.7,0.1,2.3,0.4c0.6,0.3,1.1,0.6,1.4,1
  c0.3,0.4,0.6,1,0.7,1.6c0.1,0.6,0.2,1.4,0.2,2.1v7.8H93v-7.1c0-1-0.2-1.8-0.5-2.3s-0.9-0.8-1.7-0.8c-0.9,0-1.6,0.3-2.1,0.8
  c-0.4,0.6-0.6,1.5-0.6,2.8v6.6h-3.5V90.2H88z" stroke-miterlimit="10" fill="currentColor"/>
  <path class="st1" d="M102.9,85.4v3.7c0,0.5-0.1,1-0.2,1.5c-0.2,0.5-0.4,0.9-0.7,1.2c-0.3,0.4-0.7,0.7-1.1,0.9
  c-0.4,0.2-0.9,0.4-1.4,0.5v-1.6c0.6-0.2,1-0.5,1.3-0.9c0.2-0.4,0.3-0.9,0.3-1.5h-1.6v-3.8H102.9z" stroke-miterlimit="10" fill="currentColor"/>
  <path class="st1" d="M107,99.7c0.2,0.3,0.4,0.5,0.6,0.7c0.2,0.2,0.5,0.3,0.8,0.4c0.3,0.1,0.6,0.1,1,0.1c0.2,0,0.5,0,0.8-0.1
  c0.3-0.1,0.5-0.1,0.7-0.3c0.2-0.1,0.4-0.3,0.5-0.5c0.1-0.2,0.2-0.5,0.2-0.8c0-0.5-0.3-0.9-1-1.2c-0.7-0.3-1.7-0.5-2.9-0.8
  c-0.5-0.1-1-0.2-1.5-0.4s-0.9-0.4-1.3-0.6c-0.4-0.3-0.7-0.6-0.9-1c-0.2-0.4-0.3-0.9-0.3-1.4c0-0.8,0.2-1.5,0.5-2
  c0.3-0.5,0.7-0.9,1.3-1.2c0.5-0.3,1.1-0.5,1.8-0.6c0.7-0.1,1.3-0.2,2-0.2c0.7,0,1.3,0.1,2,0.2c0.6,0.1,1.2,0.3,1.7,0.7
  c0.5,0.3,0.9,0.7,1.3,1.2s0.5,1.2,0.6,1.9h-3.3c0-0.7-0.3-1.1-0.8-1.4c-0.5-0.2-1-0.4-1.6-0.4c-0.2,0-0.4,0-0.6,0
  c-0.2,0-0.4,0.1-0.6,0.2c-0.2,0.1-0.3,0.2-0.5,0.4s-0.2,0.4-0.2,0.6c0,0.3,0.1,0.6,0.3,0.8c0.2,0.2,0.5,0.4,0.9,0.5
  c0.4,0.1,0.8,0.2,1.3,0.3c0.5,0.1,1,0.2,1.4,0.3c0.5,0.1,1,0.3,1.5,0.4c0.5,0.2,0.9,0.4,1.3,0.6s0.7,0.6,0.9,1
  c0.2,0.4,0.3,0.9,0.3,1.5c0,0.8-0.2,1.5-0.5,2.1c-0.3,0.6-0.8,1-1.3,1.4c-0.5,0.3-1.2,0.6-1.8,0.7c-0.7,0.1-1.4,0.2-2.1,0.2
  c-0.7,0-1.4-0.1-2.1-0.2c-0.7-0.1-1.3-0.4-1.9-0.7c-0.5-0.3-1-0.8-1.3-1.4c-0.3-0.6-0.5-1.3-0.6-2.1h3.3
  C106.8,99.1,106.9,99.4,107,99.7z" stroke-miterlimit="10" fill="currentColor"/>
  <path class="st1" d="M135.6,90c-0.2-0.4-0.5-0.7-0.9-1c-0.3-0.3-0.7-0.5-1.2-0.6c-0.4-0.2-0.9-0.2-1.4-0.2c-0.9,0-1.6,0.2-2.2,0.5
  s-1.1,0.8-1.5,1.3c-0.4,0.6-0.6,1.2-0.8,1.9c-0.2,0.7-0.3,1.5-0.3,2.2c0,0.7,0.1,1.4,0.3,2.1c0.2,0.7,0.4,1.3,0.8,1.9
  c0.4,0.6,0.9,1,1.5,1.3s1.3,0.5,2.2,0.5c1.2,0,2.1-0.4,2.7-1.1c0.7-0.7,1.1-1.7,1.2-2.8h3.7c-0.1,1.1-0.4,2.1-0.8,3
  c-0.4,0.9-0.9,1.6-1.6,2.2c-0.7,0.6-1.4,1.1-2.3,1.4c-0.9,0.3-1.9,0.5-3,0.5c-1.3,0-2.5-0.2-3.6-0.7s-2-1.1-2.7-1.9
  c-0.7-0.8-1.3-1.8-1.7-2.9c-0.4-1.1-0.6-2.3-0.6-3.6c0-1.3,0.2-2.5,0.6-3.6c0.4-1.1,1-2.1,1.7-2.9c0.7-0.8,1.6-1.5,2.7-2
  s2.3-0.7,3.6-0.7c1,0,1.9,0.1,2.7,0.4c0.9,0.3,1.6,0.7,2.3,1.2c0.7,0.5,1.2,1.2,1.7,2c0.4,0.8,0.7,1.7,0.8,2.7H136
  C135.9,90.8,135.8,90.4,135.6,90z" stroke-miterlimit="10" fill="currentColor"/>
  <path class="st1" d="M142,94.1c0-0.8,0.3-1.5,0.6-2c0.4-0.5,0.8-1,1.4-1.3c0.6-0.3,1.2-0.6,1.9-0.7c0.7-0.1,1.4-0.2,2.1-0.2
  c0.6,0,1.3,0,1.9,0.1c0.7,0.1,1.2,0.3,1.8,0.5c0.5,0.3,1,0.6,1.3,1.1c0.3,0.5,0.5,1.1,0.5,1.8v6.6c0,0.6,0,1.1,0.1,1.6
  c0.1,0.5,0.2,0.9,0.3,1.2h-3.5c-0.1-0.2-0.1-0.4-0.2-0.6c0-0.2-0.1-0.4-0.1-0.6c-0.6,0.6-1.2,1-2,1.2c-0.7,0.2-1.5,0.3-2.3,0.3
  c-0.6,0-1.2-0.1-1.7-0.2c-0.5-0.1-1-0.4-1.4-0.7c-0.4-0.3-0.7-0.7-0.9-1.2s-0.3-1-0.3-1.7c0-0.7,0.1-1.3,0.4-1.8
  c0.3-0.5,0.6-0.8,1-1.1c0.4-0.3,0.9-0.5,1.4-0.6c0.5-0.1,1-0.2,1.5-0.3c0.5-0.1,1-0.1,1.5-0.2c0.5,0,1-0.1,1.3-0.2
  c0.4-0.1,0.7-0.2,0.9-0.4c0.2-0.2,0.3-0.5,0.3-0.8c0-0.4-0.1-0.7-0.2-0.9c-0.1-0.2-0.3-0.4-0.5-0.5c-0.2-0.1-0.4-0.2-0.7-0.2
  c-0.3,0-0.6-0.1-0.9-0.1c-0.7,0-1.2,0.1-1.6,0.4c-0.4,0.3-0.6,0.8-0.7,1.5H142z M150,96.6c-0.1,0.1-0.3,0.2-0.5,0.3
  c-0.2,0.1-0.5,0.1-0.7,0.2c-0.3,0-0.5,0.1-0.8,0.1c-0.3,0-0.6,0.1-0.8,0.1c-0.3,0-0.5,0.1-0.8,0.2c-0.3,0.1-0.5,0.2-0.7,0.3
  c-0.2,0.1-0.3,0.3-0.5,0.5c-0.1,0.2-0.2,0.5-0.2,0.8c0,0.3,0.1,0.6,0.2,0.8s0.3,0.4,0.5,0.5c0.2,0.1,0.4,0.2,0.7,0.3
  c0.3,0,0.5,0.1,0.8,0.1c0.7,0,1.2-0.1,1.6-0.3c0.4-0.2,0.7-0.5,0.8-0.8c0.2-0.3,0.3-0.6,0.3-1c0-0.3,0.1-0.6,0.1-0.8V96.6z" stroke-miterlimit="10" fill="currentColor"/>
  <path class="st1" d="M159.6,85.4v6.3h0c0.4-0.7,1-1.1,1.7-1.4c0.7-0.3,1.5-0.5,2.3-0.5c0.6,0,1.3,0.1,1.9,0.4
  c0.6,0.3,1.2,0.7,1.7,1.2c0.5,0.5,0.9,1.2,1.2,2.1c0.3,0.8,0.5,1.8,0.5,3s-0.2,2.2-0.5,3c-0.3,0.8-0.7,1.5-1.2,2.1
  c-0.5,0.5-1.1,0.9-1.7,1.2c-0.6,0.3-1.2,0.4-1.9,0.4c-0.9,0-1.8-0.1-2.5-0.4c-0.7-0.3-1.3-0.8-1.7-1.5h0v1.6h-3.3V85.4H159.6z
  M165.2,95c-0.1-0.5-0.3-0.9-0.5-1.3c-0.2-0.4-0.5-0.7-0.9-0.9c-0.4-0.2-0.8-0.3-1.3-0.3c-0.5,0-0.9,0.1-1.3,0.3
  c-0.4,0.2-0.7,0.5-0.9,0.9c-0.2,0.4-0.4,0.8-0.5,1.3c-0.1,0.5-0.2,1-0.2,1.5c0,0.5,0.1,1,0.2,1.5c0.1,0.5,0.3,0.9,0.5,1.3
  c0.2,0.4,0.6,0.7,0.9,0.9c0.4,0.2,0.8,0.3,1.3,0.3c0.5,0,1-0.1,1.3-0.3c0.4-0.2,0.7-0.5,0.9-0.9c0.2-0.4,0.4-0.8,0.5-1.3
  c0.1-0.5,0.2-1,0.2-1.5C165.4,96,165.3,95.5,165.2,95z" stroke-miterlimit="10" fill="currentColor"/>
  <path class="st1" d="M171.1,88.2v-2.9h3.5v2.9H171.1z M174.6,90.2v12.6h-3.5V90.2H174.6z" stroke-miterlimit="10" fill="currentColor"/>
  <path class="st1" d="M180.6,90.2V92h0.1c0.4-0.7,1-1.3,1.7-1.6c0.7-0.3,1.4-0.5,2.1-0.5c0.9,0,1.7,0.1,2.3,0.4
  c0.6,0.3,1.1,0.6,1.4,1c0.3,0.4,0.6,1,0.7,1.6c0.1,0.6,0.2,1.4,0.2,2.1v7.8h-3.5v-7.1c0-1-0.2-1.8-0.5-2.3
  c-0.3-0.5-0.9-0.8-1.7-0.8c-0.9,0-1.6,0.3-2.1,0.8c-0.4,0.6-0.6,1.5-0.6,2.8v6.6h-3.5V90.2H180.6z" stroke-miterlimit="10" fill="currentColor"/>
  <path class="st1" d="M195.5,99.8c0.5,0.5,1.3,0.8,2.2,0.8c0.7,0,1.3-0.2,1.8-0.5c0.5-0.3,0.8-0.7,0.9-1.1h3.1
  c-0.5,1.5-1.2,2.6-2.2,3.2c-1,0.7-2.2,1-3.7,1c-1,0-1.9-0.2-2.7-0.5c-0.8-0.3-1.5-0.8-2-1.4c-0.6-0.6-1-1.3-1.3-2.1
  c-0.3-0.8-0.5-1.7-0.5-2.7c0-0.9,0.2-1.8,0.5-2.6c0.3-0.8,0.7-1.5,1.3-2.1c0.6-0.6,1.2-1.1,2-1.4c0.8-0.3,1.7-0.5,2.6-0.5
  c1.1,0,2,0.2,2.8,0.6c0.8,0.4,1.5,1,2,1.7c0.5,0.7,0.9,1.5,1.1,2.4c0.2,0.9,0.3,1.8,0.2,2.8h-9.1C194.7,98.5,195,99.3,195.5,99.8z
  M199.4,93.2c-0.4-0.5-1-0.7-1.9-0.7c-0.6,0-1,0.1-1.4,0.3c-0.4,0.2-0.7,0.4-0.9,0.7c-0.2,0.3-0.4,0.6-0.5,0.9
  c-0.1,0.3-0.1,0.6-0.2,0.8h5.6C200.1,94.3,199.8,93.6,199.4,93.2z" stroke-miterlimit="10" fill="currentColor"/>
  <path class="st1" d="M212.7,90.2v2.3h-2.5v6.2c0,0.6,0.1,1,0.3,1.2c0.2,0.2,0.6,0.3,1.2,0.3c0.2,0,0.4,0,0.6,0c0.2,0,0.3,0,0.5-0.1
  v2.7c-0.3,0-0.6,0.1-1,0.1c-0.4,0-0.7,0-1,0c-0.5,0-1,0-1.5-0.1c-0.5-0.1-0.9-0.2-1.3-0.4c-0.4-0.2-0.7-0.5-0.9-0.9
  c-0.2-0.4-0.3-0.9-0.3-1.5v-7.4h-2.1v-2.3h2.1v-3.8h3.5v3.8H212.7z" stroke-miterlimit="10" fill="currentColor"/>
</svg>
