<svg version="1.1" id="Layer_1" xmlns="http://www.w3.org/2000/svg" xmlns:xlink="http://www.w3.org/1999/xlink" x="0px" y="0px"
	 viewBox="0 0 1280 1024" style="enable-background:new 0 0 1280 1024;" xml:space="preserve">
<style type="text/css">
	.st0{fill:none;stroke:#FFFFFF;stroke-width:17.5342;stroke-miterlimit:70.137;}
	.st1{fill:#FFFFFF;}
</style>
<path class="st0" d="M8.8,70.8h1262.5v890.9H8.8V70.8z"/>
<path class="st1" d="M175.4,307.4c18.7,0,32.3-4.8,40.8-14.8l2.8,11.4h21.7v-86.1h-65.8V244h35c0,4.4-0.3,8-0.8,11.4
	c-1.3,8-4.5,14.3-10.1,18.9c-5.5,4.6-13.1,7-22.4,7c-11.1,0-20.4-4.8-27.7-14.5c-7.3-9.7-11.1-22.5-11.1-38.5
	c0-16,3.5-28.8,10.6-38.2c7.1-9.4,16.9-14.3,29.2-14.3c4.3,0,8.1,0.5,11.3,1.7c3.3,1.2,6.6,2.9,9.1,5.6c2.8,2.4,4.8,4.6,6.1,6.3
	c1.5,1.7,3,4.1,5.3,7l28-8.2c-1.5-3.6-3.8-7.5-6.6-11.4c-2.8-3.9-6.6-8-11.3-12.3c-4.8-4.4-10.6-8-17.9-10.9
	c-7.3-2.7-15.4-4.1-24-4.1c-22.2,0-39.8,7.5-52.9,22.3c-13.1,14.8-19.7,33.6-19.7,56.6c0,23.9,6.8,43.3,20.4,57.6
	C138.9,300.1,155.8,307.4,175.4,307.4z"/>
<path class="st1" d="M311.6,307.4c12.9,0,23.7-2.9,32.5-8.7c8.8-5.8,15.1-12.8,18.9-21l-25.7-8.7c-2.3,4.4-5.5,7.7-9.8,10.6
	c-4.3,2.7-9.3,4.1-15.1,4.1c-7.8,0-14.1-2.4-18.7-7.3c-4.5-4.8-6.8-10.9-6.8-17.9h76.9c0.5-3.6,0.5-7.3,0.5-10.6
	c0-17.4-5.3-31.7-15.6-42.3c-10.3-10.9-23.2-16.2-38.3-16.2c-15.6,0-28.5,5.3-39.1,15.7c-10.6,10.4-15.9,24.7-15.9,42.8
	s5.3,32.4,15.6,43.3C282.1,302.1,295.5,307.4,311.6,307.4z M293.4,220.3c4.3-5.1,9.8-7.7,17.1-7.7c7.3,0,12.9,2.7,16.6,7.7
	c4,5.1,5.8,11.1,5.8,18.4h-45.9C287.1,231.7,289.4,225.6,293.4,220.3z"/>
<path class="st1" d="M479.3,304v-71.4c0-28.8-12.9-43.3-38.3-43.3c-13.4,0-23.2,4.8-29.5,14.3h-0.3v-10.9h-29.5V304h31v-63.1
	c0-7.5,2-13.8,6.1-18.9c4-4.8,9.1-7.3,15.6-7.3c5,0,8.6,1.7,11.1,4.8c2.3,3.1,3.5,9,3.5,16.7V304H479.3z"/>
<path class="st1" d="M551.6,307.4c12.9,0,23.7-2.9,32.5-8.7c8.8-5.8,15.1-12.8,18.9-21l-25.7-8.7c-2.3,4.4-5.5,7.7-9.8,10.6
	c-4.3,2.7-9.3,4.1-15.1,4.1c-7.8,0-14.1-2.4-18.7-7.3c-4.5-4.8-6.8-10.9-6.8-17.9h76.9c0.5-3.6,0.5-7.3,0.5-10.6
	c0-17.4-5.3-31.7-15.6-42.3c-10.3-10.9-23.2-16.2-38.3-16.2c-15.6,0-28.5,5.3-39.1,15.7c-10.6,10.4-15.9,24.7-15.9,42.8
	s5.3,32.4,15.6,43.3C521.9,302.1,535.2,307.4,551.6,307.4z M533.5,220.3c4.3-5.1,9.8-7.7,17.1-7.7s12.9,2.7,16.6,7.7
	c4,5.1,5.8,11.1,5.8,18.4h-46.1C527.2,231.7,529.2,225.6,533.5,220.3z"/>
<path class="st1" d="M652.7,250.5c0-10.4,2-18.6,6.1-24.7c4-6,10.1-9.2,18.4-9.2c5,0,9.8,0.7,14.4,1.9v-27.1
	c-2.8-1.5-7.6-1.9-14.4-1.9c-5.5,0-10.8,1.2-15.4,3.9c-4.5,2.4-8.1,5.6-10.6,9V193H622v111.3h30.8V250.5z"/>
<path class="st1" d="M743.4,235.3c-15.6,2.2-27.5,6.5-35.5,13.3s-12.1,15-12.1,25.2c0,9.9,3.8,18.1,11.1,24.2
	c7.3,6.3,17.4,9.4,30,9.4c6.8,0,13.1-1.5,18.4-4.4c5.3-2.9,9.3-6.3,11.6-10.6v11.4h29.7V236c0-15-3.8-26.4-11.1-34.6
	c-7.6-8.2-19.9-12.1-37.8-12.1c-19.9,0-36.3,7.3-48.9,21.5l18.2,15c8.8-9.2,19.2-13.8,31.3-13.8c5.3,0,9.6,1,12.9,3.1
	c3.3,2.2,4.8,5.6,4.8,10.2v5.8C763.9,232.1,756.3,233.4,743.4,235.3z M765.9,258.5c0,7.5-2.3,13.3-7.1,17.7
	c-4.8,4.4-10.6,6.5-17.4,6.5c-4.3,0-7.8-1.2-10.3-3.4c-2.8-2.2-4-5.1-4-8.5c0-8.9,7.1-14.5,21.2-16.4c4.3-0.7,10.3-1.7,17.6-3.6
	V258.5z"/>
<path class="st1" d="M826.7,268.4c0,23.7,12.6,35.6,37.8,35.6h16.9v-25.2h-13.1c-7.6,0-11.1-4.1-11.1-12.1v-48.9h23.9v-25.2h-23.9
	v-31.4h-30.5V193h-16.6v24.9h16.6V268.4z"/>
<path class="st1" d="M931,150.6h-31v30.2h31V150.6z"/>
<path class="st1" d="M930.7,192.7h-30.5V304h30.5V192.7z"/>
<path class="st1" d="M956.7,279.6c2.5,5.3,5.8,9.9,9.8,14c4,4.1,9.3,7.3,15.9,9.9c6.6,2.7,13.9,3.9,22.4,3.9
	c8.6,0,15.9-1.5,22.7-4.1c6.6-2.7,11.8-6,15.6-10.2c3.8-4.1,7.1-9,9.6-14.5c2.5-5.6,4.3-10.6,5-15.5c1-4.8,1.3-9.7,1.3-14.8
	c0-7.7-1-14.8-3-21.8c-2-6.8-5-13.1-9.3-18.9c-4.3-5.6-9.8-10.2-17.1-13.5c-7.3-3.4-15.4-5.1-24.7-5.1s-17.6,1.7-25,5.1
	c-7.3,3.4-12.9,7.7-17.1,13.5c-4.3,5.6-7.3,11.9-9.3,18.9c-2,6.8-3,14-3,21.8c0,5.3,0.5,10.4,1.5,15.5
	C952.4,268.9,954.2,274.2,956.7,279.6z M988.7,222.2c4.8-5.1,10.1-7.7,15.9-7.7c2.5,0,4.8,0.5,7.3,1.5c2.3,1,4.8,2.7,7.3,5.1
	c2.5,2.4,4.5,5.8,6.1,10.6c1.5,4.6,2.3,10.4,2.3,16.7c0,6.3-0.8,12.1-2.3,16.7c-1.5,4.8-3.5,8.2-6.1,10.6c-2.5,2.2-4.8,3.9-7.3,5.1
	c-2.3,1-4.8,1.5-7.3,1.5c-5.8,0-11.1-2.7-15.9-7.7c-4.8-5.1-7.1-13.8-7.1-26.1S983.9,227.3,988.7,222.2z"/>
<path class="st1" d="M1107.3,240.9c0-7.5,2-13.8,6.1-18.9c4-5.1,9.1-7.5,15.6-7.5c5,0,8.6,1.7,11.1,4.8c2.3,3.1,3.5,9,3.5,16.7v67.7
	h30.5v-71.1c0-28.8-12.9-43.3-38.3-43.3c-13.4,0-23.2,4.8-29.5,14.3h-0.3v-10.9h-29.5V304h30.8V240.9z"/>
<path class="st0" d="M334.4,575.1c0,41.6,2.8,80.1,8.1,115.4h-2l-42.9-78.1L189.4,416.4h-85v395.5h83.4V655.4
	c0-37.7-3-76.2-9.1-115.9h2.5l44.4,83.5l107.6,188.7h84.5V416.2h-83.4V575.1z"/>
<path class="st0" d="M670.2,530.1c-9.8,20.1-19.4,39.7-29.2,59h-2.5c-14.1-30.2-23.4-49.8-28.2-59l-58.5-113.9h-95l141.4,236.1
	v159.4h83.4V652.3l141.9-236.1H728L670.2,530.1z"/>
<path class="st0" d="M1099.8,687.6c-6.8,17.7-18.2,32.9-34,45.5c-15.9,12.6-34,18.9-54.2,18.9c-30.3,0-54.5-12.6-72.4-37.5
	c-18.2-24.9-27.2-58.5-27.2-100.6c0-41.6,9.1-74.7,27-99.7c17.9-24.9,42.1-37.5,72.6-37.5c20.2,0,36.3,5.1,48.9,15
	c12.4,9.9,23.2,23,32.8,39.2l71.9-22.3c-12.4-29-31.8-53-58.5-72.1c-26.5-19.1-58-28.8-94.5-28.8c-54.7,0-99.3,18.6-134.1,56.1
	c-34.8,37.3-52.2,87.3-52.2,150.2c0,64.3,17.6,114.9,52.9,151.7c35.3,36.8,79.7,55.2,133.4,55.2c18.4,0,35.8-2.4,52.2-7.3
	c16.4-4.8,30.3-11.1,41.8-18.6c11.6-7.5,22.2-16.4,31.8-26.6c9.6-10.2,17.1-19.8,22.9-29.3c5.8-9.4,10.6-18.9,14.6-28.5
	L1099.8,687.6z"/>
</svg>
