<svg version="1.1" id="Layer_1" xmlns="http://www.w3.org/2000/svg" xmlns:xlink="http://www.w3.org/1999/xlink" x="0px" y="0px"
viewBox="0 0 282.8 182.4" style="enable-background:new 0 0 282.8 182.4;" xml:space="preserve">
  <path d="M215.3,31.9l4.6-4.5V13.7L206.2,0h-45.6l-13.7,13.7V4.6L142.3,0h-18.2l-4.6,4.6v9.1l-9.1,9.1l-9.1-9.1V4.6L96.7,0H78.5
  l-4.6,4.6L69.3,0H51.1l-4.6,4.6v18.2L23.7,0H5.5L0.9,4.6v63.9L5.5,73h18.2l4.6-4.6V50.2L51.1,73h18.3l4.6-4.6V31.9l22.8,22.8v13.7
  l4.6,4.6h18.2l4.6-4.6V54.8l22.7-22.9v27.4L160.6,73h45.6l13.7-13.7V45.6l-4.6-4.6h-22.8v4.6h-18.2V27.4h18.2v4.5H215.3z" fill="currentColor"/>
  <path d="M216.7,3.1c0.4,0,0.8,0,0.8-0.5s-0.4-0.5-0.8-0.5H216v1H216.7z M216,5.1h-0.6V1.6h1.3c0.8,0,1.3,0.3,1.3,1
  c0,0.1,0,0.2-0.1,0.4c0,0.1-0.1,0.2-0.2,0.3c-0.1,0.1-0.2,0.2-0.3,0.2s-0.2,0.1-0.4,0.1l1,1.5h-0.6l-0.9-1.5H216V5.1z M216.6,0.7
  c-0.3,0-0.7,0.1-1,0.2s-0.6,0.3-0.8,0.6c-0.2,0.2-0.4,0.5-0.5,0.8s-0.2,0.6-0.1,1c0,0.3,0,0.7,0.1,1s0.3,0.6,0.5,0.8
  c0.2,0.2,0.5,0.4,0.8,0.6c0.3,0.1,0.6,0.2,1,0.2c0.3,0,0.7-0.1,1-0.2s0.6-0.3,0.8-0.6c0.2-0.2,0.4-0.5,0.5-0.8s0.2-0.6,0.1-1
  c0-0.3,0-0.7-0.1-1s-0.3-0.6-0.5-0.8s-0.5-0.4-0.8-0.6C217.3,0.8,217,0.7,216.6,0.7L216.6,0.7z M216.6,6.4c-0.4,0-0.8-0.1-1.2-0.2
  c-0.4-0.2-0.7-0.4-1-0.7c-0.3-0.3-0.5-0.6-0.7-1c-0.1-0.4-0.2-0.8-0.2-1.2s0-0.8,0.2-1.2c0.1-0.4,0.4-0.8,0.7-1.1s0.6-0.5,1-0.7
  s0.8-0.3,1.2-0.3s0.8,0.1,1.2,0.3s0.7,0.4,1,0.7s0.5,0.7,0.7,1.1c0.1,0.4,0.2,0.8,0.2,1.2s-0.1,0.8-0.2,1.2c-0.1,0.4-0.4,0.7-0.7,1
  s-0.6,0.5-1,0.7C217.4,6.3,217,6.4,216.6,6.4" fill="currentColor"/>
  <path d="M282.8,118.5H0.9v1h281.9V118.5z" fill="currentColor"/>
  <polygon points="0,136 7,136 10.1,148 10.1,148 13.2,136 20.1,136 20.1,154 15.7,154 15.7,140.3 15.6,140.3 11.8,154 8.3,154 
    4.5,140.3 4.4,140.3 4.4,154 0,154 		" fill="currentColor"/>
  <path d="M23,145c0-1.5,0.8-2.8,2-3.5c1.3-0.7,2.7-1,4.2-0.9c3.1,0,6.1,0.7,6.1,4.4v5.7c0,1.1,0,2.3,0.5,3.4h-4.3
    c-0.1-0.4-0.2-0.8-0.3-1.2c-1.1,1.2-2.7,1.6-4.3,1.6c-2.5,0-4.5-1.3-4.5-4c0-4.2,4.6-3.9,7.6-4.5c0.7-0.2,1.1-0.4,1.1-1.2
    c0-1-1.2-1.4-2.1-1.4c-1.2,0-1.9,0.6-2.1,1.6H23z M28.6,151.7c2,0,2.7-1.1,2.6-3.9c-0.6,0.4-1.7,0.4-2.6,0.7
    c-0.9,0.3-1.8,0.6-1.8,1.7S27.6,151.7,28.6,151.7z" fill="currentColor"/>
  <path d="M45.3,155.2c-1,2.9-2.6,3.2-5.5,3.2h-2v-3.5h1.5c1,0,1.7-0.6,1.7-1.5c0-0.7-0.8-2.7-1.1-3.4l-3.4-9.1h4.5l2.5,8.5h0.1
    l2.5-8.5h4.4L45.3,155.2z" fill="currentColor"/>
  <path d="M57.9,140.5c4.1,0,6.9,3,6.9,6.9s-2.8,6.9-6.9,6.9s-6.9-3-6.9-6.9C51.1,143.5,53.9,140.5,57.9,140.5z M57.9,151.1
    c2,0,2.6-1.9,2.6-3.6c0-1.7-0.6-3.7-2.6-3.7c-2,0-2.6,2-2.6,3.7C55.4,149.2,56,151.1,57.9,151.1L57.9,151.1z" fill="currentColor"/>
  <path d="M67.3,140.9h4.2v2.3h0c0.6-1.7,2.1-2.5,3.9-2.5c0.3,0,0.7,0,1,0.1v3.9c-0.5-0.2-1.1-0.3-1.6-0.3c-2.1,0-3.2,1.5-3.2,3.1
    v6.5h-4.3V140.9z" fill="currentColor"/>
  <path d="M78.2,136h4v4.2c0,2.5-1.3,4.4-4,4.9v-2c1.1-0.2,1.9-1.2,1.8-2.4h-1.8V136z" fill="currentColor"/>
  <path d="M88.6,149.7c0,0.6,0.2,1.1,0.7,1.5c0.5,0.3,1,0.5,1.6,0.5c0.8,0,2-0.4,2-1.4c0-1-1.4-1.2-2.1-1.4
    c-2.7-0.7-6.1-0.8-6.1-4.3c0-3.1,3.4-4,6-4c2.8,0,5.9,0.8,6,4.2h-4c0-0.5-0.2-0.9-0.6-1.1c-0.4-0.2-0.9-0.4-1.4-0.3
    c-0.7,0-1.8,0.1-1.8,1c0,1.2,2.9,1.5,4.8,1.9c2.6,0.5,3.3,2.4,3.3,3.5c0,3.5-3.3,4.7-6.3,4.7c-3.1,0-6.3-1-6.4-4.7H88.6z" fill="currentColor"/>
  <path d="M115.7,135.6c5.6,0,8.9,4.2,8.9,9.4s-3.2,9.4-8.9,9.4c-5.7,0-8.9-4.2-8.9-9.4S110,135.6,115.7,135.6z M115.7,150.4
    c3,0,4.2-2.6,4.2-5.3s-1.2-5.3-4.2-5.3s-4.2,2.6-4.2,5.3S112.6,150.4,115.7,150.4L115.7,150.4z" fill="currentColor"/>
  <path d="M127.9,143.7h-2.1v-2.8h2.1c0-3.8,1.3-4.9,5-4.9c0.7,0,1.4,0,2.1,0.1v3c-0.4-0.1-0.8-0.1-1.2-0.1c-1,0-1.6,0.1-1.6,1.3
    v0.6h2.6v2.8h-2.6V154h-4.3V143.7z" fill="currentColor"/>
  <path d="M137.2,143.7h-2.1v-2.8h2.1c0-3.8,1.3-4.9,5-4.9c0.7,0,1.4,0,2.1,0.1v3c-0.4-0.1-0.8-0.1-1.2-0.1c-1,0-1.6,0.1-1.6,1.3
    v0.6h2.6v2.8h-2.6V154h-4.3V143.7z M149.6,139.3h-4.3V136h4.3L149.6,139.3z M145.3,140.9h4.3V154h-4.3L145.3,140.9z" fill="currentColor"/>
  <path d="M161.1,145.7c-0.1-1.1-1-1.9-2.1-1.9c-2.4,0-2.8,2-2.8,3.9c0,1.7,0.7,3.4,2.5,3.4c1.5,0,2.2-0.8,2.4-2.2h4.2
    c-0.4,3.5-3.1,5.5-6.6,5.5c-3.9,0-6.9-2.7-6.9-6.7c0-4.2,2.6-7.1,6.9-7.1c3.3,0,6.1,1.7,6.5,5.2L161.1,145.7z" fill="currentColor"/>
  <path d="M171.2,148.5c0.1,1.8,1.1,3,2.9,3c1,0,2-0.5,2.4-1.4h4c-0.8,3-3.6,4.3-6.5,4.3c-4.3,0-7.2-2.6-7.2-7c0-4,3.2-6.9,7.1-6.9
    c4.7,0,7,3.5,6.8,8L171.2,148.5z M176.5,146.1c-0.1-1.5-1.1-2.7-2.5-2.7c-1.5,0-2.5,1.1-2.8,2.7H176.5z" fill="currentColor"/>
  <path d="M191.9,143.7h-2.1v-2.8h2.1c0-3.8,1.3-4.9,5-4.9c0.7,0,1.4,0,2.1,0.1v3c-0.4,0-0.8-0.1-1.2-0.1c-1,0-1.6,0.1-1.6,1.3v0.6
    h2.6v2.8h-2.6V154h-4.3V143.7z" fill="currentColor"/>
  <path d="M206.5,140.5c4.1,0,6.9,3,6.9,6.9s-2.8,6.9-6.9,6.9s-6.9-3-6.9-6.9C199.6,143.5,202.4,140.5,206.5,140.5z M206.5,151.1
    c2,0,2.6-1.9,2.6-3.6c0-1.7-0.6-3.7-2.6-3.7c-2,0-2.6,2-2.6,3.7C203.9,149.2,204.5,151.1,206.5,151.1L206.5,151.1z" fill="currentColor"/>
  <path d="M215.8,140.9h4.2v2.3h0c0.6-1.7,2.1-2.5,3.9-2.5c0.3,0,0.7,0,1,0.1v3.9c-0.5-0.2-1.1-0.3-1.6-0.3c-2.1,0-3.2,1.5-3.2,3.1
    v6.5h-4.3V140.9z" fill="currentColor"/>
  <polygon points="0,160 14.3,160 14.3,163.7 4.7,163.7 4.7,166.9 13.5,166.9 13.5,170.5 4.7,170.5 4.7,173.9 14.6,173.9 14.6,178 
    0,178 		" fill="currentColor"/>
  <path d="M25.6,169.7c-0.1-1.1-1-1.9-2.1-1.9c-2.4,0-2.8,2-2.8,3.9c0,1.7,0.7,3.4,2.5,3.4c1.5,0,2.2-0.8,2.4-2.2h4.2
    c-0.4,3.5-3.1,5.5-6.6,5.5c-3.9,0-6.9-2.7-6.9-6.7c0-4.2,2.6-7.1,6.9-7.1c3.3,0,6.1,1.7,6.5,5.2L25.6,169.7z" fill="currentColor"/>
  <path d="M38.3,164.5c4.1,0,6.9,3,6.9,6.9s-2.8,6.9-6.9,6.9s-6.9-3-6.9-6.9C31.4,167.5,34.3,164.5,38.3,164.5z M38.3,175.1
    c2,0,2.6-1.9,2.6-3.6c0-1.7-0.6-3.7-2.6-3.7s-2.6,2-2.6,3.7C35.7,173.1,36.3,175.1,38.3,175.1L38.3,175.1z" fill="currentColor"/>
  <path d="M47.5,164.9h4.2v1.8h0c0.8-1.3,2.5-2.2,4.1-2.2c4.4,0,4.7,3.2,4.7,5.1v8.4h-4.3v-7.6c0-1.3-0.4-2.3-2.1-2.3
    c-1.6,0-2.3,1.4-2.3,2.8v7.1h-4.3V164.9z" fill="currentColor"/>
  <path d="M69.6,164.5c4.1,0,6.9,3,6.9,6.9s-2.8,6.9-6.9,6.9s-6.9-3-6.9-6.9C62.7,167.5,65.6,164.5,69.6,164.5z M69.6,175.1
    c2,0,2.6-1.9,2.6-3.6c0-1.7-0.6-3.7-2.6-3.7s-2.6,2-2.6,3.7C67,173.1,67.6,175.1,69.6,175.1L69.6,175.1z" fill="currentColor"/>
  <path d="M78.8,164.9H83v1.8h0c0.8-1.3,2.2-2.2,3.8-2.2c1.6,0,3.1,0.5,3.8,2.1c0.9-1.4,2.4-2.2,4.1-2.1c4.2,0,4.6,3.2,4.6,5.6v7.8
    H95v-7.7c0-1.4-0.7-2.2-1.8-2.2c-1.8,0-2,1.4-2,3.5v6.4h-4.3v-7.4c0-1.5-0.4-2.5-1.6-2.5c-1.5,0-2.2,0.9-2.2,3.6v6.4h-4.3V164.9z"
     fill="currentColor"/>
  <path d="M106.6,163.3h-4.3V160h4.3V163.3z M102.3,164.9h4.3V178h-4.3V164.9z" fill="currentColor"/>
  <path d="M118.1,169.7c-0.1-1.1-1-1.9-2.1-1.9c-2.4,0-2.8,2-2.8,3.9c0,1.7,0.7,3.4,2.5,3.4c1.5,0,2.2-0.8,2.4-2.2h4.2
    c-0.4,3.5-3.1,5.5-6.6,5.5c-3.9,0-6.9-2.7-6.9-6.7c0-4.2,2.6-7.1,6.9-7.1c3.3,0,6.1,1.7,6.5,5.2L118.1,169.7z" fill="currentColor"/>
  <path d="M140.9,159.6c5.6,0,8.9,4.2,8.9,9.4c0,5.2-3.2,9.4-8.9,9.4s-8.9-4.2-8.9-9.4C132,163.8,135.2,159.6,140.9,159.6z
      M140.9,174.3c3,0,4.2-2.6,4.2-5.3c0-2.7-1.2-5.3-4.2-5.3s-4.2,2.6-4.2,5.3C136.7,171.7,137.9,174.3,140.9,174.3L140.9,174.3z" fill="currentColor"/>
  <path d="M151.9,164.9h4.1v1.5h0c0.8-1.2,2.2-1.9,3.6-1.9c4.1,0,5.9,3.5,5.9,7.2c0,3.4-1.8,6.6-5.5,6.6c-1.5,0.1-2.9-0.6-3.7-1.8h0
    v5.8h-4.3V164.9z M156,171.3c0,2.3,0.7,3.8,2.6,3.8c1.9,0,2.6-2,2.6-3.8c0-1.7-0.6-3.5-2.5-3.5C157.5,167.8,156,168.6,156,171.3
    L156,171.3z" fill="currentColor"/>
  <path d="M167.5,164.9h4.1v1.5h0c0.8-1.2,2.2-1.9,3.6-1.9c4.1,0,5.9,3.5,5.9,7.2c0,3.4-1.8,6.6-5.5,6.6c-1.5,0.1-2.9-0.6-3.7-1.8h0
    v5.8h-4.3V164.9z M171.7,171.3c0,2.3,0.7,3.8,2.6,3.8c1.9,0,2.6-2,2.6-3.8c0-1.7-0.6-3.5-2.5-3.5
    C173.2,167.8,171.7,168.6,171.7,171.3L171.7,171.3z" fill="currentColor"/>
  <path d="M189.4,164.5c4.1,0,6.9,3,6.9,6.9s-2.8,6.9-6.9,6.9s-6.9-3-6.9-6.9C182.5,167.5,185.4,164.5,189.4,164.5z M189.4,175.1
    c2,0,2.6-1.9,2.6-3.6c0-1.7-0.6-3.7-2.6-3.7c-2,0-2.6,2-2.6,3.7C186.8,173.1,187.4,175.1,189.4,175.1L189.4,175.1z" fill="currentColor"/>
  <path d="M197.9,164.9h4.2v2.3h0c0.6-1.7,2.1-2.5,3.9-2.5c0.3,0,0.7,0,1,0.1v3.9c-0.5-0.2-1.1-0.3-1.6-0.3c-2.1,0-3.2,1.5-3.2,3.1
    v6.5h-4.3V164.9z" fill="currentColor"/>
  <path d="M217.4,167.7h-2.6v5.9c0,1,0.6,1.3,1.5,1.3c0.4,0,0.7,0,1.1,0v3.2c-0.8,0-1.6,0.1-2.3,0.1c-3.7,0-4.6-1.1-4.6-4.6v-5.8
    h-2.2v-2.8h2.2v-4h4.3v4h2.6V167.7z" fill="currentColor"/>
  <path d="M232.5,178h-4.2v-1.8h0c-0.9,1.3-2.4,2.2-4,2.2c-3.8,0-4.8-2.2-4.8-5.6v-7.9h4.3v7.6c0,1.7,0.7,2.3,2.1,2.3
    c0.9,0,2.3-0.6,2.3-2.9v-7h4.3L232.5,178z" fill="currentColor"/>
  <path d="M235.4,164.9h4.2v1.8h0c0.8-1.3,2.5-2.2,4.1-2.2c4.4,0,4.7,3.2,4.7,5.1v8.4h-4.3v-7.6c0-1.3-0.4-2.3-2.1-2.3
    c-1.6,0-2.3,1.4-2.3,2.8v7.1h-4.3V164.9z" fill="currentColor"/>
  <path d="M255.5,163.3h-4.3V160h4.3V163.3z M251.2,164.9h4.3V178h-4.3V164.9z" fill="currentColor"/>
  <path d="M266.4,167.7h-2.6v5.9c0,1,0.6,1.3,1.5,1.3c0.4,0,0.7,0,1.1,0v3.2c-0.8,0-1.6,0.1-2.3,0.1c-3.7,0-4.6-1.1-4.6-4.6v-5.8
    h-2.2v-2.8h2.2v-4h4.3v4h2.6L266.4,167.7z" fill="currentColor"/>
  <path d="M276.1,179.1c-1,2.9-2.6,3.2-5.5,3.2h-2v-3.5h1.5c1,0,1.7-0.6,1.7-1.5c0-0.7-0.8-2.7-1.1-3.4l-3.4-9.1h4.5l2.5,8.5h0
    l2.5-8.5h4.4L276.1,179.1z" fill="currentColor"/>
  <path d="M12.9,89.5c-0.2-0.4-0.5-0.7-0.9-1c-0.3-0.3-0.7-0.5-1.2-0.6c-0.4-0.2-0.9-0.2-1.4-0.2c-0.9,0-1.6,0.2-2.2,0.5
    c-0.6,0.3-1.1,0.8-1.5,1.3C5.5,90,5.2,90.7,5,91.4c-0.2,0.7-0.3,1.5-0.3,2.2c0,0.7,0.1,1.4,0.3,2.1c0.2,0.7,0.4,1.3,0.8,1.9
    c0.4,0.6,0.9,1,1.5,1.3c0.6,0.3,1.3,0.5,2.2,0.5c1.2,0,2.1-0.4,2.7-1.1c0.7-0.7,1.1-1.7,1.2-2.8h3.7c-0.1,1.1-0.3,2.1-0.8,3
    c-0.4,0.9-0.9,1.6-1.6,2.2c-0.7,0.6-1.4,1.1-2.3,1.4c-0.9,0.3-1.9,0.5-3,0.5c-1.3,0-2.5-0.2-3.6-0.7c-1.1-0.5-2-1.1-2.7-1.9
    c-0.7-0.8-1.3-1.8-1.7-2.9s-0.6-2.3-0.6-3.5c0-1.3,0.2-2.5,0.6-3.6c0.4-1.1,1-2.1,1.7-2.9c0.7-0.8,1.6-1.5,2.7-2
    c1.1-0.5,2.3-0.7,3.6-0.7c1,0,1.9,0.1,2.7,0.4c0.9,0.3,1.6,0.7,2.3,1.2c0.7,0.5,1.2,1.2,1.7,2s0.7,1.7,0.8,2.7h-3.7
    C13.2,90.3,13.1,89.8,12.9,89.5z" fill="currentColor"/>
  <path d="M9.5,103.1c-1.4,0-2.7-0.2-3.8-0.7c-1.1-0.5-2.1-1.2-2.9-2c-0.8-0.9-1.4-1.9-1.8-3c-0.4-1.1-0.6-2.4-0.6-3.7
    c0-1.4,0.2-2.6,0.6-3.8c0.4-1.2,1-2.2,1.8-3.1c0.8-0.9,1.7-1.6,2.9-2.1c1.1-0.5,2.4-0.8,3.8-0.8c1,0,2,0.1,2.9,0.4
    c0.9,0.3,1.7,0.7,2.4,1.3c0.7,0.6,1.3,1.3,1.8,2.1c0.5,0.8,0.8,1.8,0.9,2.9l0.1,0.6h-4.7l-0.1-0.4c-0.1-0.4-0.2-0.7-0.4-1l0,0
    c-0.2-0.3-0.4-0.6-0.7-0.8c-0.3-0.2-0.6-0.4-1-0.6c-0.4-0.1-0.8-0.2-1.2-0.2c-0.8,0-1.4,0.1-2,0.4c-0.5,0.3-1,0.7-1.3,1.2
    c-0.3,0.5-0.6,1.1-0.7,1.8c-0.2,0.7-0.2,1.4-0.2,2.1c0,0.7,0.1,1.4,0.2,2c0.2,0.6,0.4,1.2,0.7,1.7c0.3,0.5,0.8,0.9,1.3,1.2
    c0.5,0.3,1.2,0.4,2,0.4c1,0,1.8-0.3,2.4-0.9c0.6-0.6,0.9-1.5,1.1-2.6L13,95h4.7l0,0.5c-0.1,1.1-0.4,2.2-0.8,3.1
    c-0.4,0.9-1,1.7-1.7,2.4c-0.7,0.7-1.6,1.2-2.5,1.5C11.7,103,10.6,103.1,9.5,103.1z M9.5,84.9c-1.3,0-2.4,0.2-3.4,0.7
    c-1,0.4-1.8,1.1-2.5,1.8c-0.7,0.8-1.2,1.7-1.6,2.7c-0.4,1.1-0.6,2.2-0.6,3.5C1.4,94.8,1.6,96,2,97c0.4,1,0.9,1.9,1.6,2.7
    c0.7,0.8,1.5,1.4,2.5,1.8c1,0.4,2.1,0.7,3.4,0.7c1,0,1.9-0.2,2.8-0.5c0.8-0.3,1.6-0.7,2.2-1.3c0.6-0.6,1.1-1.3,1.5-2.1
    c0.3-0.7,0.5-1.4,0.6-2.2h-2.7c-0.2,1.1-0.6,2-1.3,2.7c-0.8,0.8-1.8,1.2-3.1,1.2c-0.9,0-1.8-0.2-2.4-0.6c-0.7-0.4-1.2-0.9-1.6-1.5
    c-0.4-0.6-0.7-1.3-0.9-2c-0.2-0.7-0.3-1.5-0.3-2.3c0-0.8,0.1-1.6,0.3-2.3c0.2-0.8,0.5-1.5,0.9-2.1c0.4-0.6,1-1.1,1.6-1.5
    c0.7-0.4,1.5-0.6,2.4-0.6c0.5,0,1,0.1,1.5,0.3c0.5,0.2,0.9,0.4,1.3,0.7c0.4,0.3,0.7,0.7,1,1.1l0,0c0.2,0.3,0.3,0.6,0.4,1h2.7
    c-0.1-0.7-0.4-1.4-0.7-1.9c-0.4-0.7-0.9-1.3-1.5-1.8c-0.6-0.5-1.3-0.9-2.1-1.1C11.3,85.1,10.4,84.9,9.5,84.9z" fill="currentColor"/>
  <path d="M23.8,84.8v6.6h0.1c0.4-0.7,1-1.3,1.7-1.6c0.7-0.3,1.3-0.5,2-0.5c0.9,0,1.7,0.1,2.3,0.4c0.6,0.3,1.1,0.6,1.4,1
    c0.3,0.4,0.6,1,0.7,1.6s0.2,1.4,0.2,2.1v7.8h-3.5v-7.1c0-1-0.2-1.8-0.5-2.3c-0.3-0.5-0.9-0.8-1.7-0.8c-0.9,0-1.6,0.3-2,0.8
    c-0.4,0.6-0.6,1.5-0.6,2.8v6.6h-3.5V84.8H23.8z" fill="currentColor"/>
  <path d="M32.7,102.8h-4.5v-7.6c0-0.9-0.1-1.6-0.4-2.1c-0.2-0.4-0.7-0.5-1.3-0.5c-0.8,0-1.3,0.2-1.6,0.6c-0.4,0.5-0.5,1.3-0.5,2.5
    v7.1h-4.5V84.3h4.5v5.7c0.3-0.3,0.7-0.5,1-0.7c0.8-0.4,1.5-0.6,2.2-0.6c1,0,1.8,0.1,2.5,0.4c0.7,0.3,1.2,0.7,1.6,1.2
    c0.4,0.5,0.7,1.1,0.8,1.8c0.1,0.7,0.2,1.4,0.2,2.2V102.8z M29.2,101.8h2.5v-7.3c0-0.7-0.1-1.4-0.2-2c-0.1-0.6-0.3-1-0.6-1.4
    c-0.3-0.4-0.7-0.7-1.2-0.9c-0.5-0.2-1.2-0.3-2.1-0.3c-0.6,0-1.2,0.2-1.8,0.4c-0.6,0.3-1.1,0.8-1.5,1.4l-0.1,0.2h-0.8l-0.1-0.5
    v-6.1h-2.5v16.4h2.5v-6.1c0-1.4,0.2-2.4,0.7-3.1c0.5-0.7,1.3-1,2.4-1c1,0,1.7,0.3,2.2,1c0.4,0.6,0.6,1.5,0.6,2.6V101.8z" fill="currentColor"/>
  <path d="M35.9,87.7v-2.9h3.5v2.9H35.9z M39.4,89.6v12.6h-3.5V89.6H39.4z" fill="currentColor"/>
  <path d="M39.9,102.8h-4.5V89.1h4.5V102.8z M36.4,101.8h2.5V90.1h-2.5V101.8z M39.9,88.2h-4.5v-3.9h4.5V88.2z M36.4,87.2h2.5v-1.9
    h-2.5V87.2z" fill="currentColor"/>
  <path d="M46.6,84.8v17.4h-3.5V84.8H46.6z" fill="currentColor"/>
  <path d="M47.1,102.8h-4.5V84.3h4.5V102.8z M43.7,101.8h2.5V85.3h-2.5V101.8z" fill="currentColor"/>
  <path d="M59.3,100.6c-0.4,0.7-0.9,1.2-1.6,1.5s-1.4,0.5-2.2,0.5c-0.9,0-1.8-0.2-2.5-0.5c-0.7-0.4-1.3-0.9-1.8-1.5
    c-0.5-0.6-0.8-1.3-1-2.2c-0.2-0.8-0.4-1.7-0.4-2.5c0-0.8,0.1-1.7,0.4-2.5c0.2-0.8,0.6-1.5,1-2.1c0.5-0.6,1-1.1,1.7-1.5
    c0.7-0.4,1.5-0.5,2.4-0.5c0.7,0,1.5,0.2,2.1,0.5c0.7,0.3,1.2,0.8,1.6,1.4h0v-6.3h3.5v17.4h-3.3L59.3,100.6L59.3,100.6z M59.1,94.4
    c-0.1-0.5-0.3-0.9-0.5-1.3c-0.2-0.4-0.5-0.7-0.9-0.9c-0.4-0.2-0.8-0.3-1.4-0.3c-0.6,0-1,0.1-1.4,0.3c-0.4,0.2-0.7,0.5-0.9,0.9
    c-0.2,0.4-0.4,0.8-0.5,1.3c-0.1,0.5-0.2,1-0.2,1.5c0,0.5,0.1,1,0.2,1.5c0.1,0.5,0.3,0.9,0.5,1.3c0.3,0.4,0.6,0.7,1,0.9
    c0.4,0.2,0.8,0.4,1.4,0.4c0.6,0,1-0.1,1.4-0.3c0.4-0.2,0.7-0.5,0.9-0.9c0.2-0.4,0.4-0.8,0.5-1.3c0.1-0.5,0.1-1,0.1-1.5
    S59.2,94.9,59.1,94.4z" fill="currentColor"/>
  <path d="M55.5,103.1c-1,0-1.9-0.2-2.7-0.6c-0.8-0.4-1.4-1-1.9-1.6c-0.5-0.7-0.9-1.5-1.1-2.3c-0.2-0.9-0.4-1.8-0.4-2.7
    c0-0.9,0.1-1.8,0.4-2.6c0.3-0.8,0.6-1.6,1.1-2.2c0.5-0.7,1.1-1.2,1.9-1.6c1.4-0.7,3.4-0.9,5-0.1c0.3,0.2,0.7,0.4,0.9,0.6v-5.6h4.5
    v18.4h-4.3V102c-0.3,0.2-0.6,0.4-0.9,0.6C57.2,102.9,56.4,103.1,55.5,103.1z M55.4,89.8c-0.8,0-1.6,0.2-2.2,0.5
    c-0.6,0.3-1.2,0.8-1.6,1.3c-0.4,0.6-0.7,1.2-1,1.9c-0.2,0.7-0.3,1.5-0.3,2.3c0,0.8,0.1,1.6,0.3,2.4c0.2,0.8,0.5,1.4,1,2
    c0.4,0.6,1,1,1.6,1.3c0.6,0.3,1.4,0.5,2.3,0.5c0.8,0,1.4-0.1,2-0.4c0.6-0.3,1-0.7,1.4-1.3l0.1-0.2h0.8v1.6h2.3V85.3h-2.5v6.3h-0.8
    l-0.2-0.2c-0.3-0.5-0.8-0.9-1.4-1.2C56.7,89.9,56.1,89.8,55.4,89.8z M56.3,100.5c-0.6,0-1.2-0.1-1.6-0.4c-0.4-0.3-0.8-0.6-1.1-1.1
    c-0.3-0.4-0.5-0.9-0.6-1.5c-0.1-0.5-0.2-1.1-0.2-1.6c0-0.6,0.1-1.1,0.2-1.6c0.1-0.5,0.3-1,0.6-1.4c0.3-0.4,0.7-0.8,1.1-1.1
    c0.9-0.5,2.5-0.5,3.4,0c0.4,0.3,0.8,0.6,1.1,1c0.3,0.4,0.5,0.9,0.6,1.4c0.1,0.5,0.2,1,0.2,1.6c0,0.6-0.1,1.1-0.2,1.6
    c-0.1,0.5-0.3,1-0.5,1.5c-0.3,0.5-0.6,0.8-1.1,1.1C57.5,100.3,57,100.5,56.3,100.5z M56.3,92.4c-0.5,0-0.9,0.1-1.2,0.3
    c-0.3,0.2-0.6,0.4-0.8,0.7c-0.2,0.3-0.4,0.7-0.4,1.1c-0.1,0.4-0.1,0.9-0.1,1.4c0,0.4,0.1,0.9,0.2,1.3c0.1,0.4,0.3,0.8,0.5,1.1
    c0.2,0.3,0.5,0.6,0.8,0.8c0.6,0.4,1.7,0.4,2.3,0c0.3-0.2,0.6-0.4,0.7-0.7c0.2-0.3,0.3-0.7,0.4-1.1c0.1-0.5,0.1-0.9,0.1-1.4
    c0-0.5,0-1-0.1-1.4c-0.1-0.4-0.2-0.8-0.4-1.1c-0.2-0.3-0.4-0.5-0.8-0.7C57.2,92.5,56.8,92.4,56.3,92.4z" fill="currentColor"/>
  <path d="M69.5,89.6V92h0c0.2-0.4,0.4-0.8,0.7-1.1c0.3-0.3,0.6-0.6,1-0.9c0.4-0.2,0.7-0.4,1.1-0.5c0.4-0.1,0.8-0.2,1.3-0.2
    c0.2,0,0.5,0,0.8,0.1v3.2c-0.2,0-0.4-0.1-0.6-0.1c-0.2,0-0.4,0-0.7,0c-0.6,0-1.2,0.1-1.6,0.3s-0.8,0.5-1.1,0.9
    c-0.3,0.4-0.5,0.8-0.6,1.3c-0.1,0.5-0.2,1-0.2,1.6v5.7h-3.5V89.6H69.5z" fill="currentColor"/>
  <path d="M70.2,102.8h-4.5V89.1H70v1.2c0.3-0.3,0.6-0.5,0.9-0.7c0.4-0.3,0.8-0.5,1.3-0.6c0.7-0.2,1.4-0.3,2.3-0.1l0.4,0.1v4.2
    l-0.6-0.1c-0.2,0-0.3-0.1-0.5-0.1c-0.8-0.1-1.5,0-2,0.2c-0.4,0.2-0.7,0.4-0.9,0.7c-0.2,0.3-0.4,0.7-0.5,1.1
    c-0.1,0.4-0.2,0.9-0.2,1.5V102.8z M66.7,101.8h2.5v-5.2c0-0.6,0.1-1.2,0.2-1.7c0.1-0.5,0.3-1,0.7-1.5c0.3-0.4,0.7-0.8,1.2-1
    c0.7-0.3,1.5-0.4,2.5-0.3c0,0,0,0,0,0v-2.2c-0.5-0.1-0.9,0-1.4,0.2c-0.4,0.1-0.7,0.3-1,0.5c-0.3,0.2-0.6,0.5-0.8,0.8
    c-0.2,0.3-0.4,0.6-0.6,1l-0.1,0.3h-0.8l0-0.5v-1.8h-2.3V101.8z" fill="currentColor"/>
  <path d="M79.9,99.2c0.5,0.5,1.3,0.8,2.2,0.8c0.7,0,1.3-0.2,1.8-0.5c0.5-0.3,0.8-0.7,0.9-1.1h3c-0.5,1.5-1.2,2.6-2.2,3.2
    c-1,0.7-2.2,1-3.7,1c-1,0-1.9-0.2-2.7-0.5c-0.8-0.3-1.5-0.8-2-1.4c-0.6-0.6-1-1.3-1.3-2.1c-0.3-0.8-0.5-1.7-0.5-2.7
    c0-0.9,0.2-1.8,0.5-2.6c0.3-0.8,0.7-1.5,1.3-2.1c0.6-0.6,1.2-1.1,2-1.4c0.8-0.3,1.7-0.5,2.6-0.5c1.1,0,2,0.2,2.8,0.6
    c0.8,0.4,1.5,1,2,1.7s0.9,1.5,1.1,2.4c0.2,0.9,0.3,1.8,0.2,2.8h-9.1C79.1,97.9,79.4,98.7,79.9,99.2z M83.9,92.6
    c-0.4-0.5-1-0.7-1.9-0.7c-0.6,0-1,0.1-1.4,0.3c-0.4,0.2-0.7,0.4-0.9,0.7s-0.4,0.6-0.5,0.9s-0.1,0.6-0.2,0.8h5.6
    C84.6,93.7,84.3,93,83.9,92.6z" fill="currentColor"/>
  <path d="M82.1,103.1c-1,0-2-0.2-2.9-0.5c-0.9-0.3-1.6-0.8-2.2-1.5c-0.6-0.6-1.1-1.4-1.4-2.3C75.3,98,75.1,97,75.1,96
    c0-1,0.2-1.9,0.5-2.8c0.3-0.9,0.8-1.6,1.4-2.3c0.6-0.6,1.4-1.1,2.2-1.5c0.8-0.4,1.8-0.6,2.8-0.6c1.1,0,2.2,0.2,3,0.7
    c0.9,0.4,1.6,1.1,2.1,1.8c0.5,0.7,0.9,1.6,1.2,2.6c0.2,0.9,0.3,1.9,0.3,3l0,0.5h-9c0.1,0.7,0.3,1.2,0.7,1.6h0
    c0.4,0.4,1.1,0.6,1.9,0.6c0.6,0,1.1-0.1,1.5-0.4c0.4-0.3,0.7-0.6,0.7-0.8l0.1-0.4h4.1l-0.2,0.7c-0.5,1.6-1.3,2.8-2.4,3.5
    C84.9,102.7,83.6,103.1,82.1,103.1z M82.1,89.8c-0.9,0-1.7,0.2-2.4,0.5c-0.7,0.3-1.4,0.7-1.9,1.3c-0.5,0.5-0.9,1.2-1.2,1.9
    c-0.3,0.8-0.4,1.6-0.4,2.5c0,0.9,0.1,1.8,0.4,2.5c0.3,0.7,0.7,1.4,1.2,1.9c0.5,0.5,1.1,0.9,1.8,1.2c0.7,0.3,1.6,0.4,2.5,0.4
    c1.3,0,2.5-0.3,3.4-0.9c0.8-0.5,1.4-1.3,1.8-2.3h-2c-0.2,0.4-0.5,0.7-1,1c-0.6,0.4-1.3,0.6-2.1,0.6c-1.1,0-2-0.3-2.6-0.9l0,0
    c-0.6-0.6-1-1.5-1-2.8l0-0.5h9.1c0-0.8-0.1-1.5-0.2-2.2c-0.2-0.8-0.6-1.6-1-2.2c-0.5-0.6-1.1-1.1-1.8-1.5
    C83.9,90,83.1,89.8,82.1,89.8z M85.3,95.1h-6.8l0-0.5c0-0.3,0.1-0.6,0.2-0.9c0.1-0.4,0.3-0.7,0.6-1.1c0.3-0.3,0.6-0.6,1-0.8
    c0.4-0.2,1-0.3,1.6-0.3c1,0,1.7,0.3,2.3,0.8l0,0c0.5,0.5,0.8,1.3,1,2.2L85.3,95.1z M79.7,94.1h4.4c-0.1-0.5-0.3-0.9-0.6-1.2l0,0
    c-0.3-0.3-0.8-0.5-1.5-0.5c-0.5,0-0.9,0.1-1.2,0.2c-0.3,0.2-0.5,0.3-0.7,0.6c-0.2,0.2-0.3,0.5-0.4,0.7C79.7,94,79.7,94,79.7,94.1z
    " fill="currentColor"/>
  <path d="M94.5,89.6v1.8h0.1c0.4-0.7,1-1.3,1.7-1.6c0.7-0.3,1.4-0.5,2.1-0.5c0.9,0,1.7,0.1,2.3,0.4c0.6,0.3,1.1,0.6,1.4,1
    c0.3,0.4,0.6,1,0.7,1.6s0.2,1.4,0.2,2.1v7.8h-3.5v-7.1c0-1-0.2-1.8-0.5-2.3c-0.3-0.5-0.9-0.8-1.7-0.8c-0.9,0-1.6,0.3-2,0.8
    c-0.4,0.6-0.6,1.5-0.6,2.8v6.6h-3.5V89.6H94.5z" fill="currentColor"/>
  <path d="M103.5,102.8h-4.5v-7.6c0-0.9-0.1-1.6-0.4-2.1c-0.2-0.4-0.7-0.5-1.3-0.5c-0.8,0-1.3,0.2-1.6,0.6c-0.4,0.5-0.5,1.3-0.5,2.5
    v7.1h-4.5V89.1H95v0.9c0.3-0.3,0.7-0.5,1.1-0.7c0.8-0.4,1.6-0.5,2.4-0.5c1,0,1.8,0.1,2.5,0.4c0.7,0.3,1.2,0.7,1.6,1.2
    c0.4,0.5,0.7,1.1,0.8,1.8c0.1,0.7,0.2,1.4,0.2,2.2V102.8z M100.1,101.8h2.5v-7.3c0-0.7-0.1-1.4-0.2-2c-0.1-0.6-0.3-1-0.6-1.4
    c-0.3-0.4-0.7-0.7-1.2-0.9c-0.5-0.2-1.2-0.3-2.1-0.3c-0.7,0-1.3,0.2-1.9,0.5c-0.6,0.3-1.1,0.8-1.5,1.4l-0.1,0.2h-0.8L94,91.4v-1.3
    h-2.3v11.6h2.5v-6.1c0-1.4,0.2-2.4,0.7-3.1c0.5-0.7,1.3-1,2.4-1c1,0,1.7,0.3,2.2,1c0.4,0.6,0.6,1.5,0.6,2.6V101.8z" fill="currentColor"/>
  <path d="M110.5,84.8v3.7c0,0.5-0.1,1-0.2,1.5c-0.2,0.5-0.4,0.9-0.7,1.2c-0.3,0.4-0.7,0.7-1.1,0.9c-0.4,0.2-0.9,0.4-1.4,0.5v-1.6
    c0.6-0.2,1-0.5,1.3-0.9c0.2-0.4,0.3-0.9,0.3-1.5H107v-3.8H110.5z" fill="currentColor"/>
  <path d="M106.5,93.2v-2.5l0.3-0.1c0.5-0.2,0.8-0.4,1-0.7c0.1-0.2,0.2-0.5,0.2-0.8h-1.6v-4.8h4.5v4.2c0,0.6-0.1,1.2-0.3,1.7
    c-0.2,0.5-0.5,1-0.8,1.4c-0.3,0.4-0.8,0.7-1.2,1c-0.5,0.3-1,0.4-1.6,0.5L106.5,93.2z M107.5,91.4v0.7c0.2-0.1,0.5-0.2,0.7-0.3
    c0.4-0.2,0.7-0.5,1-0.8c0.3-0.3,0.5-0.7,0.6-1.1c0.1-0.4,0.2-0.9,0.2-1.3v-3.2h-2.5v2.8h1.6v0.5c0,0.7-0.1,1.3-0.4,1.8
    C108.5,90.8,108.1,91.1,107.5,91.4z" fill="currentColor"/>
  <path d="M115.5,99.1c0.2,0.3,0.4,0.5,0.6,0.7c0.2,0.2,0.5,0.3,0.8,0.4c0.3,0.1,0.6,0.1,1,0.1c0.2,0,0.5,0,0.8-0.1
    c0.3-0.1,0.5-0.1,0.7-0.3s0.4-0.3,0.5-0.5c0.1-0.2,0.2-0.5,0.2-0.8c0-0.5-0.3-0.9-1-1.2c-0.7-0.3-1.7-0.5-2.9-0.8
    c-0.5-0.1-1-0.2-1.5-0.4c-0.5-0.2-0.9-0.4-1.3-0.6c-0.4-0.3-0.7-0.6-0.9-1c-0.2-0.4-0.3-0.8-0.3-1.4c0-0.8,0.2-1.5,0.5-2
    c0.3-0.5,0.7-0.9,1.3-1.2s1.1-0.5,1.8-0.6c0.6-0.1,1.3-0.2,2-0.2c0.7,0,1.3,0.1,2,0.2c0.6,0.1,1.2,0.4,1.7,0.7
    c0.5,0.3,0.9,0.7,1.3,1.2c0.3,0.5,0.5,1.2,0.6,1.9H120c0-0.7-0.3-1.1-0.8-1.4c-0.5-0.2-1-0.4-1.6-0.4c-0.2,0-0.4,0-0.6,0
    c-0.2,0-0.4,0.1-0.6,0.2s-0.3,0.2-0.5,0.4c-0.1,0.2-0.2,0.4-0.2,0.6c0,0.3,0.1,0.6,0.3,0.8c0.2,0.2,0.5,0.4,0.9,0.5
    s0.8,0.2,1.3,0.3c0.5,0.1,1,0.2,1.4,0.3c0.5,0.1,1,0.3,1.5,0.4c0.5,0.2,0.9,0.4,1.3,0.6c0.4,0.3,0.7,0.6,0.9,1
    c0.2,0.4,0.3,0.9,0.3,1.5c0,0.8-0.2,1.5-0.5,2.1c-0.3,0.6-0.8,1-1.3,1.4c-0.5,0.3-1.2,0.6-1.8,0.7c-0.7,0.1-1.4,0.2-2.1,0.2
    c-0.7,0-1.4-0.1-2.1-0.2c-0.7-0.1-1.3-0.4-1.9-0.7c-0.5-0.3-1-0.8-1.3-1.4c-0.3-0.6-0.5-1.3-0.6-2.1h3.3
    C115.3,98.5,115.4,98.8,115.5,99.1z" fill="currentColor"/>
  <path d="M117.9,103.1c-0.8,0-1.5-0.1-2.2-0.2c-0.8-0.2-1.4-0.4-2-0.8c-0.6-0.4-1.1-0.9-1.5-1.5c-0.4-0.6-0.6-1.4-0.6-2.4l0-0.5
    h4.3v0.5c0,0.3,0.1,0.5,0.2,0.7l0,0c0.1,0.2,0.3,0.4,0.5,0.5c0.2,0.1,0.4,0.2,0.7,0.3c0.5,0.1,1,0.2,1.5,0c0.2,0,0.4-0.1,0.6-0.2
    c0.2-0.1,0.3-0.2,0.4-0.3c0.1-0.1,0.1-0.3,0.1-0.5c0-0.1,0-0.4-0.7-0.7c-0.7-0.3-1.6-0.5-2.8-0.8c-0.5-0.1-1-0.3-1.5-0.4
    c-0.5-0.2-1-0.4-1.4-0.7c-0.4-0.3-0.8-0.7-1.1-1.1c-0.3-0.5-0.4-1-0.4-1.7c0-0.9,0.2-1.7,0.5-2.3c0.4-0.6,0.8-1.1,1.4-1.4
    c0.6-0.3,1.2-0.6,1.9-0.7c1.4-0.3,2.8-0.3,4.2,0c0.7,0.1,1.3,0.4,1.9,0.7c0.6,0.3,1,0.8,1.4,1.4c0.4,0.6,0.6,1.3,0.7,2.2l0,0.5
    h-4.3l0-0.5c0-0.6-0.3-0.8-0.5-0.9c-0.5-0.3-1.1-0.4-2-0.3c-0.2,0-0.3,0.1-0.5,0.1c-0.1,0-0.2,0.1-0.3,0.2
    c-0.1,0.1-0.1,0.2-0.1,0.3c0,0.2,0,0.3,0.2,0.4c0.2,0.2,0.4,0.3,0.7,0.4c0.3,0.1,0.7,0.2,1.2,0.3c0.5,0.1,1,0.2,1.5,0.3
    c0.5,0.1,1,0.3,1.5,0.4c0.5,0.2,1,0.4,1.4,0.7c0.4,0.3,0.8,0.7,1,1.2c0.3,0.5,0.4,1.1,0.4,1.7c0,0.9-0.2,1.7-0.6,2.3
    c-0.4,0.6-0.9,1.1-1.5,1.5c-0.6,0.4-1.3,0.6-2,0.8C119.4,103,118.7,103.1,117.9,103.1z M112.5,98.7c0.1,0.5,0.2,1,0.5,1.3
    c0.3,0.5,0.7,0.9,1.2,1.2c0.5,0.3,1.1,0.5,1.7,0.7c1.3,0.3,2.7,0.3,4.1,0c0.6-0.1,1.2-0.3,1.7-0.7c0.5-0.3,0.9-0.7,1.1-1.2
    c0.3-0.5,0.4-1.1,0.4-1.8c0-0.5-0.1-0.9-0.3-1.2c-0.2-0.3-0.4-0.6-0.8-0.8c-0.3-0.2-0.7-0.4-1.1-0.6c-0.5-0.2-0.9-0.3-1.4-0.4
    c-0.5-0.1-1-0.2-1.4-0.3c-0.5-0.1-0.9-0.2-1.3-0.3c-0.4-0.1-0.8-0.3-1.1-0.6c-0.3-0.3-0.5-0.7-0.5-1.1c0-0.4,0.1-0.7,0.3-0.9
    c0.2-0.2,0.4-0.4,0.7-0.5c0.2-0.1,0.5-0.2,0.8-0.2c1.1-0.1,1.8,0,2.5,0.4c0.4,0.2,0.8,0.6,1,1.3h2.3c-0.1-0.5-0.2-0.8-0.4-1.2
    c-0.3-0.4-0.7-0.8-1.1-1.1c-0.5-0.3-1-0.5-1.6-0.6c-1.2-0.2-2.6-0.2-3.8,0c-0.6,0.1-1.1,0.3-1.6,0.6c-0.4,0.3-0.8,0.6-1.1,1.1
    c-0.3,0.4-0.4,1-0.4,1.7c0,0.5,0.1,0.8,0.3,1.1c0.2,0.3,0.4,0.6,0.8,0.8c0.3,0.2,0.7,0.4,1.2,0.5c0.5,0.1,0.9,0.3,1.4,0.4
    c1.2,0.3,2.2,0.5,3,0.8c1.1,0.4,1.4,1.1,1.4,1.6c0,0.4-0.1,0.8-0.3,1.1c-0.2,0.3-0.4,0.5-0.7,0.6c-0.3,0.1-0.6,0.3-0.9,0.3
    c-0.7,0.2-1.4,0.1-2,0c-0.4-0.1-0.7-0.2-1-0.5c-0.3-0.2-0.6-0.5-0.7-0.8l0,0c-0.1-0.2-0.2-0.5-0.3-0.7H112.5z" fill="currentColor"/>
  <path d="M146,89.5c-0.2-0.4-0.5-0.7-0.9-1c-0.3-0.3-0.7-0.5-1.2-0.6c-0.4-0.2-0.9-0.2-1.4-0.2c-0.9,0-1.6,0.2-2.2,0.5
    c-0.6,0.3-1.1,0.8-1.5,1.3c-0.4,0.6-0.6,1.2-0.8,1.9c-0.2,0.7-0.3,1.5-0.3,2.2c0,0.7,0.1,1.4,0.3,2.1c0.2,0.7,0.4,1.3,0.8,1.9
    c0.4,0.6,0.9,1,1.5,1.3c0.6,0.3,1.3,0.5,2.2,0.5c1.2,0,2.1-0.4,2.7-1.1c0.7-0.7,1.1-1.7,1.2-2.8h3.7c-0.1,1.1-0.3,2.1-0.8,3
    c-0.4,0.9-0.9,1.6-1.6,2.2c-0.7,0.6-1.4,1.1-2.3,1.4c-0.9,0.3-1.9,0.5-3,0.5c-1.3,0-2.5-0.2-3.6-0.7c-1.1-0.5-2-1.1-2.7-1.9
    c-0.7-0.8-1.3-1.8-1.7-2.9s-0.6-2.3-0.6-3.5c0-1.3,0.2-2.5,0.6-3.6c0.4-1.1,1-2.1,1.7-2.9c0.7-0.8,1.6-1.5,2.7-2
    c1.1-0.5,2.3-0.7,3.6-0.7c1,0,1.9,0.1,2.7,0.4c0.9,0.3,1.6,0.7,2.3,1.2c0.7,0.5,1.2,1.2,1.7,2s0.7,1.7,0.8,2.7h-3.7
    C146.3,90.3,146.2,89.8,146,89.5z" fill="currentColor"/>
  <path d="M142.6,103.1c-1.4,0-2.7-0.2-3.8-0.7c-1.1-0.5-2.1-1.2-2.9-2c-0.8-0.9-1.4-1.9-1.8-3c-0.4-1.1-0.6-2.4-0.6-3.7
    c0-1.4,0.2-2.6,0.6-3.8c0.4-1.2,1-2.2,1.8-3.1c0.8-0.9,1.7-1.6,2.9-2.1c1.1-0.5,2.4-0.8,3.8-0.8c1,0,2,0.1,2.9,0.4
    c0.9,0.3,1.7,0.7,2.4,1.3c0.7,0.6,1.3,1.3,1.8,2.1c0.5,0.8,0.8,1.8,0.9,2.9l0.1,0.6H146l-0.1-0.4c-0.1-0.4-0.2-0.7-0.4-1l0,0
    c-0.2-0.3-0.4-0.6-0.7-0.8c-0.3-0.2-0.6-0.4-1-0.6c-0.4-0.1-0.8-0.2-1.2-0.2c-0.8,0-1.4,0.1-2,0.4c-0.5,0.3-1,0.7-1.3,1.2
    c-0.3,0.5-0.6,1.1-0.7,1.8c-0.2,0.7-0.2,1.4-0.2,2.1c0,0.7,0.1,1.4,0.2,2c0.2,0.6,0.4,1.2,0.7,1.7c0.3,0.5,0.8,0.9,1.3,1.2
    c0.5,0.3,1.2,0.4,2,0.4c1,0,1.8-0.3,2.4-0.9c0.6-0.6,0.9-1.5,1.1-2.6l0.1-0.4h4.7l0,0.5c-0.1,1.1-0.4,2.2-0.8,3.1
    c-0.4,0.9-1,1.7-1.7,2.4c-0.7,0.7-1.6,1.2-2.5,1.5C144.8,103,143.7,103.1,142.6,103.1z M142.6,84.9c-1.3,0-2.4,0.2-3.4,0.7
    c-1,0.4-1.8,1.1-2.5,1.8c-0.7,0.8-1.2,1.7-1.6,2.7c-0.4,1.1-0.6,2.2-0.6,3.5c0,1.2,0.2,2.3,0.6,3.4c0.4,1,0.9,1.9,1.6,2.7
    c0.7,0.8,1.5,1.4,2.5,1.8c1,0.4,2.1,0.7,3.4,0.7c1,0,1.9-0.2,2.8-0.5c0.8-0.3,1.6-0.7,2.2-1.3c0.6-0.6,1.1-1.3,1.5-2.1
    c0.3-0.7,0.5-1.4,0.6-2.2H147c-0.2,1.1-0.6,2-1.3,2.7c-0.8,0.8-1.8,1.2-3.1,1.2c-0.9,0-1.8-0.2-2.4-0.6c-0.7-0.4-1.2-0.9-1.6-1.5
    c-0.4-0.6-0.7-1.3-0.9-2c-0.2-0.7-0.3-1.5-0.3-2.3c0-0.8,0.1-1.6,0.3-2.3c0.2-0.8,0.5-1.5,0.9-2.1c0.4-0.6,1-1.1,1.6-1.5
    c0.7-0.4,1.5-0.6,2.4-0.6c0.5,0,1,0.1,1.5,0.3c0.5,0.2,0.9,0.4,1.3,0.7c0.4,0.3,0.7,0.7,1,1.1l0,0c0.2,0.3,0.3,0.6,0.4,1h2.7
    c-0.1-0.7-0.4-1.4-0.7-1.9c-0.4-0.7-0.9-1.3-1.5-1.8c-0.6-0.5-1.3-0.9-2.1-1.1C144.4,85.1,143.5,84.9,142.6,84.9z" fill="currentColor"/>
  <path d="M153.3,93.5c0-0.8,0.3-1.5,0.6-2c0.4-0.5,0.8-1,1.4-1.3s1.2-0.6,1.9-0.7c0.7-0.1,1.4-0.2,2.1-0.2c0.6,0,1.3,0,1.9,0.1
    c0.7,0.1,1.2,0.3,1.8,0.5c0.5,0.3,1,0.6,1.3,1.1c0.3,0.5,0.5,1.1,0.5,1.8v6.6c0,0.6,0,1.1,0.1,1.6c0.1,0.5,0.2,0.9,0.3,1.2h-3.5
    c-0.1-0.2-0.1-0.4-0.2-0.6c0-0.2-0.1-0.4-0.1-0.6c-0.6,0.6-1.2,1-2,1.2c-0.7,0.2-1.5,0.3-2.3,0.3c-0.6,0-1.2-0.1-1.7-0.2
    c-0.5-0.1-1-0.4-1.4-0.7s-0.7-0.7-0.9-1.2c-0.2-0.5-0.3-1-0.3-1.7c0-0.7,0.1-1.3,0.4-1.8c0.3-0.5,0.6-0.8,1-1.1
    c0.4-0.3,0.9-0.5,1.4-0.6c0.5-0.1,1-0.2,1.5-0.3c0.5-0.1,1-0.1,1.5-0.2s1-0.1,1.3-0.2c0.4-0.1,0.7-0.2,0.9-0.4
    c0.2-0.2,0.3-0.5,0.3-0.8c0-0.4-0.1-0.7-0.2-0.9c-0.1-0.2-0.3-0.4-0.5-0.5s-0.4-0.2-0.7-0.2c-0.3,0-0.6-0.1-0.9-0.1
    c-0.7,0-1.2,0.1-1.6,0.4c-0.4,0.3-0.6,0.8-0.7,1.5H153.3z M161.3,96.1c-0.1,0.1-0.3,0.2-0.5,0.3c-0.2,0.1-0.5,0.1-0.7,0.2
    c-0.3,0-0.5,0.1-0.8,0.1s-0.6,0.1-0.8,0.1c-0.3,0-0.5,0.1-0.8,0.2c-0.3,0.1-0.5,0.2-0.7,0.3c-0.2,0.1-0.3,0.3-0.5,0.5
    c-0.1,0.2-0.2,0.5-0.2,0.8c0,0.3,0.1,0.6,0.2,0.8c0.1,0.2,0.3,0.4,0.5,0.5c0.2,0.1,0.4,0.2,0.7,0.3s0.5,0.1,0.8,0.1
    c0.7,0,1.2-0.1,1.6-0.3c0.4-0.2,0.7-0.5,0.8-0.8c0.2-0.3,0.3-0.6,0.3-1c0-0.3,0.1-0.6,0.1-0.8V96.1z" fill="currentColor"/>
  <path d="M157.2,103.1c-0.6,0-1.3-0.1-1.8-0.2c-0.6-0.2-1.1-0.4-1.5-0.8c-0.5-0.4-0.8-0.8-1.1-1.4c-0.2-0.5-0.4-1.2-0.4-1.9
    c0-0.8,0.1-1.5,0.4-2c0.3-0.5,0.7-1,1.1-1.3c0.4-0.3,1-0.5,1.5-0.7c0.5-0.1,1.1-0.3,1.6-0.3c0.5-0.1,1.1-0.1,1.6-0.2
    c0.5,0,0.9-0.1,1.3-0.2c0.3-0.1,0.6-0.2,0.7-0.3c0.1-0.1,0.1-0.2,0.1-0.4c0-0.4-0.1-0.6-0.1-0.7c-0.1-0.1-0.2-0.3-0.3-0.3
    c-0.1-0.1-0.3-0.1-0.5-0.2c-0.2,0-0.5-0.1-0.8-0.1c-0.6,0-1,0.1-1.3,0.3c-0.3,0.2-0.4,0.6-0.5,1.1l0,0.5h-4.4l0-0.5
    c0.1-0.9,0.3-1.7,0.7-2.3c0.4-0.6,0.9-1.1,1.5-1.4c0.6-0.4,1.3-0.6,2-0.8c1.4-0.3,2.7-0.3,4.2-0.1c0.7,0.1,1.3,0.3,1.9,0.6
    c0.6,0.3,1.1,0.7,1.5,1.2c0.4,0.5,0.6,1.3,0.6,2.1v6.6c0,0.5,0,1.1,0.1,1.6c0.1,0.6,0.2,0.8,0.3,1l0.5,0.8h-4.8l-0.1-0.3
    c0-0.1-0.1-0.3-0.1-0.4c-0.4,0.3-0.9,0.6-1.5,0.7C158.9,102.9,158.1,103.1,157.2,103.1z M159.1,91.1c0.3,0,0.6,0,0.9,0.1
    c0.3,0,0.6,0.2,0.9,0.3c0.3,0.2,0.5,0.4,0.7,0.7c0.2,0.3,0.2,0.7,0.2,1.1c0,0.6-0.3,1-0.5,1.2c-0.3,0.2-0.7,0.4-1.1,0.5
    c-0.4,0.1-0.9,0.2-1.4,0.2c-0.5,0-1,0.1-1.5,0.2c-0.5,0.1-1,0.2-1.5,0.3c-0.5,0.1-0.9,0.3-1.2,0.6c-0.3,0.2-0.6,0.5-0.8,0.9
    c-0.2,0.4-0.3,0.9-0.3,1.5c0,0.6,0.1,1.1,0.3,1.5c0.2,0.4,0.4,0.7,0.8,1c0.3,0.3,0.7,0.5,1.2,0.6c1.1,0.3,2.5,0.3,3.7-0.1
    c0.7-0.2,1.2-0.6,1.7-1.1l0.8-0.8l0.1,1.1c0,0.2,0,0.4,0.1,0.6c0,0.1,0,0.1,0,0.2h2.4c0-0.2-0.1-0.4-0.1-0.6
    c-0.1-0.5-0.1-1.1-0.1-1.7v-6.6c0-0.7-0.1-1.2-0.4-1.5c-0.3-0.4-0.7-0.7-1.1-0.9c-0.5-0.2-1-0.4-1.6-0.5c-1.3-0.2-2.6-0.2-3.8,0.1
    c-0.6,0.1-1.2,0.3-1.7,0.6c-0.5,0.3-0.9,0.7-1.2,1.1c-0.2,0.3-0.4,0.8-0.5,1.2h2.5c0.1-0.6,0.4-1.1,0.8-1.4
    C157.7,91.3,158.3,91.1,159.1,91.1z M158.5,100.8c-0.3,0-0.6,0-0.9-0.1c-0.3-0.1-0.6-0.2-0.9-0.3c-0.3-0.2-0.5-0.4-0.6-0.7
    c-0.2-0.3-0.2-0.6-0.2-1c0-0.4,0.1-0.8,0.2-1c0.1-0.3,0.3-0.5,0.6-0.7c0.2-0.2,0.5-0.3,0.8-0.4c0.3-0.1,0.5-0.2,0.8-0.2
    c0.3-0.1,0.6-0.1,0.9-0.1c0.3,0,0.5-0.1,0.8-0.1c0.2,0,0.4-0.1,0.6-0.2c0.2-0.1,0.3-0.1,0.4-0.2l0.8-0.7v2.4c0,0.2,0,0.5-0.1,0.8
    c0,0.4-0.2,0.8-0.4,1.1c-0.2,0.4-0.6,0.7-1,1C159.9,100.6,159.3,100.8,158.5,100.8z M160.8,96.9c-0.2,0.1-0.4,0.1-0.7,0.2
    c-0.3,0.1-0.5,0.1-0.8,0.1c-0.3,0-0.5,0.1-0.8,0.1c-0.2,0-0.5,0.1-0.7,0.2c-0.2,0.1-0.4,0.2-0.5,0.3c-0.1,0.1-0.2,0.2-0.3,0.4
    c-0.1,0.1-0.1,0.3-0.1,0.6c0,0.2,0,0.4,0.1,0.5s0.2,0.2,0.3,0.3c0.1,0.1,0.3,0.2,0.5,0.2c0.2,0,0.5,0.1,0.7,0.1
    c0.6,0,1-0.1,1.3-0.3c0.3-0.2,0.5-0.4,0.7-0.6c0.1-0.3,0.2-0.5,0.3-0.8c0-0.3,0.1-0.5,0.1-0.7V96.9z" fill="currentColor"/>
  <path d="M171.9,84.8v6.3h0c0.4-0.7,1-1.1,1.7-1.4s1.5-0.5,2.3-0.5c0.6,0,1.3,0.1,1.9,0.4c0.6,0.3,1.2,0.7,1.7,1.2
    c0.5,0.5,0.9,1.2,1.2,2.1c0.3,0.8,0.5,1.8,0.5,3s-0.2,2.2-0.5,3c-0.3,0.8-0.7,1.5-1.2,2.1c-0.5,0.5-1.1,0.9-1.7,1.2
    c-0.6,0.3-1.2,0.4-1.9,0.4c-0.9,0-1.8-0.1-2.5-0.4c-0.7-0.3-1.3-0.8-1.7-1.5h0v1.6h-3.3V84.8H171.9z M177.5,94.4
    c-0.1-0.5-0.3-0.9-0.5-1.3c-0.2-0.4-0.5-0.7-0.9-0.9c-0.4-0.2-0.8-0.3-1.3-0.3c-0.5,0-0.9,0.1-1.3,0.3c-0.4,0.2-0.7,0.5-0.9,0.9
    c-0.2,0.4-0.4,0.8-0.5,1.3c-0.1,0.5-0.2,1-0.2,1.5c0,0.5,0.1,1,0.2,1.5c0.1,0.5,0.3,0.9,0.5,1.3c0.2,0.4,0.6,0.7,0.9,0.9
    c0.4,0.2,0.8,0.3,1.3,0.3c0.5,0,1-0.1,1.3-0.3c0.4-0.2,0.7-0.5,0.9-0.9c0.2-0.4,0.4-0.8,0.5-1.3c0.1-0.5,0.2-1,0.2-1.5
    C177.7,95.4,177.6,94.9,177.5,94.4z" fill="currentColor"/>
  <path d="M175.9,103.1c-1,0-1.9-0.2-2.7-0.5c-0.4-0.2-0.7-0.4-1-0.6v0.8H168V84.3h4.5v5.6c0.3-0.3,0.7-0.5,1.1-0.6
    c1.4-0.6,3-0.7,4.5-0.1c0.7,0.3,1.3,0.7,1.8,1.3c0.5,0.6,1,1.3,1.3,2.2c0.3,0.9,0.5,2,0.5,3.2c0,1.2-0.2,2.3-0.5,3.2
    c-0.3,0.9-0.8,1.6-1.3,2.2c-0.5,0.6-1.2,1-1.8,1.3C177.3,102.9,176.6,103.1,175.9,103.1z M171.2,100.1h0.8l0.2,0.3
    c0.3,0.6,0.8,1,1.4,1.3c0.7,0.3,1.4,0.4,2.3,0.4c0.6,0,1.1-0.1,1.7-0.4c0.5-0.2,1.1-0.6,1.5-1.1c0.4-0.5,0.8-1.1,1.1-1.9
    c0.3-0.8,0.4-1.7,0.4-2.8s-0.1-2-0.4-2.8c-0.3-0.8-0.7-1.4-1.1-1.9c-0.4-0.5-0.9-0.8-1.5-1.1c-1.3-0.5-2.6-0.4-3.7,0.1
    c-0.6,0.3-1.1,0.7-1.5,1.2l-0.1,0.2h-0.8l0-0.5v-5.8H169v16.4h2.3V100.1z M174.7,100.5c-0.6,0-1.1-0.1-1.6-0.4
    c-0.4-0.3-0.8-0.6-1.1-1c-0.3-0.4-0.5-0.9-0.6-1.5c-0.1-0.5-0.2-1.1-0.2-1.6c0-0.6,0.1-1.1,0.2-1.7c0.1-0.5,0.3-1,0.6-1.5
    c0.3-0.4,0.7-0.8,1.1-1c0.9-0.5,2.3-0.5,3.2,0c0.4,0.3,0.8,0.6,1.1,1c0.3,0.4,0.5,0.9,0.6,1.5l0,0c0.1,0.5,0.2,1.1,0.2,1.7
    c0,0.6-0.1,1.1-0.2,1.6c-0.1,0.5-0.3,1-0.6,1.5c-0.3,0.4-0.6,0.8-1.1,1C175.9,100.3,175.4,100.5,174.7,100.5z M174.7,92.4
    c-0.4,0-0.8,0.1-1.1,0.3c-0.3,0.2-0.6,0.4-0.8,0.7c-0.2,0.3-0.4,0.7-0.5,1.1c-0.1,0.5-0.2,0.9-0.2,1.4c0,0.5,0.1,0.9,0.2,1.4
    c0.1,0.4,0.3,0.8,0.5,1.1c0.2,0.3,0.5,0.5,0.8,0.7c0.6,0.4,1.6,0.3,2.1,0c0.3-0.2,0.5-0.4,0.8-0.7c0.2-0.3,0.4-0.7,0.5-1.1
    c0.1-0.5,0.2-0.9,0.2-1.4c0-0.5-0.1-1-0.2-1.4l0,0c-0.1-0.4-0.3-0.8-0.5-1.1c-0.2-0.3-0.5-0.6-0.8-0.7
    C175.5,92.5,175.2,92.4,174.7,92.4z" fill="currentColor"/>
  <path d="M184.4,87.7v-2.9h3.5v2.9H184.4z M187.9,89.6v12.6h-3.5V89.6H187.9z" fill="currentColor"/>
  <path d="M188.4,102.8h-4.5V89.1h4.5V102.8z M184.9,101.8h2.5V90.1h-2.5V101.8z M188.4,88.2h-4.5v-3.9h4.5V88.2z M184.9,87.2h2.5
    v-1.9h-2.5V87.2z" fill="currentColor"/>
  <path d="M194.9,89.6v1.8h0.1c0.4-0.7,1-1.3,1.7-1.6c0.7-0.3,1.4-0.5,2.1-0.5c0.9,0,1.7,0.1,2.3,0.4c0.6,0.3,1.1,0.6,1.4,1
    c0.3,0.4,0.6,1,0.7,1.6s0.2,1.4,0.2,2.1v7.8H200v-7.1c0-1-0.2-1.8-0.5-2.3c-0.3-0.5-0.9-0.8-1.7-0.8c-0.9,0-1.6,0.3-2,0.8
    c-0.4,0.6-0.6,1.5-0.6,2.8v6.6h-3.5V89.6H194.9z" fill="currentColor"/>
  <path d="M203.9,102.8h-4.5v-7.6c0-0.9-0.1-1.6-0.4-2.1c-0.2-0.4-0.7-0.5-1.3-0.5c-0.8,0-1.3,0.2-1.6,0.6c-0.4,0.5-0.5,1.3-0.5,2.5
    v7.1h-4.5V89.1h4.3v0.9c0.3-0.3,0.7-0.5,1.1-0.7c0.8-0.4,1.6-0.5,2.4-0.5c1,0,1.8,0.1,2.5,0.4c0.7,0.3,1.2,0.7,1.6,1.2
    c0.4,0.5,0.7,1.1,0.8,1.8c0.1,0.7,0.2,1.4,0.2,2.2V102.8z M200.5,101.8h2.5v-7.3c0-0.7-0.1-1.4-0.2-2c-0.1-0.6-0.3-1-0.6-1.4
    c-0.3-0.4-0.7-0.7-1.2-0.9c-0.5-0.2-1.2-0.3-2.1-0.3c-0.7,0-1.3,0.2-1.9,0.5c-0.6,0.3-1.1,0.8-1.5,1.4l-0.1,0.2h-0.8l-0.1-0.5
    v-1.3h-2.3v11.6h2.5v-6.1c0-1.4,0.2-2.4,0.7-3.1c0.5-0.7,1.3-1,2.4-1c1,0,1.7,0.3,2.2,1c0.4,0.6,0.6,1.5,0.6,2.6V101.8z" fill="currentColor"/>
  <path d="M210.7,99.2c0.5,0.5,1.3,0.8,2.2,0.8c0.7,0,1.3-0.2,1.8-0.5c0.5-0.3,0.8-0.7,0.9-1.1h3c-0.5,1.5-1.2,2.6-2.2,3.2
    s-2.2,1-3.7,1c-1,0-1.9-0.2-2.7-0.5c-0.8-0.3-1.5-0.8-2-1.4c-0.6-0.6-1-1.3-1.3-2.1s-0.5-1.7-0.5-2.7c0-0.9,0.2-1.8,0.5-2.6
    c0.3-0.8,0.7-1.5,1.3-2.1c0.6-0.6,1.2-1.1,2-1.4c0.8-0.3,1.7-0.5,2.6-0.5c1.1,0,2,0.2,2.8,0.6c0.8,0.4,1.5,1,2,1.7
    c0.5,0.7,0.9,1.5,1.1,2.4c0.2,0.9,0.3,1.8,0.2,2.8h-9.1C209.9,97.9,210.2,98.7,210.7,99.2z M214.7,92.6c-0.4-0.5-1-0.7-1.9-0.7
    c-0.6,0-1,0.1-1.4,0.3c-0.4,0.2-0.7,0.4-0.9,0.7s-0.4,0.6-0.5,0.9c-0.1,0.3-0.1,0.6-0.2,0.8h5.6C215.4,93.7,215.1,93,214.7,92.6z"
     fill="currentColor"/>
  <path d="M212.9,103.1c-1,0-2-0.2-2.9-0.5c-0.9-0.3-1.6-0.8-2.2-1.5c-0.6-0.6-1.1-1.4-1.4-2.3c-0.3-0.9-0.5-1.8-0.5-2.9
    c0-1,0.2-1.9,0.5-2.8c0.3-0.9,0.8-1.6,1.4-2.3c0.6-0.6,1.4-1.1,2.2-1.5c0.8-0.4,1.8-0.6,2.8-0.6c1.1,0,2.2,0.2,3,0.7
    c0.9,0.4,1.6,1.1,2.1,1.8c0.5,0.7,0.9,1.6,1.2,2.6c0.2,0.9,0.3,1.9,0.3,3l0,0.5h-9c0.1,0.7,0.3,1.2,0.7,1.6l0,0
    c0.4,0.4,1.1,0.6,1.9,0.6c0.6,0,1.1-0.1,1.5-0.4c0.4-0.3,0.7-0.6,0.7-0.8l0.1-0.4h4.1l-0.2,0.7c-0.5,1.6-1.3,2.8-2.4,3.5
    C215.7,102.7,214.4,103.1,212.9,103.1z M212.9,89.8c-0.9,0-1.7,0.2-2.4,0.5c-0.7,0.3-1.4,0.7-1.9,1.3c-0.5,0.5-0.9,1.2-1.2,1.9
    c-0.3,0.8-0.4,1.6-0.4,2.5c0,0.9,0.1,1.8,0.4,2.5c0.3,0.7,0.7,1.4,1.2,1.9c0.5,0.5,1.1,0.9,1.8,1.2c0.7,0.3,1.6,0.4,2.5,0.4
    c1.3,0,2.5-0.3,3.4-0.9c0.8-0.5,1.4-1.3,1.8-2.3h-2c-0.2,0.4-0.5,0.7-1,1c-0.6,0.4-1.3,0.6-2.1,0.6c-1.1,0-2-0.3-2.6-0.9l0,0
    c-0.6-0.6-1-1.5-1-2.8l0-0.5h9.1c0-0.8-0.1-1.5-0.2-2.2c-0.2-0.8-0.6-1.6-1-2.2c-0.5-0.6-1.1-1.1-1.8-1.5
    C214.7,90,213.9,89.8,212.9,89.8z M216.1,95.1h-6.8l0-0.5c0-0.3,0.1-0.6,0.2-0.9c0.1-0.4,0.3-0.7,0.6-1s0.6-0.6,1-0.8
    c0.4-0.2,1-0.3,1.6-0.3c1,0,1.8,0.3,2.3,0.8c0.5,0.5,0.8,1.3,1,2.2L216.1,95.1z M210.5,94.1h4.4c-0.1-0.5-0.3-0.9-0.6-1.2
    c-0.3-0.3-0.8-0.5-1.5-0.5c-0.5,0-0.9,0.1-1.1,0.2c-0.3,0.2-0.5,0.3-0.7,0.6c-0.2,0.2-0.3,0.5-0.4,0.7
    C210.5,94,210.5,94,210.5,94.1z" fill="currentColor"/>
  <path d="M228.9,89.6V92h-2.5v6.2c0,0.6,0.1,1,0.3,1.2s0.6,0.3,1.2,0.3c0.2,0,0.4,0,0.6,0c0.2,0,0.3,0,0.5-0.1v2.7
    c-0.3,0-0.6,0.1-1,0.1c-0.4,0-0.7,0-1,0c-0.5,0-1,0-1.5-0.1c-0.5-0.1-0.9-0.2-1.3-0.4c-0.4-0.2-0.7-0.5-0.9-0.9
    c-0.2-0.4-0.3-0.9-0.3-1.5V92h-2.1v-2.3h2.1v-3.8h3.5v3.8H228.9z" fill="currentColor"/>
  <path d="M226.9,102.9c-0.6,0-1.1,0-1.6-0.1c-0.5-0.1-1-0.2-1.4-0.5c-0.4-0.3-0.8-0.6-1.1-1.1c-0.2-0.5-0.4-1.1-0.4-1.8v-6.9h-2.1
    v-3.3h2.1v-3.8h4.5v3.8h2.5v3.3h-2.5v5.7c0,0.7,0.1,0.8,0.1,0.8s0.2,0.1,0.8,0.1c0.2,0,0.4,0,0.5,0c0.2,0,0.3,0,0.5-0.1l0.6-0.1
    v3.7l-0.4,0.1c-0.3,0.1-0.7,0.1-1,0.1C227.6,102.9,227.3,102.9,226.9,102.9z M221.3,91.5h2.1v7.9c0,0.5,0.1,1,0.3,1.3
    c0.2,0.3,0.4,0.5,0.7,0.7c0.3,0.2,0.7,0.3,1.1,0.4c0.8,0.1,1.6,0.1,2.5,0.1c0.2,0,0.3,0,0.5,0v-1.7c-0.2,0-0.4,0-0.6,0
    c-0.7,0-1.2-0.1-1.5-0.4s-0.4-0.8-0.4-1.5v-6.7h2.5v-1.3h-2.5v-3.8h-2.5v3.8h-2.1V91.5z" fill="currentColor"/>
</svg>
