<svg version="1.1" id="Layer_1" xmlns="http://www.w3.org/2000/svg" xmlns:xlink="http://www.w3.org/1999/xlink" x="0px" y="0px"
	 viewBox="0 0 981.7 981.7" style="enable-background:new 0 0 981.7 981.7;" xml:space="preserve">
<path d="M503.7,893.5c95.1,0,164.5-24.7,208.2-75.2l14.1,58h110.5V437.2H501.1v133.2h178.7c0,22.2-1.3,40.7-3.9,58
	c-6.4,40.7-23.1,72.8-51.4,96.2c-28.3,23.4-66.8,35.8-114.4,35.8c-56.6,0-104.1-24.7-141.4-74c-37.3-49.3-56.6-114.7-56.6-196.1
	c0-81.4,18-146.8,54-194.9c36-48.1,86.1-72.8,149.1-72.8c21.8,0,41.1,2.5,57.8,8.6c16.7,6.2,33.4,14.8,46.3,28.4
	c14.1,12.3,24.4,23.4,30.9,32.1c7.7,8.6,15.4,21,27,35.8l142.7-41.9c-7.7-18.5-19.3-38.2-33.4-58c-14.1-19.7-33.4-40.7-57.8-62.9
	c-24.4-22.2-54-40.7-91.3-55.5c-37.3-13.6-78.4-21-122.1-21c-113.1,0-203.1,38.2-269.9,113.5c-66.8,75.2-100.3,171.4-100.3,288.6
	c0,122.1,34.7,220.8,104.1,293.5C317.3,856.5,403.5,893.5,503.7,893.5z" fill="#141414"/>
<rect x="8.8" y="8.8" width="964.2" height="964.2" fill="none" stroke="#141414" stroke-width="17.5342" stroke-miterlimit="70.137"/>
</svg>
